<?xml version="1.0" encoding="UTF-8" standalone="no"?>
<svg
   xmlns:dc="http://purl.org/dc/elements/1.1/"
   xmlns:cc="http://creativecommons.org/ns#"
   xmlns:rdf="http://www.w3.org/1999/02/22-rdf-syntax-ns#"
   xmlns:svg="http://www.w3.org/2000/svg"
   xmlns="http://www.w3.org/2000/svg"
   xmlns:sodipodi="http://sodipodi.sourceforge.net/DTD/sodipodi-0.dtd"
   xmlns:inkscape="http://www.inkscape.org/namespaces/inkscape"
   inkscape:version="1.0 (4035a4fb49, 2020-05-01)"
   sodipodi:docname="bg2.svg"
   id="svg18"
   version="1.1"
   fill="none"
   viewBox="0 0 1920 2160"
   height="2160"
   width="1920">
  <style></style>
  <metadata
     id="metadata24">
    <rdf:RDF>
      <cc:Work
         rdf:about="">
        <dc:format>image/svg+xml</dc:format>
        <dc:type
           rdf:resource="http://purl.org/dc/dcmitype/StillImage" />
      </cc:Work>
    </rdf:RDF>
  </metadata>
  <defs
     id="defs22" />
  <sodipodi:namedview
     inkscape:current-layer="svg18"
     inkscape:window-maximized="1"
     inkscape:window-y="-9"
     inkscape:window-x="-9"
     inkscape:cy="504.30058"
     inkscape:cx="-464.97001"
     inkscape:zoom="0.2502466"
     showgrid="false"
     id="namedview20"
     inkscape:window-height="1051"
     inkscape:window-width="1920"
     inkscape:pageshadow="2"
     inkscape:pageopacity="0"
     guidetolerance="10"
     gridtolerance="10"
     objecttolerance="10"
     borderopacity="1"
     bordercolor="#666666"
     pagecolor="#ffffff" />
  <g
     transform="translate(0,-2)"
     id="g855">
    <path
       d="M 1920,1080 H 0 v 1080 h 1920 z"
       fill="#212121"
       id="path2" />
    <path
       d="m 1920,1974.3 v -685 c -64.3,-47.7 -141.8,-80.8 -209,-125.9 -34.4,-23 -66.8,-51.4 -91.1,-83.4 h -438.6 c -56.3,83.7 -143.8,153.5 -229.9,216.5 -68.8,50.4 -140.6,101.4 -183.1,171.1 -53.8,88.3 -51.4,201.7 6.1,288.1 55,82.8 151.9,136.1 249.3,177.9 97.4,41.8 200.4,76 285.7,135.1 36.4,25.2 69.5,56.4 94.5,91.2 h 315.7 c 34.7,-65 89.1,-121.7 156.4,-161.7 14.2,-8.4 29.1,-16.2 44,-23.9 z"
       fill="#272727"
       id="path4" />
    <path
       d="m 0,1820 c 12.4,7.7 30.2,14.2 43.7,19.6 62.9,25.1 132.9,30.8 199.9,45.2 109,23.6 214.1,74.2 280.5,155.3 28.9,35.3 49.2,76.8 58.7,119.8 H 0 Z"
       fill="#272727"
       id="path6" />
    <path
       d="m 515.2,1080 c 1.9,46.3 -4.8,92.5 -36.3,130.9 -37,45.1 -101.9,71.4 -166.7,89.3 -64.8,17.9 -133,29.7 -193.2,55.5 -47.5,20.4 -88,49.7 -119,84.2 v -360 h 515.2 z"
       fill="#272727"
       id="path8" />
  </g>
  <path
     id="path10"
     fill="#212121"
     d="M1920 0H0V1080H1920V0Z" />
  <path
     id="path12"
     fill="#272727"
     d="M1920 185.7V870.7C1855.7 918.4 1778.2 951.5 1711 996.6C1676.6 1019.6 1644.2 1048 1619.9 1080H1181.3C1125 996.3 1037.5 926.5 951.4 863.5C882.6 813.1 810.8 762.1 768.3 692.4C714.5 604.1 716.9 490.7 774.4 404.3C829.4 321.5 926.3 268.2 1023.7 226.4C1121.1 184.6 1224.1 150.4 1309.4 91.3C1345.8 66.1 1378.9 34.9001 1403.9 0.100098H1719.6C1754.3 65.1001 1808.7 121.8 1876 161.8C1890.2 170.2 1905.1 178 1920 185.7Z" />
  <path
     id="path14"
     fill="#272727"
     d="M0 340C12.4 332.3 30.2 325.8 43.7 320.4C106.6 295.3 176.6 289.6 243.6 275.2C352.6 251.6 457.7 201 524.1 119.9C553 84.6001 573.3 43.1001 582.8 0.100098H0V340Z" />
  <path
     id="path16"
     fill="#272727"
     d="M515.2 1080C517.1 1033.7 510.4 987.5 478.9 949.1C441.9 904 377 877.7 312.2 859.8C247.4 841.9 179.2 830.1 119 804.3C71.5 783.9 31 754.6 0 720.1V1080.1H515.2V1080Z" />
</svg>
