<svg width="1055" height="670" viewBox="0 0 1055 670" fill="none" xmlns="http://www.w3.org/2000/svg">
<path d="M399.6 27.4998H102.3V382H399.6V27.4998Z" fill="url(#paint0_linear)"/>
<path d="M374.2 296C374.2 295.9 375 295.7 376.1 294.5C377.2 293.4 378.4 291.1 378.5 288C378.5 286.5 378.3 284.7 377.5 283C376.7 281.3 375.4 279.7 373.5 278.5C369.9 276.1 364.4 275.6 359.3 277.8C354.2 279.9 349.6 283.9 344.5 288C341.9 290 339.2 292.1 336 293.6C332.8 295.1 329.2 295.9 325.5 296C318.1 296.1 310.2 293 304.8 287C302.1 284 300 280.3 299 276.3C298 272.3 298.2 267.7 300.4 263.9C301.5 262 303 260.4 304.8 259.3C306.6 258.1 308.7 257.5 310.9 257.5C313 257.6 315.1 258.6 316.6 260.1C318.1 261.6 319 263.5 319.6 265.4C320.7 269.3 320.3 273.6 318.4 277C316.4 280.4 313.1 282.8 309.6 284C306.1 285.2 302.3 285.4 298.9 284.8C295.4 284.2 292.2 282.9 289.3 281.5C283.4 278.5 278.5 274.9 273.8 272.1C269.1 269.3 264.4 267.3 260.1 266.6C255.8 265.9 251.9 266.6 249.1 267.7C246.2 268.8 244.3 270.4 243.2 271.6C242.9 271.9 242.7 272.2 242.5 272.4C242.3 272.6 242.2 272.8 242 273C241.7 273.3 241.6 273.5 241.6 273.5C241.6 273.5 241.7 273.3 241.9 273C242 272.8 242.2 272.6 242.3 272.4C242.5 272.2 242.7 271.9 243 271.6C244.1 270.4 246 268.8 248.9 267.6C251.8 266.4 255.7 265.7 260.1 266.4C264.5 267.1 269.2 269.1 274 271.9C278.8 274.7 283.7 278.3 289.6 281.2C292.5 282.6 295.7 283.9 299 284.4C302.4 285 306 284.8 309.4 283.6C312.8 282.4 316 280.1 317.8 276.8C319.7 273.5 320 269.4 319 265.7C318.5 263.8 317.5 262 316.2 260.6C314.8 259.2 312.9 258.3 311 258.2C309 258.1 307 258.7 305.3 259.9C303.6 261 302.2 262.5 301.1 264.3C299 267.9 298.8 272.3 299.7 276.2C300.7 280.1 302.7 283.8 305.3 286.7C310.6 292.6 318.3 295.6 325.5 295.6C329.1 295.5 332.6 294.7 335.8 293.3C338.9 291.8 341.6 289.8 344.2 287.8C349.3 283.8 353.9 279.6 359.2 277.6C364.4 275.4 370 275.9 373.7 278.4C375.6 279.6 377 281.3 377.7 283C378.5 284.8 378.7 286.5 378.6 288.1C378.5 291.2 377.2 293.5 376 294.7C375.7 295 375.4 295.2 375.2 295.4C375 295.6 374.7 295.7 374.5 295.8C374.3 295.9 374.2 296 374.2 296Z" fill="white"/>
<path d="M375.7 310.3H237V364.2H375.7V310.3Z" fill="white"/>
<path d="M375.9 364.4H236.8V310.1H375.9V364.4ZM237.2 364.1H375.5V310.6H237.2V364.1Z" fill="#212121"/>
<path d="M375.7 310.3H237V321.9H375.7V310.3Z" fill="#212121"/>
<path d="M227.8 262.9H143V347.7H227.8V262.9Z" fill="white"/>
<path d="M208.5 363.5C208.5 363.3 209.3 363.2 210.3 363.2C211.3 363.2 212.1 363.3 212.1 363.5C212.1 363.7 211.3 363.8 210.3 363.8C209.3 363.8 208.5 363.6 208.5 363.5Z" fill="#212121"/>
<path d="M201.5 363.5C201.5 363.3 202.3 363.2 203.3 363.2C204.3 363.2 205.1 363.3 205.1 363.5C205.1 363.7 204.3 363.8 203.3 363.8C202.3 363.8 201.5 363.6 201.5 363.5Z" fill="#212121"/>
<path d="M194.5 363.5C194.5 363.3 195.3 363.2 196.3 363.2C197.3 363.2 198.1 363.3 198.1 363.5C198.1 363.7 197.3 363.8 196.3 363.8C195.3 363.8 194.5 363.6 194.5 363.5Z" fill="#212121"/>
<path d="M187.5 363.5C187.5 363.3 188.3 363.2 189.3 363.2C190.3 363.2 191.1 363.3 191.1 363.5C191.1 363.7 190.3 363.8 189.3 363.8C188.3 363.8 187.5 363.6 187.5 363.5Z" fill="#212121"/>
<path d="M180.5 363.5C180.5 363.3 181.3 363.2 182.3 363.2C183.3 363.2 184.1 363.3 184.1 363.5C184.1 363.7 183.3 363.8 182.3 363.8C181.3 363.8 180.5 363.6 180.5 363.5Z" fill="#212121"/>
<path d="M173.5 363.5C173.5 363.3 174.3 363.2 175.3 363.2C176.3 363.2 177.1 363.3 177.1 363.5C177.1 363.7 176.3 363.8 175.3 363.8C174.3 363.8 173.5 363.6 173.5 363.5Z" fill="#212121"/>
<path d="M166.5 363.5C166.5 363.3 167.3 363.2 168.3 363.2C169.3 363.2 170.1 363.3 170.1 363.5C170.1 363.7 169.3 363.8 168.3 363.8C167.3 363.8 166.5 363.6 166.5 363.5Z" fill="#212121"/>
<path d="M159.5 363.5C159.5 363.3 160.3 363.2 161.3 363.2C162.3 363.2 163.1 363.3 163.1 363.5C163.1 363.7 162.3 363.8 161.3 363.8C160.3 363.8 159.5 363.6 159.5 363.5Z" fill="#212121"/>
<path d="M152.5 363.5C152.5 363.3 153.3 363.2 154.3 363.2C155.3 363.2 156.1 363.3 156.1 363.5C156.1 363.7 155.3 363.8 154.3 363.8C153.3 363.8 152.5 363.6 152.5 363.5Z" fill="#212121"/>
<path d="M145.5 363.5C145.5 363.3 146.3 363.2 147.3 363.2C148.3 363.2 149.1 363.3 149.1 363.5C149.1 363.7 148.3 363.8 147.3 363.8C146.3 363.8 145.5 363.6 145.5 363.5Z" fill="#212121"/>
<path d="M138.5 363.5C138.5 363.3 139.3 363.2 140.3 363.2C141.3 363.2 142.1 363.3 142.1 363.5C142.1 363.7 141.3 363.8 140.3 363.8C139.3 363.8 138.5 363.6 138.5 363.5Z" fill="#212121"/>
<path d="M131.5 363.5C131.5 363.3 132.3 363.2 133.3 363.2C134.3 363.2 135.1 363.3 135.1 363.5C135.1 363.7 134.3 363.8 133.3 363.8C132.2 363.8 131.5 363.6 131.5 363.5Z" fill="#212121"/>
<path d="M126.5 361.5C126.7 361.5 126.8 362.3 126.8 363.3C126.8 363.4 126.8 363.5 126.8 363.6L126.5 363.3C127.3 363.3 128 363.4 128 363.6C128 363.8 127.4 363.9 126.5 363.9H126.2V363.6C126.2 363.5 126.2 363.4 126.2 363.3C126.2 362.2 126.3 361.5 126.5 361.5Z" fill="#212121"/>
<path d="M126.5 354.4C126.7 354.4 126.8 355.2 126.8 356.2C126.8 357.2 126.7 358 126.5 358C126.3 358 126.2 357.2 126.2 356.2C126.2 355.2 126.3 354.4 126.5 354.4Z" fill="#212121"/>
<path d="M126.5 347.4C126.7 347.4 126.8 348.2 126.8 349.2C126.8 350.2 126.7 351 126.5 351C126.3 351 126.2 350.2 126.2 349.2C126.2 348.2 126.3 347.4 126.5 347.4Z" fill="#212121"/>
<path d="M126.5 340.4C126.7 340.4 126.8 341.2 126.8 342.2C126.8 343.2 126.7 344 126.5 344C126.3 344 126.2 343.2 126.2 342.2C126.2 341.2 126.3 340.4 126.5 340.4Z" fill="#212121"/>
<path d="M126.5 333.4C126.7 333.4 126.8 334.2 126.8 335.2C126.8 336.2 126.7 337 126.5 337C126.3 337 126.2 336.2 126.2 335.2C126.2 334.2 126.3 333.4 126.5 333.4Z" fill="#212121"/>
<path d="M126.5 326.4C126.7 326.4 126.8 327.2 126.8 328.2C126.8 329.2 126.7 330 126.5 330C126.3 330 126.2 329.2 126.2 328.2C126.2 327.2 126.3 326.4 126.5 326.4Z" fill="#212121"/>
<path d="M126.5 319.4C126.7 319.4 126.8 320.2 126.8 321.2C126.8 322.2 126.7 323 126.5 323C126.3 323 126.2 322.2 126.2 321.2C126.2 320.2 126.3 319.4 126.5 319.4Z" fill="#212121"/>
<path d="M126.5 312.4C126.7 312.4 126.8 313.2 126.8 314.2C126.8 315.2 126.7 316 126.5 316C126.3 316 126.2 315.2 126.2 314.2C126.2 313.2 126.3 312.4 126.5 312.4Z" fill="#212121"/>
<path d="M126.5 305.4C126.7 305.4 126.8 306.2 126.8 307.2C126.8 308.2 126.7 309 126.5 309C126.3 309 126.2 308.2 126.2 307.2C126.2 306.2 126.3 305.4 126.5 305.4Z" fill="#212121"/>
<path d="M126.5 298.4C126.7 298.4 126.8 299.2 126.8 300.2C126.8 301.2 126.7 302 126.5 302C126.3 302 126.2 301.2 126.2 300.2C126.2 299.2 126.3 298.4 126.5 298.4Z" fill="#212121"/>
<path d="M126.5 291.4C126.7 291.4 126.8 292.2 126.8 293.2C126.8 294.2 126.7 295 126.5 295C126.3 295 126.2 294.2 126.2 293.2C126.2 292.2 126.3 291.4 126.5 291.4Z" fill="#212121"/>
<path d="M126.5 284.4C126.7 284.4 126.8 285.2 126.8 286.2C126.8 287.2 126.7 288 126.5 288C126.3 288 126.2 287.2 126.2 286.2C126.2 285.2 126.3 284.4 126.5 284.4Z" fill="#212121"/>
<path d="M127 277.9C127 278 126.8 278.1 126.5 278.1L126.7 277.9C126.8 278.2 126.8 278.6 126.8 279.1C126.8 280.1 126.7 280.9 126.5 280.9C126.3 280.9 126.2 280.1 126.2 279.1C126.2 278.6 126.2 278.2 126.3 277.9V277.7H126.5C126.8 277.7 127 277.8 127 277.9Z" fill="#212121"/>
<path d="M134 277.9C134 278.1 133.2 278.2 132.2 278.2C131.2 278.2 130.4 278.1 130.4 277.9C130.4 277.7 131.2 277.6 132.2 277.6C133.2 277.6 134 277.7 134 277.9Z" fill="#212121"/>
<path d="M141 277.9C141 278.1 140.2 278.2 139.2 278.2C138.2 278.2 137.4 278.1 137.4 277.9C137.4 277.7 138.2 277.6 139.2 277.6C140.2 277.6 141 277.7 141 277.9Z" fill="#212121"/>
<path d="M148 277.9C148 278.1 147.2 278.2 146.2 278.2C145.2 278.2 144.4 278.1 144.4 277.9C144.4 277.7 145.2 277.6 146.2 277.6C147.2 277.6 148 277.7 148 277.9Z" fill="#212121"/>
<path d="M155 277.9C155 278.1 154.2 278.2 153.2 278.2C152.2 278.2 151.4 278.1 151.4 277.9C151.4 277.7 152.2 277.6 153.2 277.6C154.2 277.6 155 277.7 155 277.9Z" fill="#212121"/>
<path d="M162 277.9C162 278.1 161.2 278.2 160.2 278.2C159.2 278.2 158.4 278.1 158.4 277.9C158.4 277.7 159.2 277.6 160.2 277.6C161.2 277.6 162 277.7 162 277.9Z" fill="#212121"/>
<path d="M169 277.9C169 278.1 168.2 278.2 167.2 278.2C166.2 278.2 165.4 278.1 165.4 277.9C165.4 277.7 166.2 277.6 167.2 277.6C168.2 277.6 169 277.7 169 277.9Z" fill="#212121"/>
<path d="M176 277.9C176 278.1 175.2 278.2 174.2 278.2C173.2 278.2 172.4 278.1 172.4 277.9C172.4 277.7 173.2 277.6 174.2 277.6C175.2 277.6 176 277.7 176 277.9Z" fill="#212121"/>
<path d="M183 277.9C183 278.1 182.2 278.2 181.2 278.2C180.2 278.2 179.4 278.1 179.4 277.9C179.4 277.7 180.2 277.6 181.2 277.6C182.3 277.6 183 277.7 183 277.9Z" fill="#212121"/>
<path d="M190 277.9C190 278.1 189.2 278.2 188.2 278.2C187.2 278.2 186.4 278.1 186.4 277.9C186.4 277.7 187.2 277.6 188.2 277.6C189.3 277.6 190 277.7 190 277.9Z" fill="#212121"/>
<path d="M197.1 277.9C197.1 278.1 196.3 278.2 195.3 278.2C194.3 278.2 193.5 278.1 193.5 277.9C193.5 277.7 194.3 277.6 195.3 277.6C196.3 277.6 197.1 277.7 197.1 277.9Z" fill="#212121"/>
<path d="M204.1 277.9C204.1 278.1 203.3 278.2 202.3 278.2C201.3 278.2 200.5 278.1 200.5 277.9C200.5 277.7 201.3 277.6 202.3 277.6C203.3 277.6 204.1 277.7 204.1 277.9Z" fill="#212121"/>
<path d="M211.1 277.9C211.1 278.1 210.3 278.2 209.3 278.2C208.3 278.2 207.5 278.1 207.5 277.9C207.5 277.7 208.3 277.6 209.3 277.6C210.3 277.6 211.1 277.7 211.1 277.9Z" fill="#212121"/>
<path d="M212 284C211.8 284 211.7 283.2 211.7 282.2C211.7 281.2 211.8 280.4 212 280.4C212.2 280.4 212.3 281.2 212.3 282.2C212.3 283.2 212.2 284 212 284Z" fill="#212121"/>
<path d="M212 291C211.8 291 211.7 290.2 211.7 289.2C211.7 288.2 211.8 287.4 212 287.4C212.2 287.4 212.3 288.2 212.3 289.2C212.3 290.2 212.2 291 212 291Z" fill="#212121"/>
<path d="M212 298C211.8 298 211.7 297.2 211.7 296.2C211.7 295.2 211.8 294.4 212 294.4C212.2 294.4 212.3 295.2 212.3 296.2C212.3 297.2 212.2 298 212 298Z" fill="#212121"/>
<path d="M212 305C211.8 305 211.7 304.2 211.7 303.2C211.7 302.2 211.8 301.4 212 301.4C212.2 301.4 212.3 302.2 212.3 303.2C212.3 304.2 212.2 305 212 305Z" fill="#212121"/>
<path d="M212 312C211.8 312 211.7 311.2 211.7 310.2C211.7 309.2 211.8 308.4 212 308.4C212.2 308.4 212.3 309.2 212.3 310.2C212.3 311.2 212.2 312 212 312Z" fill="#212121"/>
<path d="M212 319C211.8 319 211.7 318.2 211.7 317.2C211.7 316.2 211.8 315.4 212 315.4C212.2 315.4 212.3 316.2 212.3 317.2C212.3 318.2 212.2 319 212 319Z" fill="#212121"/>
<path d="M212 326C211.8 326 211.7 325.2 211.7 324.2C211.7 323.2 211.8 322.4 212 322.4C212.2 322.4 212.3 323.2 212.3 324.2C212.3 325.2 212.2 326 212 326Z" fill="#212121"/>
<path d="M212 333C211.8 333 211.7 332.2 211.7 331.2C211.7 330.2 211.8 329.4 212 329.4C212.2 329.4 212.3 330.2 212.3 331.2C212.3 332.2 212.2 333 212 333Z" fill="#212121"/>
<path d="M212 340C211.8 340 211.7 339.2 211.7 338.2C211.7 337.2 211.8 336.4 212 336.4C212.2 336.4 212.3 337.2 212.3 338.2C212.3 339.2 212.2 340 212 340Z" fill="#212121"/>
<path d="M212 347C211.8 347 211.7 346.2 211.7 345.2C211.7 344.2 211.8 343.4 212 343.4C212.2 343.4 212.3 344.2 212.3 345.2C212.3 346.2 212.2 347 212 347Z" fill="#212121"/>
<path d="M212 354C211.8 354 211.7 353.2 211.7 352.2C211.7 351.2 211.8 350.4 212 350.4C212.2 350.4 212.3 351.2 212.3 352.2C212.3 353.2 212.2 354 212 354Z" fill="#212121"/>
<path d="M212 361C211.8 361 211.7 360.2 211.7 359.2C211.7 358.2 211.8 357.4 212 357.4C212.2 357.4 212.3 358.2 212.3 359.2C212.3 360.2 212.2 361 212 361Z" fill="#212121"/>
<path d="M215.2 359.4H208.9V365.7H215.2V359.4Z" fill="#212121"/>
<path d="M129.6 360.3H123.3V366.6H129.6V360.3Z" fill="#212121"/>
<path d="M215.2 274.1H208.9V280.4H215.2V274.1Z" fill="#212121"/>
<path d="M129.6 274.7H123.3V281H129.6V274.7Z" fill="#212121"/>
<path d="M162.7 341.1C168.941 341.1 174 336.041 174 329.8C174 323.559 168.941 318.5 162.7 318.5C156.459 318.5 151.4 323.559 151.4 329.8C151.4 336.041 156.459 341.1 162.7 341.1Z" fill="#212121"/>
<path d="M166.8 329.8C166.8 332.1 164.9 333.9 162.7 333.9C160.4 333.9 158.6 332 158.6 329.8C158.6 327.5 160.5 325.7 162.7 325.7C165 325.7 166.8 327.5 166.8 329.8Z" fill="url(#paint1_linear)"/>
<path d="M399.6 10.2998H102.3V55.2998H399.6V10.2998Z" fill="url(#paint2_linear)"/>
<path d="M339.757 569.473C353.022 564.911 359.276 548.131 353.726 531.993C348.177 515.856 332.924 506.472 319.66 511.034C306.395 515.596 300.14 532.376 305.69 548.514C311.24 564.651 326.492 574.034 339.757 569.473Z" fill="white"/>
<path d="M204 530.2V535.2C195 536.2 192.8 543.8 192.8 553.1V556.2C192.8 565.4 195 573 204 574.1V579H32.3C25.3 579 19.5 573.3 19.5 566.2V543C19.5 536 25.2 530.2 32.3 530.2H204Z" fill="url(#paint3_linear)"/>
<path d="M201.4 568.9C202.4 571.3 200.5 574 197.9 574L33.8 574.1V535.1L197.9 535.2C198.9 535.2 199.7 535.6 200.4 536.1C201.5 537.1 202.1 538.7 201.4 540.3C200 543.5 200.1 548.1 200.1 553.1V556.2C200.1 561.2 200 565.7 201.4 568.9Z" fill="white"/>
<path d="M42.2 579H27.8C23.2 579 19.6 575.3 19.6 570.8V538.6C19.6 534 23.3 530.4 27.8 530.4H42.2V579Z" fill="url(#paint4_linear)"/>
<path d="M178.2 558.2L169.9 549.9L161.5 558.2V535.2H178.2V558.2Z" fill="url(#paint5_linear)"/>
<path d="M222.4 578.8V583.8C213.4 584.8 211.2 592.4 211.2 601.7V604.8C211.2 614 213.4 621.6 222.4 622.7V627.6H50.7C43.7 627.6 37.9 621.9 37.9 614.8V591.6C37.9 584.6 43.6 578.8 50.7 578.8H222.4Z" fill="url(#paint6_linear)"/>
<path d="M219.7 617.5C220.7 619.9 218.8 622.6 216.2 622.6L52.1 622.7V583.7L216.2 583.8C217.2 583.8 218 584.2 218.7 584.7C219.8 585.7 220.4 587.3 219.7 588.9C218.3 592.1 218.4 596.7 218.4 601.7V604.8C218.4 609.7 218.4 614.2 219.7 617.5Z" fill="white"/>
<path d="M60.6 627.5H46.2C41.6 627.5 38 623.8 38 619.3V587.1C38 582.5 41.7 578.9 46.2 578.9H60.6V627.5Z" fill="url(#paint7_linear)"/>
<path d="M200.1 607.9L191.2 599.1L182.4 607.9V583.6H200.1V607.9Z" fill="url(#paint8_linear)"/>
<path d="M1054.1 647.8V651.2C1054.1 661.6 1045.3 670 1034.4 670H24.5001C15.3001 670 7.60009 664 5.40009 655.9C5.00009 654.4 4.80005 652.8 4.80005 651.2V647.8C4.80005 637.4 13.6001 629 24.5001 629H1034.3C1045.2 629 1054.1 637.4 1054.1 647.8Z" fill="#87DBF4"/>
<path d="M1054.1 647.8V651.2C1054.1 661.6 1045.3 670 1034.4 670H24.5001C15.3001 670 7.60009 664 5.40009 655.9C5.00009 652.9 4.80005 651.2 4.80005 651.2C571.1 670 1034.4 629 1034.4 629C1045.2 629 1054.1 637.4 1054.1 647.8Z" fill="url(#paint9_linear)"/>
<path d="M1034.8 127.5C1034.8 127.4 1034.8 127.3 1034.8 127.1C1034.8 127 1034.8 126.9 1034.8 126.7C1036.6 125.8 1038.5 124.9 1040.3 123.7C1042.3 122.4 1044.2 120.8 1046.1 119L1045.7 117.4C1045.3 115.6 1044.6 113.9 1044 112.2C1043.6 111.4 1043.2 110.5 1042.8 109.7C1042.4 108.8 1042 108.1 1041.5 107.3L1040.7 105.9C1038.2 105.9 1035.6 106.2 1033.3 106.7C1031.2 107.1 1029.2 107.8 1027.3 108.5L1026.8 108C1027.5 106.1 1028.1 104.1 1028.6 102C1029 99.6998 1029.4 97.0999 1029.4 94.5999L1028 93.7998C1027.2 93.2998 1026.4 92.8998 1025.6 92.4998C1024.8 92.0998 1024 91.6998 1023.1 91.2998C1021.4 90.6998 1019.7 89.9999 1017.9 89.5999L1016.3 89.1997C1014.5 90.9997 1013 92.9998 1011.6 94.9998C1010.4 96.7998 1009.4 98.6998 1008.6 100.5C1008.5 100.5 1008.4 100.5 1008.2 100.5C1008.1 100.5 1008 100.5 1007.8 100.5C1007 98.5998 1006 96.7998 1004.8 94.9998C1003.5 92.9998 1001.9 91.0997 1000.1 89.1997L998.5 89.5999C996.7 89.9999 995 90.6998 993.3 91.2998C992.5 91.6998 991.6 92.0998 990.8 92.4998C990 92.8998 989.2 93.2998 988.4 93.7998L987 94.5999C987 97.0999 987.4 99.6998 987.8 102C988.2 104.1 988.9 106.1 989.6 108C989.4 108.2 989.2 108.3 989.1 108.5C987.2 107.8 985.2 107.2 983.1 106.7C980.8 106.3 978.2 105.9 975.7 105.9L974.8 107.3C974.3 108.1 973.9 108.9 973.5 109.7C973.1 110.5 972.7 111.3 972.3 112.2C971.7 113.9 971 115.6 970.6 117.4L970.2 119C972 120.8 974 122.3 976 123.7C977.8 124.9 979.7 125.9 981.5 126.7C981.5 126.8 981.5 126.9 981.5 127.1C981.5 127.2 981.5 127.3 981.5 127.5C979.7 128.3 977.8 129.3 976 130.5C974 131.8 972.1 133.4 970.2 135.2L970.6 136.8C971 138.6 971.7 140.3 972.3 142C972.7 142.8 973.1 143.7 973.5 144.5C973.9 145.3 974.3 146.1 974.8 146.9L975.7 148.3C978.2 148.3 980.8 148 983.1 147.5C985.2 147.1 987.2 146.4 989.1 145.7C989.3 145.9 989.4 146.1 989.6 146.2C988.9 148.1 988.3 150.1 987.8 152.2C987.4 154.5 987 157.1 987 159.6L988.4 160.5C989.2 161 990 161.4 990.8 161.8C991.6 162.2 992.5 162.6 993.3 163C995 163.6 996.7 164.3 998.5 164.7L1000.1 165.1C1001.9 163.3 1003.4 161.3 1004.8 159.3C1006 157.5 1007 155.6 1007.8 153.8C1007.9 153.8 1008 153.8 1008.2 153.8C1008.3 153.8 1008.4 153.8 1008.6 153.8C1009.5 155.7 1010.4 157.5 1011.6 159.3C1012.9 161.3 1014.5 163.2 1016.3 165.1L1017.9 164.7C1019.7 164.3 1021.4 163.6 1023.1 163C1024 162.6 1024.8 162.2 1025.6 161.8C1026.4 161.4 1027.2 161 1028 160.5L1029.4 159.6C1029.4 157.1 1029.1 154.5 1028.6 152.2C1028.2 150.1 1027.5 148.1 1026.8 146.2C1027 146 1027.1 145.9 1027.3 145.7C1029.2 146.4 1031.2 147 1033.3 147.5C1035.6 147.9 1038.2 148.3 1040.7 148.3L1041.5 146.9C1042 146.1 1042.4 145.3 1042.8 144.5C1043.2 143.7 1043.6 142.8 1044 142C1044.6 140.3 1045.3 138.6 1045.7 136.8L1046.1 135.2C1044.3 133.4 1042.3 131.9 1040.3 130.5C1038.5 129.3 1036.6 128.3 1034.8 127.5ZM1008.2 139.8C1001.2 139.8 995.5 134.1 995.5 127.1C995.5 120.1 1001.2 114.4 1008.2 114.4C1015.2 114.4 1020.9 120.1 1020.9 127.1C1020.9 134.1 1015.2 139.8 1008.2 139.8Z" fill="url(#paint10_linear)"/>
<path d="M965.9 127.7H880V212.2H903.9" stroke="#FC7701" stroke-width="3.0836" stroke-miterlimit="10" stroke-dasharray="6.17 6.17"/>
<path d="M953.1 257.5H905.9V265.9H953.1V257.5Z" fill="white"/>
<path d="M978.5 273.1H905.9V281.5H978.5V273.1Z" fill="white"/>
<path d="M930.6 288.7H905.9V297.1H930.6V288.7Z" fill="white"/>
<path d="M965.4 288.7H940.7V297.1H965.4V288.7Z" fill="url(#paint11_linear)"/>
<path d="M1009.8 288.7H974.3V297.1H1009.8V288.7Z" fill="url(#paint12_linear)"/>
<path d="M1009.8 273.1H988.2V281.5H1009.8V273.1Z" fill="url(#paint13_linear)"/>
<path d="M1009.8 257.5H962.6V265.9H1009.8V257.5Z" fill="url(#paint14_linear)"/>
<path d="M1027.1 202.8H1025.5V296.8H1027.1V202.8Z" fill="white"/>
<path d="M955.1 206.3H906.6V215H955.1V206.3Z" fill="white"/>
<path d="M981.2 222.3H906.6V231H981.2V222.3Z" fill="white"/>
<path d="M932 238.4H906.6V247.1H932V238.4Z" fill="white"/>
<path d="M967.8 238.4H942.4V247.1H967.8V238.4Z" fill="url(#paint15_linear)"/>
<path d="M1013.4 238.4H976.9V247.1H1013.4V238.4Z" fill="url(#paint16_linear)"/>
<path d="M1013.5 222.3H991.3V231H1013.5V222.3Z" fill="url(#paint17_linear)"/>
<path d="M1013.4 206.3H964.9V215H1013.4V206.3Z" fill="url(#paint18_linear)"/>
<path d="M845.7 44.5999H706V319.1H845.7V44.5999Z" fill="url(#paint19_linear)"/>
<path d="M826.8 103H721.9V114.1H826.8V103Z" fill="white"/>
<path d="M791.3 127.7H721.9V138.8H791.3V127.7Z" fill="white"/>
<path d="M826.9 127.7H801.7V138.8H826.9V127.7Z" fill="url(#paint20_linear)"/>
<path d="M826.8 152.3H761.8V163.4H826.8V152.3Z" fill="url(#paint21_linear)"/>
<path d="M752.3 152.3H721.9V163.4H752.3V152.3Z" fill="white"/>
<path d="M777.3 177H721.9V188.1H777.3V177Z" fill="white"/>
<path d="M826.8 177H785.9V188.1H826.8V177Z" fill="url(#paint22_linear)"/>
<path d="M826.8 201.7H752.4V212.8H826.8V201.7Z" fill="url(#paint23_linear)"/>
<path d="M744.4 201.7H721.9V212.8H744.4V201.7Z" fill="white"/>
<path d="M766.9 226.3H721.9V237.4H766.9V226.3Z" fill="white"/>
<path d="M826.8 226.3H774.4V237.4H826.8V226.3Z" fill="url(#paint24_linear)"/>
<path d="M823.7 292V295.1L812.2 299.5V296.5L820.2 293.6L812.2 290.7V287.7L823.7 292Z" fill="white"/>
<path d="M791.1 287.7V290.7L783.1 293.6L791.1 296.5V299.5L779.6 295.1V292L791.1 287.7Z" fill="white"/>
<path d="M804.7 279.2H808.3L799.8 303.5H796.2L804.7 279.2Z" fill="white"/>
<path d="M771 77.7998V81.8999L756 87.5999V83.5999L766.5 79.7998L756 75.8999V71.9998L771 77.7998Z" fill="white"/>
<path d="M743.4 72.0999V75.9998L732.9 79.8999L743.4 83.6997V87.6997L728.4 81.9998V77.8999L743.4 72.0999Z" fill="white"/>
<path d="M59.7001 325.8C56.8001 323 53.5001 320.7 49.8001 319C49.7001 319 49.7 318.9 49.6 318.9C44.5 316.6 38.8 315.5 33.1 315.8C29.2 316 25.3001 316.9 21.5001 318.5C21.3001 318.6 21.0001 318.7 20.8001 318.8C14.0001 321.8 8.60005 326.8 5.10005 332.7C-0.599954 342.2 -1.79995 354.2 3.10005 365.1C11 382.8 31.8001 390.7 49.4001 382.8C65.6001 375.6 73.6001 357.5 68.8001 341C68.4001 339.5 67.8001 338 67.2001 336.5C65.3001 332.4 62.8001 328.8 59.7001 325.8ZM45.0001 373C32.7001 378.5 18.3001 372.9 12.9001 360.7C9.60009 353.4 10.3001 345.4 13.9001 338.9L14.0001 338.8C16.5001 334.4 20.3001 330.8 25.2001 328.6C26.1001 328.2 27.1001 327.8 28.0001 327.6C28.1001 327.6 28.2001 327.5 28.3001 327.5C33.2001 326.1 38.2001 326.3 42.8001 327.8C42.8001 327.8 42.8001 327.8 42.9001 327.8C46.8001 329.1 50.4001 331.4 53.3001 334.6C55.0001 336.4 56.4001 338.6 57.4001 340.9C58.1001 342.4 58.6001 343.9 58.9001 345.4C61.4001 356.5 55.8001 368.2 45.0001 373Z" fill="url(#paint25_linear)"/>
<path d="M49.8001 319C53.4001 320.7 56.8001 323 59.7001 325.8C62.8001 328.8 65.3001 332.4 67.1001 336.5C67.8001 338 68.3001 339.5 68.7001 341L58.7001 345.4C58.4001 343.9 57.9001 342.4 57.2001 340.9C56.1001 338.5 54.7001 336.4 53.1001 334.6C50.3001 331.4 46.7001 329.1 42.7001 327.8H42.6001L49.4001 319" fill="url(#paint26_linear)"/>
<path d="M42.9 327.8C38.3 326.3 33.2 326.1 28.3 327.5C28.2 327.5 28.1 327.6 28 327.6L21.5 318.5C25.3 316.9 29.2 316 33.1 315.8C38.8 315.5 44.5 316.6 49.6 318.9" fill="url(#paint27_linear)"/>
<path d="M37.9001 385.9V389" stroke="#FC7701" stroke-width="3.0836" stroke-miterlimit="10"/>
<path d="M37.9001 394.9V439.1" stroke="#FC7701" stroke-width="3.0836" stroke-miterlimit="10" stroke-dasharray="5.9 5.9"/>
<path d="M37.9001 442.1V445.2H41.0001" stroke="#FC7701" stroke-width="3.0836" stroke-miterlimit="10"/>
<path d="M47.3 445.2H133" stroke="#FC7701" stroke-width="3.0836" stroke-miterlimit="10" stroke-dasharray="6.35 6.35"/>
<path d="M136.2 445.2H139.3V442.1" stroke="#FC7701" stroke-width="3.0836" stroke-miterlimit="10"/>
<path d="M139.3 436.1V391" stroke="#FC7701" stroke-width="3.0836" stroke-miterlimit="10" stroke-dasharray="6.01 6.01"/>
<path d="M139.3 388V385" stroke="#FC7701" stroke-width="3.0836" stroke-miterlimit="10"/>
<path d="M259.2 335.2H245.5V348.9H259.2V335.2Z" fill="white" stroke="#272727" stroke-width="1.5418" stroke-miterlimit="10"/>
<path d="M259.2 348.9C259.2 348.9 259.1 348.5 259.1 347.8C259.1 347 259 346.1 259 345C258.9 342.6 258.9 339.2 258.8 335.2L259.1 335.5C255.1 335.5 250.4 335.5 245.4 335.6C245.3 335.7 246.2 334.8 245.8 335.2V335.3V335.4V335.6V336.1V337C245.8 337.6 245.8 338.2 245.8 338.8C245.8 340 245.8 341.2 245.8 342.3C245.8 344.6 245.8 346.8 245.8 348.8L245.5 348.5C249.5 348.5 252.9 348.6 255.3 348.7C256.4 348.7 257.3 348.8 258.1 348.8C258.8 348.8 259.2 348.9 259.2 348.9C259.3 349 257.9 349 255.5 349.1C253.1 349.2 249.6 349.2 245.5 349.3H245.2V348.9C245.2 346.9 245.2 344.7 245.2 342.4C245.2 341.2 245.2 340.1 245.2 338.9C245.2 338.3 245.2 337.7 245.2 337.1V336.2V335.7V335.5V335.4V335.3C244.8 335.7 245.7 334.8 245.6 334.9C250.6 334.9 255.3 334.9 259.3 335H259.7V335.3C259.7 339.5 259.6 343 259.5 345.3C259.3 347.6 259.3 348.9 259.2 348.9Z" fill="#212121"/>
<path d="M244.8 350C244.6 349.8 247.7 346.4 251.7 342.3C255.7 338.2 259 335 259.2 335.2C259.4 335.4 256.3 338.8 252.3 342.9C248.3 347 244.9 350.2 244.8 350Z" fill="url(#paint28_linear)"/>
<path d="M364.8 334.3H351.1V348H364.8V334.3Z" fill="#212121"/>
<path d="M343.8 334.3H330.1V348H343.8V334.3Z" fill="#02B6D4"/>
<path d="M302 334.3H288.3V348H302V334.3Z" fill="#F48271"/>
<path d="M280.9 334.3H267.2V348H280.9V334.3Z" fill="#E53B6E"/>
<path d="M323 334.3H309.3V348H323V334.3Z" fill="#1E4596"/>
<path d="M386.4 35.2998C386.4 39.7998 382.7 43.4998 378.2 43.4998C373.7 43.4998 370 39.7998 370 35.2998C370 30.7998 373.7 27.0999 378.2 27.0999C382.7 27.0999 386.4 30.6998 386.4 35.2998Z" fill="url(#paint29_linear)"/>
<path d="M366.2 35.0999C366.2 39.5999 362.5 43.2998 358 43.2998C353.5 43.2998 349.8 39.5999 349.8 35.0999C349.8 30.5999 353.5 26.8999 358 26.8999C362.5 26.8999 366.2 30.5999 366.2 35.0999Z" fill="white"/>
<path d="M948.7 387.4C948.7 387.3 948.7 387.2 948.7 387.1C948.7 387 948.7 386.9 948.7 386.8C950.3 386.1 951.9 385.2 953.4 384.2C955.1 383 956.8 381.7 958.4 380.2L958.1 378.9C957.8 377.4 957.2 375.9 956.6 374.4C956.3 373.7 955.9 373 955.6 372.3C955.3 371.6 954.9 370.9 954.5 370.2L953.8 369C951.6 369 949.5 369.3 947.5 369.7C945.7 370.1 944 370.6 942.3 371.2L941.9 370.8C942.5 369.2 943.1 367.4 943.4 365.6C943.8 363.6 944.1 361.4 944.1 359.3L942.9 358.6C942.2 358.2 941.6 357.8 940.8 357.5C940.1 357.2 939.4 356.8 938.7 356.5C937.2 356 935.8 355.4 934.3 355L933 354.7C931.5 356.3 930.1 358 929 359.7C928 361.3 927.1 362.8 926.4 364.4C926.3 364.4 926.2 364.4 926.1 364.4C926 364.4 925.9 364.4 925.8 364.4C925.1 362.8 924.2 361.2 923.2 359.7C922.1 358 920.7 356.3 919.2 354.7L917.9 355C916.4 355.3 914.9 355.9 913.4 356.5C912.7 356.8 912 357.2 911.3 357.5C910.6 357.8 909.9 358.2 909.2 358.6L908 359.3C908 361.5 908.3 363.6 908.7 365.6C909.1 367.4 909.6 369.1 910.2 370.8C910 371 909.9 371.1 909.8 371.2C908.2 370.6 906.4 370 904.6 369.7C902.6 369.3 900.4 369.1 898.3 369L897.6 370.2C897.2 370.9 896.8 371.5 896.5 372.3C896.2 373 895.8 373.7 895.5 374.4C895 375.9 894.4 377.3 894 378.9L893.7 380.2C895.3 381.7 897 383.1 898.7 384.2C900.3 385.2 901.8 386.1 903.4 386.8C903.4 386.9 903.4 387 903.4 387.1C903.4 387.2 903.4 387.3 903.4 387.4C901.8 388.1 900.2 389 898.7 390C897 391.1 895.3 392.5 893.7 394L894 395.3C894.3 396.8 894.9 398.3 895.5 399.8C895.8 400.5 896.2 401.2 896.5 401.9C896.8 402.6 897.2 403.3 897.6 403.9L898.3 405.1C900.4 405.1 902.6 404.8 904.6 404.4C906.4 404 908.1 403.5 909.8 402.9C909.9 403.1 910.1 403.2 910.2 403.3C909.6 404.9 909 406.7 908.7 408.5C908.3 410.5 908.1 412.7 908 414.8L909.2 415.5C909.9 415.9 910.5 416.3 911.3 416.6C912 416.9 912.7 417.3 913.4 417.6C914.9 418.1 916.3 418.7 917.9 419.1L919.2 419.4C920.7 417.8 922.1 416.1 923.2 414.4C924.2 412.8 925.1 411.3 925.8 409.7C925.9 409.7 926 409.7 926.1 409.7C926.2 409.7 926.3 409.7 926.4 409.7C927.1 411.3 928 412.9 929 414.4C930.2 416.1 931.5 417.8 933 419.4L934.3 419.1C935.8 418.8 937.3 418.2 938.7 417.6C939.4 417.3 940.1 416.9 940.8 416.6C941.5 416.3 942.2 415.9 942.9 415.5L944.1 414.8C944.1 412.7 943.8 410.5 943.4 408.5C943 406.7 942.5 405 941.9 403.3C942.1 403.2 942.2 403 942.3 402.9C943.9 403.5 945.7 404.1 947.5 404.4C949.5 404.8 951.7 405 953.8 405.1L954.5 403.9C954.9 403.2 955.3 402.6 955.6 401.9C955.9 401.2 956.3 400.5 956.6 399.8C957.1 398.3 957.7 396.9 958.1 395.3L958.4 394C956.8 392.5 955.1 391.1 953.4 390C951.9 389 950.3 388.1 948.7 387.4ZM925.9 398C919.9 398 915 393.1 915 387.1C915 381.1 919.9 376.2 925.9 376.2C931.9 376.2 936.8 381.1 936.8 387.1C936.8 393.1 932 398 925.9 398Z" fill="#9E9E9E"/>
<path d="M848.7 347H834.3V411.7H848.7V347Z" fill="url(#paint30_linear)"/>
<path d="M828.5 375.5H813.1V411.7H828.5V375.5Z" fill="url(#paint31_linear)"/>
<path d="M807.2 387.1H791.8V411.7H807.2V387.1Z" fill="#FC7701"/>
<path d="M789.1 401.4H786" stroke="#FC7701" stroke-width="3.0836" stroke-miterlimit="10"/>
<path d="M778.2 401.4H766.4" stroke="#FC7701" stroke-width="3.0836" stroke-miterlimit="10" stroke-dasharray="7.82 7.82"/>
<path d="M762.5 401.4H759.5V404.5" stroke="#FC7701" stroke-width="3.0836" stroke-miterlimit="10"/>
<path d="M759.5 410.2V453.5" stroke="#FC7701" stroke-width="3.0836" stroke-miterlimit="10" stroke-dasharray="5.77 5.77"/>
<path d="M759.5 456.4V459.5H762.5" stroke="#FC7701" stroke-width="3.0836" stroke-miterlimit="10"/>
<path d="M767.8 459.5H786.1" stroke="#FC7701" stroke-width="3.0836" stroke-miterlimit="10" stroke-dasharray="5.24 5.24"/>
<path d="M788.7 459.5H791.8" stroke="#FC7701" stroke-width="3.0836" stroke-miterlimit="10"/>
<path d="M837.4 456.6H796.7V463.9H837.4V456.6Z" fill="white"/>
<path d="M824.9 470.1H796.7V477.4H824.9V470.1Z" fill="white"/>
<path d="M832.4 483.5H796.7V490.8H832.4V483.5Z" fill="white"/>
<path d="M848 483.5H839.7V490.8H848V483.5Z" fill="url(#paint32_linear)"/>
<path d="M886.3 483.5H855.7V490.8H886.3V483.5Z" fill="url(#paint33_linear)"/>
<path d="M886.3 470.1H833.9V477.4H886.3V470.1Z" fill="url(#paint34_linear)"/>
<path d="M886.3 456.6H845.6V463.9H886.3V456.6Z" fill="url(#paint35_linear)"/>
<path d="M1038 365.3H1011.1V378.1H1038V365.3Z" fill="url(#paint36_linear)"/>
<path d="M1038 387.7H1011.1V400.5H1038V387.7Z" fill="url(#paint37_linear)"/>
<path d="M1038 410.1H1011.1V422.9H1038V410.1Z" fill="url(#paint38_linear)"/>
<path d="M1038 432.5H1011.1V445.3H1038V432.5Z" fill="url(#paint39_linear)"/>
<path d="M1038 454.9H1011.1V467.7H1038V454.9Z" fill="white"/>
<path d="M1038 477.3H1011.1V490.1H1038V477.3Z" fill="white"/>
<path d="M1038 499.7H1011.1V512.5H1038V499.7Z" fill="white"/>
<path d="M53.8001 90.1997H22.1001V105.3H53.8001V90.1997Z" fill="white"/>
<path d="M53.8001 116.6H22.1001V131.7H53.8001V116.6Z" fill="white"/>
<path d="M53.8001 143H22.1001V158.1H53.8001V143Z" fill="url(#paint40_linear)"/>
<path d="M53.8001 169.4H22.1001V184.5H53.8001V169.4Z" fill="url(#paint41_linear)"/>
<path d="M53.8001 195.8H22.1001V210.9H53.8001V195.8Z" fill="url(#paint42_linear)"/>
<path d="M53.8001 222.2H22.1001V237.3H53.8001V222.2Z" fill="url(#paint43_linear)"/>
<path d="M53.8001 248.6H22.1001V263.7H53.8001V248.6Z" fill="url(#paint44_linear)"/>
<path d="M665.9 241.1C663.6 291.5 614.1 330.1 577 332.4C528 335.5 493 291.3 488.1 241.1C483.9 197.6 499.3 198.3 510.8 180.2C524.7 158.2 550.7 146.1 577 146.1C626.1 146 669 173.3 665.9 241.1Z" fill="url(#paint45_linear)"/>
<path d="M654.4 277.4C666.7 258.7 682.3 257.9 688.9 280C695.4 302.1 673.9 320.2 656.3 313.5C638.7 306.8 654.4 277.4 654.4 277.4Z" fill="#FFCAC1"/>
<path d="M611.4 327.7H542.5V414H611.4V327.7Z" fill="#FFCAC1"/>
<path d="M668.9 277.8C677.1 276.3 681.4 300.8 663.3 301.6L667 293L663.5 285.9L668.9 277.8Z" fill="#DE7F84"/>
<path d="M660.6 305C671.1 293.8 663.5 286 663.5 286C663.5 286 673.5 265.5 677.5 281.2" stroke="#DE7F84" stroke-width="1.5418" stroke-miterlimit="10"/>
<path d="M499 277.4C486.7 258.7 471.1 257.9 464.5 280C458 302.1 479.5 320.2 497.1 313.5C514.7 306.8 499 277.4 499 277.4Z" fill="#FFCAC1"/>
<path d="M484.5 277.8C476.3 276.3 472 300.8 490.1 301.6L486.4 293L489.9 285.9L484.5 277.8Z" fill="#DE7F84"/>
<path d="M492.8 305C482.3 293.8 489.9 286 489.9 286C489.9 286 479.9 265.5 475.9 281.2" stroke="#DE7F84" stroke-width="1.5418" stroke-miterlimit="10"/>
<path d="M611.4 329.6V361.7C586.6 395.3 542.5 384.3 542.5 384.3L543.3 329.6H611.4Z" fill="#DE7F84"/>
<path d="M577 366.3C535.9 366.3 502.5 333 502.5 291.8V237.4C502.5 209.6 525 187.1 552.8 187.1H601.1C628.9 187.1 651.4 209.6 651.4 237.4V291.8C651.4 333 618.1 366.3 577 366.3Z" fill="#FFCAC1"/>
<path d="M588.4 301.6C588.4 307.9 583.3 313.1 576.9 313.1C570.6 313.1 565.4 308 565.4 301.6" stroke="#DE7F84" stroke-width="1.5418" stroke-miterlimit="10"/>
<path d="M510.4 190.5C510.4 190.5 497.4 168.9 513.7 149.8C513.7 149.8 525.4 171.5 510.4 190.5Z" fill="url(#paint46_linear)"/>
<path d="M517 185.3C517 185.3 498.8 202.8 476.6 191.2C476.6 191.2 495.2 174.9 517 185.3Z" fill="url(#paint47_linear)"/>
<path d="M547.4 274.9C547.4 281.1 544.8 286 541.5 286C538.2 286 535.6 281 535.6 274.9C535.6 268.7 538.2 263.8 541.5 263.8C544.8 263.8 547.4 268.7 547.4 274.9Z" fill="#212121"/>
<path d="M567.403 281.853C571.733 265.918 562.324 249.49 546.389 245.16C530.454 240.83 514.026 250.238 509.696 266.174C505.366 282.109 514.774 298.537 530.709 302.867C546.645 307.197 563.073 297.789 567.403 281.853Z" stroke="white" stroke-width="6.1673" stroke-miterlimit="10"/>
<path d="M618.3 274.9C618.3 281.1 615.7 286 612.4 286C609.1 286 606.5 281 606.5 274.9C606.5 268.7 609.1 263.8 612.4 263.8C615.7 263.8 618.3 268.7 618.3 274.9Z" fill="#212121"/>
<path d="M644.207 282.186C648.614 266.272 639.286 249.798 623.372 245.391C607.458 240.983 590.985 250.311 586.577 266.225C582.17 282.139 591.498 298.612 607.412 303.02C623.326 307.427 639.799 298.099 644.207 282.186Z" stroke="white" stroke-width="6.1673" stroke-miterlimit="10"/>
<path d="M511.7 208.4C511.7 208.4 559 183.5 590.4 201.5C621.8 219.6 625.4 256.9 656.4 247.2C656.4 247.2 680 236.8 654 200.7C628.1 164.5 610.3 157.5 576.6 165.3C542.9 173.1 521 179.4 511.7 208.4Z" fill="url(#paint48_linear)"/>
<path d="M509.9 208C509.9 208 525.5 187.3 547.4 181.8C569.3 176.3 593.4 203.2 593.4 203.2C593.4 203.2 537.4 195.3 509.9 208Z" fill="url(#paint49_linear)"/>
<path d="M502.6 234.1C502.6 234.1 507.9 272.5 502.6 296C502.6 296 494.9 236.4 502.6 234.1Z" fill="url(#paint50_linear)"/>
<path d="M650.9 234.1C650.9 234.1 645.6 272.5 650.9 296C650.9 296 658.6 236.4 650.9 234.1Z" fill="url(#paint51_linear)"/>
<path d="M554.9 231.1C546.8 227.2 532.3 222.9 518.9 232.5C516.7 234.1 517.5 237.6 520.2 238.1C524.5 238.8 530.7 239.6 537.6 239.6C543 239.6 549.4 238.2 554.2 237C557.1 236.2 557.5 232.3 554.9 231.1Z" fill="url(#paint52_linear)"/>
<path d="M633.4 231.1C625.3 227.2 610.8 222.9 597.4 232.5C595.2 234.1 596 237.6 598.7 238.1C603 238.8 609.2 239.6 616.1 239.6C621.5 239.6 627.9 238.2 632.7 237C635.6 236.2 636 232.3 633.4 231.1Z" fill="url(#paint53_linear)"/>
<path d="M569.1 279.1H584.9" stroke="white" stroke-width="6.1673" stroke-miterlimit="10"/>
<path d="M509.9 176C527.3 103 701.3 111 668.9 253.2C659.2 295.8 588.3 156.4 527 190.6C522.4 193.2 516.7 192.5 512.9 188.9C509.5 185.6 508.8 180.7 509.9 176Z" fill="url(#paint54_linear)"/>
<path d="M468 69.1997H439.2V77.2998H468V69.1997Z" fill="url(#paint55_linear)"/>
<path d="M527.3 54.8999H439.2V62.9998H527.3V54.8999Z" fill="url(#paint56_linear)"/>
<path d="M490.1 78.7998V81.8999" stroke="#FC7701" stroke-width="3.0836" stroke-miterlimit="10"/>
<path d="M490.1 87.0999V105.3" stroke="#FC7701" stroke-width="3.0836" stroke-miterlimit="10" stroke-dasharray="5.21 5.21"/>
<path d="M490.1 108V111H493.2" stroke="#FC7701" stroke-width="3.0836" stroke-miterlimit="10"/>
<path d="M499.1 111H590.1" stroke="#FC7701" stroke-width="3.0836" stroke-miterlimit="10" stroke-dasharray="5.87 5.87"/>
<path d="M593 111H596.1V108" stroke="#FC7701" stroke-width="3.0836" stroke-miterlimit="10"/>
<path d="M596.1 101.7V92.2998" stroke="#FC7701" stroke-width="3.0836" stroke-miterlimit="10" stroke-dasharray="6.26 6.26"/>
<path d="M596.1 89.1997V86.0999" stroke="#FC7701" stroke-width="3.0836" stroke-miterlimit="10"/>
<path d="M619.5 53.1996C619.2 52.1996 618.8 51.0998 618.4 50.0998C617.1 47.1998 615.4 44.6996 613.2 42.6996C611.2 40.6996 608.9 39.0997 606.3 37.9997L606.2 37.8998C602.6 36.2998 598.7 35.4996 594.8 35.6996C592.1 35.7996 589.4 36.4998 586.7 37.5998C586.5 37.6998 586.4 37.6997 586.2 37.7997C581.5 39.8997 577.8 43.2997 575.3 47.4997C572.2 52.5997 571.1 58.7997 572.3 64.7997C572.6 66.4997 573.2 68.2997 573.9 69.9997C579.4 82.2997 593.8 87.7997 606 82.2997C613.5 78.9997 618.4 72.2997 619.9 64.7997C620.7 60.9997 620.6 57.0996 619.5 53.1996ZM603 75.4997C594.5 79.2997 584.5 75.4997 580.7 66.9997C580.4 66.2997 580.1 65.5998 579.9 64.8998C578.6 60.4998 579.2 55.7998 581.4 51.8998C581.4 51.8998 581.4 51.7997 581.5 51.7997C583.2 48.7997 585.9 46.2996 589.3 44.6996C589.9 44.3996 590.6 44.1997 591.2 43.9997C591.3 43.9997 591.3 43.8998 591.4 43.8998C594.8 42.8998 598.3 42.9998 601.5 44.0998C604.2 44.9998 606.7 46.5997 608.7 48.7997C609.9 50.0997 610.8 51.4996 611.6 53.1996C612.1 54.1996 612.4 55.2997 612.6 56.2997C613.3 59.1997 613.1 62.0997 612.3 64.7997C611 69.3997 607.7 73.3997 603 75.4997Z" fill="url(#paint57_linear)"/>
<path d="M620 64.7998H612.3C613.1 62.0998 613.2 59.1998 612.6 56.2998C612.4 55.2998 612 54.1997 611.6 53.1997C610.9 51.4997 609.9 50.0998 608.7 48.7998C606.7 46.5998 604.2 44.9998 601.5 44.0998C598.3 42.9998 594.8 42.8999 591.4 43.8999C591.3 43.8999 591.3 43.8998 591.2 43.9998C590.5 44.1998 589.9 44.3997 589.3 44.6997C585.9 46.1997 583.2 48.6998 581.5 51.7998C581.5 51.7998 581.5 51.8999 581.4 51.8999C579.2 55.7999 578.6 60.4999 579.9 64.8999H572.2C571 58.8999 572.2 52.6999 575.2 47.5998C577.7 43.4998 581.4 39.9999 586.1 37.8999C586.3 37.7999 586.4 37.7997 586.6 37.6997C589.2 36.5997 592 35.9998 594.7 35.7998C598.7 35.5998 602.6 36.2998 606.1 37.9998C606.1 37.9998 606.2 37.9998 606.2 38.0998C608.7 39.2998 611 40.7998 613.1 42.7998C615.2 44.8998 617 47.3997 618.3 50.1997C618.7 51.1997 619.1 52.2998 619.4 53.2998C620.6 57.0998 620.7 60.9998 620 64.7998Z" fill="url(#paint58_linear)"/>
<path d="M527.3 69.1997H473.8V77.2998H527.3V69.1997Z" fill="url(#paint59_linear)"/>
<path d="M816 628.2L311.9 628.7C311.9 628.7 321.3 609 334.8 583C335.8 581.1 336.8 579.1 337.9 577.1C356.4 541.8 381.3 497.3 400.7 473.1C423.1 445.3 475.9 425.5 511.8 414.6C532.7 408.3 547.8 405 547.8 405H605.7C605.7 405 619.3 407.9 638.5 413.6C674.3 424.2 727.9 445.9 752.8 473C758.3 479 763.4 486.2 768.2 494.1C798.8 545 816 628.2 816 628.2Z" fill="url(#paint60_linear)"/>
<path d="M638.5 413.6C576.1 485.7 511.7 414.6 511.7 414.6C532.6 408 547.8 404.5 547.8 404.5H605.7C605.7 404.6 619.3 407.6 638.5 413.6Z" fill="#FFCAC1"/>
<path d="M605.5 628.2C605.5 628.2 605.4 628.2 605.3 628.2C604.9 628.2 604.5 628.3 604 628.3H266.4C261.9 628.3 257.9 626.2 255.3 622.9C253.4 620.5 252.2 617.4 252.2 614V613.8L199.6 465.2C195.6 453.9 204 441.9 216 441.9H435.2C442.6 441.9 449.2 446.6 451.7 453.5L508.4 613.6C508.5 613.8 508.5 613.9 508.5 613.9H604.4C613.2 614.1 614.2 627.3 605.5 628.2Z" fill="url(#paint61_linear)"/>
<path d="M604.4 614.1H508.5C508.5 614.1 508.5 614 508.4 613.8L451.7 453.7C449.2 446.7 442.7 442.1 435.3 442.1H428C428 442.1 444.4 443.2 448.5 457.8C452.6 472.4 508.6 627.9 508.6 627.9L512.7 628.2H604.2C604.6 628.2 605.1 628.2 605.5 628.1C614.2 627.4 613.3 614.1 604.4 614.1Z" fill="url(#paint62_linear)"/>
<path d="M722.8 628.3C722.8 621.1 722.6 610.3 721.4 597.2C719.9 581.3 717.7 569.7 717.3 567.3C714.5 551.6 714.5 519.9 725.3 451.2C733.9 456.6 746 465.3 757.5 478.6C771.7 495 778.6 510.9 785.4 528.7C794.4 552.3 805.8 585.7 816.1 628.2C784.9 628.2 753.9 628.2 722.8 628.3Z" fill="url(#paint63_linear)"/>
<path d="M575.4 459.4C547.2 459.5 524.2 446.6 509.4 436C522.6 455.1 548.2 463.2 575.5 463.5C620.6 464.1 647.2 435.3 645.5 434.1C644 432.9 615.6 459.3 575.4 459.4Z" fill="#0573B3"/>
<path d="M173.3 213.9C183.8 213.4 194.5 215.8 205 217L199.4 215.5C198.5 205.5 202.3 195.2 209.5 188.3C216.7 181.3 227.1 177.8 237 179C244.5 179.9 251.8 183.2 259.2 182C272.8 179.7 279.8 163.5 292.7 158.7C309.2 152.5 328.4 167 344.7 160.2C351.3 157.5 356.1 151.6 362.2 148C367.4 144.9 375 143.9 379.4 147.6V109.7C375.1 118.1 364.4 122.2 354.7 121.4C344.5 120.6 335.2 115.4 326.3 110.3C317.4 105.2 308.3 99.8999 298.1 98.5999C283.6 96.6999 269.6 103.2 255.6 107.2C242.9 110.8 229.3 112.3 216.6 108.7C216.2 108.6 215.8 108.4 215.3 108.3C213.7 109.8 212 111.1 210 112.1C199.2 117.3 184.9 110.3 175 117.1C169.1 121.2 167.1 128.8 162.7 134.6C154.7 145.1 135.5 148.2 124.4 140.8V228V239.3H130.2C139.7 224.7 156.1 214.8 173.3 213.9ZM339.5 136.1C340.2 135.6 340.9 135.2 341.7 135C341.8 135 341.9 134.9 342 134.9L341.9 135C344.5 134.4 347.4 135.4 348.9 137.7C350.8 140.7 349.5 145.3 346.3 146.8C343.1 148.4 338.7 146.6 337.5 143.3C336.5 140.6 337.8 137.4 340.1 135.8L339.5 136.1Z" fill="white"/>
<path d="M372.8 156C362.9 156.5 358.6 163.1 346.2 171.1C336.5 177.3 331 180.9 322.9 181.5C315.2 182.1 312.9 179.3 299.6 177.9C299.6 177.9 290.5 176.9 280.7 177.5C255.5 179 248.9 206.3 221.3 215C200.9 221.4 195 209.5 169.7 214.5C148.7 218.6 133.4 230.7 124.1 239.7C128.3 239.7 132.5 239.7 136.7 239.7C139.1 237.3 149 227.9 164.8 227.1C183.3 226.1 195.4 237.8 197.4 239.8C212.6 239.8 227.7 239.8 242.9 239.8C244.1 238.6 245.9 237 248.4 235.5C250.2 234.4 258.1 229.7 267.9 231.9C275.1 233.5 279.6 238 281.3 239.9C298 239.9 314.6 239.9 331.3 239.9C332 237.8 333.3 235.1 335.9 233.4C339.7 230.9 343.2 233 346.6 230.7C350.1 228.3 350.8 223.6 352.2 219.6C356.2 208.6 369.1 201.5 380.8 203.7V157.2C378.9 156.4 376.1 155.8 372.8 156ZM311.8 230.5C304.3 234.1 294.1 230.1 291.2 222.4C289 216.4 291.8 209.2 297 205.6L295.8 206.1C297.1 205.1 298.6 204.4 300.1 203.9C300.6 203.7 301.1 203.6 301.6 203.4L301.3 203.5C307.3 202.2 314.2 204.5 317.6 209.6C322.2 216.5 319.3 226.9 311.8 230.5ZM363.9 178.6C361.9 179.6 359.2 178.5 358.4 176.4C357.8 174.8 358.6 172.8 360.1 171.9L359.7 172.1C360.1 171.8 360.6 171.6 361.1 171.5C361.2 171.5 361.2 171.4 361.3 171.4H361.2C362.8 171.1 364.7 171.7 365.6 173C366.7 174.9 365.9 177.6 363.9 178.6Z" fill="#8888FF"/>
<path d="M252.4 90.9998C244.8 91.5998 236.6 90.2998 229.8 93.7998C223.7 96.9998 220 103.4 215.1 108.1C215.5 108.2 215.9 108.4 216.4 108.5C229 112.2 242.7 110.6 255.4 107C269.4 103 283.5 96.5999 297.9 98.3999C308.1 99.6999 317.2 105 326.1 110.1C335 115.2 344.3 120.3 354.5 121.2C364.1 122 374.8 117.9 379.2 109.5V106.2V78.1997L269.5 78.0999C269 85.7999 260 90.4998 252.4 90.9998Z" fill="url(#paint64_linear)"/>
<path d="M379.3 147.5C374.9 143.9 367.3 144.8 362.1 147.9C356 151.6 351.2 157.4 344.6 160.1C328.3 166.9 309.1 152.4 292.6 158.6C279.7 163.4 272.7 179.6 259.1 181.9C251.7 183.1 244.3 179.8 236.9 178.9C227 177.7 216.6 181.3 209.4 188.2C202.2 195.2 198.4 205.5 199.3 215.4L204.9 216.9C213.1 217.8 221.1 218 228.9 215.4C251.3 207.8 263.5 179.3 286.9 176.6C299.9 175.1 312.9 182.3 325.8 180.1C336.3 178.3 344.6 170.7 353.3 164.6C361.8 158.5 370.3 152.8 380 156.3V148C379.8 147.9 379.6 147.7 379.3 147.5Z" fill="url(#paint65_linear)"/>
<path d="M228.8 78.2998H124L124.2 140.3C124.3 140.4 124.4 140.4 124.5 140.5C135.5 147.9 154.8 144.8 162.8 134.3C167.1 128.6 169.2 120.9 175.1 116.8C184.9 110 199.3 117 210.1 111.8C212.1 110.8 213.8 109.5 215.4 108C220.4 103.3 224.1 96.8997 230.1 93.6997C236.9 90.1997 245 91.4999 252.7 90.8999C260.3 90.2999 269.1 85.6997 269.6 78.1997" fill="#8888FF"/>
<path d="M309.1 153.4C308.6 151.6 305.2 138.4 299 114.2L299.1 114.3C271.8 121.3 231.6 131.5 186.9 142.9L187 142.7C190.5 156.4 193.8 169.6 197 181.9L196.8 181.8C261.3 165.5 305.8 154.3 309.1 153.4C305.8 154.2 261.3 165.6 196.9 182.1H196.8V182C193.7 169.7 190.3 156.4 186.8 142.8V142.7H186.9C231.6 131.4 271.8 121.2 299.2 114.2H299.3V114.3C305.3 138.4 308.7 151.6 309.1 153.4Z" fill="#212121"/>
<path d="M310.047 151.255L307.14 151.993L307.878 154.901L310.786 154.162L310.047 151.255Z" fill="#1E4596"/>
<path d="M198.017 180.238L195.109 180.976L195.848 183.884L198.755 183.145L198.017 180.238Z" fill="#1E4596"/>
<path d="M300.069 111.952L297.161 112.69L297.9 115.598L300.808 114.859L300.069 111.952Z" fill="#1E4596"/>
<path d="M243.453 126.258L240.545 126.996L241.284 129.904L244.191 129.165L243.453 126.258Z" fill="#1E4596"/>
<path d="M253.456 165.658L250.548 166.397L251.287 169.304L254.194 168.566L253.456 165.658Z" fill="#1E4596"/>
<path d="M192.766 159.951L189.858 160.69L190.597 163.597L193.505 162.859L192.766 159.951Z" fill="#1E4596"/>
<path d="M304.878 131.437L301.97 132.176L302.709 135.083L305.616 134.345L304.878 131.437Z" fill="#1E4596"/>
<path d="M188 140.948L185.092 141.687L185.831 144.595L188.738 143.856L188 140.948Z" fill="#1E4596"/>
<path d="M214.5 146.1L206.4 148.2L205.4 144.4L226.1 139.1L227.1 142.9L219 145L224.2 165.5L219.7 166.6L214.5 146.1Z" fill="#212121"/>
<path d="M248.8 150.9L234.2 154.6C235.4 157.2 238.1 158.4 241.4 157.5C243.5 157 245 155.9 245.9 154.2L248.9 156.3C247.7 158.7 245.4 160.4 242.2 161.2C236 162.8 230.9 159.8 229.5 154.3C228.1 148.8 231.2 143.8 236.7 142.4C242.1 141 247.1 143.8 248.5 149.6C248.6 149.9 248.7 150.5 248.8 150.9ZM233.4 151.7L244 149C243 146.4 240.4 145.1 237.6 145.8C234.7 146.5 233.1 148.9 233.4 151.7Z" fill="#212121"/>
<path d="M266.4 154.8L260 149.6L256.8 157.3L252 158.5L256.8 147.2L247.5 139.8L252.3 138.6L258.4 143.5L261.4 136.2L266.1 135L261.4 145.9L271.1 153.6L266.4 154.8Z" fill="#212121"/>
<path d="M285.4 148.9C284.6 150 283.1 150.8 281.5 151.2C277.4 152.2 274.5 150.7 273.5 146.6L271.2 137.6L268.1 138.4L267.2 134.9L270.3 134.1L269.2 129.9L273.6 128.8L274.7 133L279.7 131.7L280.6 135.2L275.6 136.5L277.8 145.3C278.3 147.1 279.4 147.9 281.1 147.4C282 147.2 282.8 146.7 283.3 146L285.4 148.9Z" fill="#212121"/>
<path d="M306.9 144.6C306.9 144.7 281.8 151.1 250.8 159C219.8 166.9 194.7 173.2 194.6 173.1C194.6 173 219.7 166.6 250.7 158.7C281.7 150.8 306.8 144.5 306.9 144.6Z" fill="#212121"/>
<path d="M352.1 219.2C350.7 223.2 350.1 227.9 346.6 230.3C343.7 232.4 339.7 232 336.2 233C333 234 330.3 236.5 328.8 239.5L379.9 239.6V203.3C368.5 201.1 356 208.2 352.1 219.2Z" fill="url(#paint66_linear)"/>
<path d="M156.6 227.5C148.7 229.4 141.5 233.4 136 239.1L196.6 239.2C194.5 237.4 192.4 235.6 190.2 234.1C180.7 227.1 168.1 224.7 156.6 227.5Z" fill="url(#paint67_linear)"/>
<path d="M271.6 231.9C263.1 230.1 254.3 232.8 246.5 236.8C244.6 237.8 242.7 238.8 240.8 239.9H284.7C281.8 235.9 276.9 233 271.6 231.9Z" fill="url(#paint68_linear)"/>
<path d="M337.4 143.5C338.6 146.9 343 148.6 346.2 147C349.4 145.4 350.7 140.9 348.8 137.9C347.4 135.6 344.4 134.6 341.8 135.2L341.9 135.1C341.8 135.1 341.7 135.2 341.6 135.2C340.8 135.4 340 135.7 339.4 136.3L340 136C337.7 137.7 336.4 140.8 337.4 143.5Z" fill="url(#paint69_linear)"/>
<path d="M361.4 179.2C363.002 179.2 364.3 177.901 364.3 176.3C364.3 174.698 363.002 173.4 361.4 173.4C359.798 173.4 358.5 174.698 358.5 176.3C358.5 177.901 359.798 179.2 361.4 179.2Z" fill="url(#paint70_linear)"/>
<path d="M941.6 493C939.6 491.1 939.4 488.1 939.3 486C939.2 484.4 939.3 482.5 940.5 478.3C941.7 474.2 942.9 471.5 944 468.9C945.1 466.2 946.8 462.2 948.8 457.2C948.5 459.4 948.2 462.8 948.5 466.9C948.7 469.6 948.9 470.2 950.3 479.3C950.8 482.9 951.4 486.7 950.2 490.7C949.9 491.7 949.6 492.5 948.9 493.2C947 495 943.7 494.9 941.6 493Z" fill="url(#paint71_linear)"/>
<path d="M940.2 491.6C941.4 491.1 942.4 493.8 945.1 493.9C947.7 493.9 948.8 491.3 949.8 491.9C951.6 492.8 949.8 501.1 949.1 512.1C948.8 517.2 948.8 521.3 948.8 524C948.5 523.5 946.7 520.3 943.1 519.7C939.3 519.1 936.6 521.9 936.3 522.3C937 519.7 937.9 515.7 938.4 510.7C939.4 500.6 938.1 492.5 940.2 491.6Z" fill="url(#paint72_linear)"/>
<path d="M935.3 621.7C931.2 621.4 929.9 594 930 579C930.2 541.5 939.1 502.9 944.2 503.3C948.7 503.6 950.1 535 949 557.1C947.5 588.6 939.9 622 935.3 621.7Z" fill="#87DBF4"/>
<path d="M914.8 484.9C914 482.7 913 479.7 912.3 476C911.9 474 911.3 470.7 911.4 466.8C911.5 464 911.9 458.4 914.9 452C917.8 451.9 920.6 451.7 923.5 451.6C925.3 454.8 927.7 460.5 927.6 467.3C927.5 471.2 926.7 474.9 926.3 476.7C925.5 480 924.6 482.6 923.8 484.5C920.8 484.5 917.8 484.7 914.8 484.9Z" fill="url(#paint73_linear)"/>
<path d="M922.8 483C927.9 486.7 928.9 501.1 924.4 519C921.5 519.1 918.6 519.3 915.8 519.4C910.5 502 911 487.4 916 483.3" fill="#87DBF4"/>
<path d="M928.4 625.3L918.6 625.8L915.2 517.3L925 516.9L928.4 625.3Z" fill="url(#paint74_linear)"/>
<path d="M899.5 558.9C900.9 559.4 901.5 554.6 904.3 554.4C906.8 554.2 908.3 558 909.4 557.3C911 556.3 909.4 547.6 907 531.4C905.4 520.8 904.2 512 900.8 500.6C898.8 494.1 897.6 491.6 896.6 491.7C895.8 491.7 895 493.3 894.3 500.9C893.3 512.3 894.1 521.7 895.2 533.3C896.9 551 897.8 558.3 899.5 558.9Z" fill="url(#paint75_linear)"/>
<path d="M892.9 549C892.9 549.9 891.5 549.7 891.5 550.6C891.5 551.4 892.8 553 893.7 552.6C894 552.5 894.8 552 895.1 548.3C895.7 542.5 894.4 536.9 893.7 533.1C891.6 522.4 890.5 517 891 511C891.4 505.7 892.8 501.2 893.8 498.3C895.1 494.3 896.6 491.3 896.7 491.5C896.9 491.7 895.1 496.2 893.6 503.9C893 506.8 892.7 508.6 892.5 511.1C892.3 514.7 892.5 518.1 893.2 523.1C895 535.9 896.8 538.9 896.6 546.6C896.5 551.3 895.7 553 894.9 553.8C894 554.6 892.5 554.9 891.3 553.4C891.2 553.3 890.2 551.9 890.1 549.9C890.1 549.6 890 547.4 890.8 547C891.6 546.4 892.9 548.2 892.9 549Z" fill="url(#paint76_linear)"/>
<path d="M919.7 629.6C915.2 629.5 911.1 628.1 907.6 625.9L899.5 565.6L898.8 560.2L898.4 556.9L898.2 555.6C897.9 553.1 899.6 550.9 902.1 550.6L904.6 550.3C907.1 550 909.3 551.7 909.6 554.1L909.9 556.6L910.4 560.2L911.1 565.6L918.4 619.9L919.2 625.8L919.7 629.6Z" fill="url(#paint77_linear)"/>
<path d="M962.6 492.9C961 499.2 959.4 505.6 957.8 511.9C958.5 512.6 960 514 962.2 514.4C964.4 514.8 966.2 513.9 966.9 513.5C966.4 506.7 965.9 500 965.4 493.2C964.4 493.1 963.5 493 962.6 492.9Z" fill="url(#paint78_linear)"/>
<path d="M965.6 492.5C965.6 493.8 964.4 494.7 963.4 494.5C962.5 494.3 961.8 493.4 961.9 492.4C962.9 488 963.8 483.8 964.8 479.4C965.1 483.7 965.3 488.1 965.6 492.5Z" fill="#9E9E9E"/>
<path d="M963.1 514.5C961.8 529.7 960.5 545 959.2 560.2C959 562 958.9 563.8 958.7 565.6C957 585.9 955.2 606.2 953.5 626.5C952.8 626.9 952.1 627.2 951.4 627.5C953.1 606.9 954.9 586.2 956.6 565.6C956.8 563.8 956.9 562 957.1 560.2C958.4 544.8 959.7 529.5 961 514.1C961.3 514.2 961.6 514.3 962 514.4C962.4 514.5 962.7 514.5 963.1 514.5C963 514.5 963.1 514.5 963.1 514.5Z" fill="url(#paint79_linear)"/>
<path d="M966.6 513.7C965.3 529.2 963.9 544.7 962.6 560.2C962.4 562 962.3 563.8 962.1 565.6C960.4 585.1 958.8 604.5 957.1 624C956.5 624.5 955.9 625 955.2 625.4C956.8 605.5 958.5 585.5 960.1 565.6C960.3 563.8 960.4 562 960.5 560.2C961.7 545 963 529.7 964.2 514.5H964.3H964.4C964.7 514.5 965 514.4 965.3 514.3C965.9 514.1 966.3 513.9 966.6 513.7Z" fill="url(#paint80_linear)"/>
<path d="M948.2 627.3L949.9 627.6C953.2 589.6 956.5 551.6 959.8 513.6C959.5 513.4 959.2 513.2 958.9 513C958.5 512.7 958.2 512.4 957.9 512.1C954.7 550.5 951.4 588.9 948.2 627.3Z" fill="url(#paint81_linear)"/>
<path d="M965 565.6V607.4C965 613.9 962 619.8 957.2 623.9C957.2 623.9 957.1 623.9 957.1 624C956.5 624.5 955.9 625 955.2 625.4C954.6 625.8 954 626.2 953.4 626.5C952.7 626.9 952 627.2 951.3 627.5C951.1 627.6 951 627.7 950.8 627.7C947.9 628.9 944.7 629.6 941.4 629.6H920.5C920.2 629.6 919.9 629.6 919.6 629.6C915.1 629.5 911 628.1 907.5 625.9C904.6 624.1 902.2 621.7 900.4 619C898.2 615.6 897 611.7 897 607.5V565.7H965V565.6Z" fill="url(#paint82_linear)"/>
<path d="M969.7 560.2H892.5C891.6 560.2 890.9 560.9 890.9 561.8V564C890.9 564.9 891.6 565.6 892.5 565.6H969.7C970.6 565.6 971.3 564.9 971.3 564V561.8C971.3 560.9 970.6 560.2 969.7 560.2Z" fill="url(#paint83_linear)"/>
<path d="M335.6 569.4C351.782 569.4 364.9 555.61 364.9 538.6C364.9 521.589 351.782 507.8 335.6 507.8C319.418 507.8 306.3 521.589 306.3 538.6C306.3 555.61 319.418 569.4 335.6 569.4Z" fill="white"/>
<path d="M322.583 512.467H327.353L343.831 555.316H339.061L322.583 512.467ZM348.168 549.299C348.168 548.432 348.421 547.709 348.927 547.131C349.451 546.553 350.228 546.264 351.257 546.264C352.287 546.264 353.064 546.553 353.588 547.131C354.13 547.709 354.401 548.432 354.401 549.299C354.401 550.13 354.13 550.826 353.588 551.386C353.064 551.946 352.287 552.226 351.257 552.226C350.228 552.226 349.451 551.946 348.927 551.386C348.421 550.826 348.168 550.13 348.168 549.299Z" fill="black"/>
<path d="M303 233.3C312.389 233.3 320 225.689 320 216.3C320 206.911 312.389 199.3 303 199.3C293.611 199.3 286 206.911 286 216.3C286 225.689 293.611 233.3 303 233.3Z" fill="url(#paint84_linear)"/>
<path d="M154.2 114.6C160.607 114.6 165.8 109.406 165.8 103C165.8 96.5933 160.607 91.3999 154.2 91.3999C147.794 91.3999 142.6 96.5933 142.6 103C142.6 109.406 147.794 114.6 154.2 114.6Z" fill="url(#paint85_linear)"/>
<path d="M451.541 366.201L439.203 370.436L451.541 374.671V381.593L430.774 374.06V366.812L451.541 359.279V366.201ZM465.594 350.402H473.738L460.301 388.76H452.157L465.594 350.402ZM494.727 366.812V374.06L473.959 381.593V374.671L486.298 370.436L473.959 366.201V359.279L494.727 366.812Z" fill="#9E9E9E"/>
<path d="M716.447 8.9496C718.284 8.9496 719.884 9.25264 721.248 9.85874C722.612 10.4648 723.663 11.3361 724.402 12.4725C725.14 13.609 725.51 14.9348 725.51 16.45C725.51 17.9653 725.14 19.2911 724.402 20.4276C723.663 21.564 722.612 22.4353 721.248 23.0414C719.884 23.6475 718.284 23.9505 716.447 23.9505H713.577V28.8372H706.872V8.9496H716.447ZM716.021 18.7797C716.93 18.7797 717.612 18.5809 718.066 18.1831C718.521 17.7664 718.748 17.1887 718.748 16.45C718.748 15.7114 718.521 15.1432 718.066 14.7454C717.612 14.3287 716.93 14.1204 716.021 14.1204H713.577V18.7797H716.021ZM739.528 21.6208V28.8372H732.823V21.5356L725.322 8.9496H732.397L736.459 15.825L740.55 8.9496H747.028L739.528 21.6208ZM751.643 14.1488H745.819V8.9496H764.172V14.1488H758.348V28.8372H751.643V14.1488ZM785.517 8.9496V28.8372H778.812V21.5072H772.618V28.8372H765.914V8.9496H772.618V15.9955H778.812V8.9496H785.517ZM799.174 29.2917C797.034 29.2917 795.112 28.8466 793.407 27.9564C791.702 27.0662 790.367 25.8351 789.401 24.263C788.435 22.672 787.952 20.8821 787.952 18.8934C787.952 16.9046 788.435 15.1242 789.401 13.5521C790.367 11.9611 791.702 10.7205 793.407 9.83033C795.112 8.94013 797.034 8.49502 799.174 8.49502C801.315 8.49502 803.237 8.94013 804.942 9.83033C806.646 10.7205 807.982 11.9611 808.948 13.5521C809.914 15.1242 810.397 16.9046 810.397 18.8934C810.397 20.8821 809.914 22.672 808.948 24.263C807.982 25.8351 806.646 27.0662 804.942 27.9564C803.237 28.8466 801.315 29.2917 799.174 29.2917ZM799.174 23.8653C800.008 23.8653 800.756 23.6664 801.419 23.2686C802.101 22.8519 802.64 22.2743 803.038 21.5356C803.436 20.778 803.635 19.8972 803.635 18.8934C803.635 17.8895 803.436 17.0183 803.038 16.2796C802.64 15.522 802.101 14.9443 801.419 14.5465C800.756 14.1298 800.008 13.9215 799.174 13.9215C798.341 13.9215 797.583 14.1298 796.902 14.5465C796.239 14.9443 795.708 15.522 795.311 16.2796C794.913 17.0183 794.714 17.8895 794.714 18.8934C794.714 19.8972 794.913 20.778 795.311 21.5356C795.708 22.2743 796.239 22.8519 796.902 23.2686C797.583 23.6664 798.341 23.8653 799.174 23.8653ZM832.434 8.9496V28.8372H826.922L819.365 19.8025V28.8372H812.83V8.9496H818.342L825.899 17.9842V8.9496H832.434Z" fill="white"/>
<path d="M123.55 22.0299H132.225C134.235 22.0299 136.017 22.4056 137.573 23.157C139.128 23.9084 140.333 24.9743 141.19 26.3547C142.046 27.7352 142.474 29.3515 142.474 31.2038C142.474 33.0561 142.046 34.6724 141.19 36.0529C140.333 37.4333 139.128 38.4992 137.573 39.2506C136.017 40.002 134.235 40.3777 132.225 40.3777H123.55V22.0299ZM132.016 36.2363C133.588 36.2363 134.847 35.7907 135.79 34.8996C136.751 34.0084 137.232 32.7765 137.232 31.2038C137.232 29.6311 136.751 28.3992 135.79 27.508C134.847 26.6169 133.588 26.1713 132.016 26.1713H128.739V36.2363H132.016ZM159.935 36.3674V40.3777H145.204V22.0299H159.594V26.0402H150.342V29.1331H158.494V33.0124H150.342V36.3674H159.935ZM169.263 40.7446C167.778 40.7446 166.336 40.5612 164.938 40.1942C163.54 39.8273 162.404 39.338 161.531 38.7264L163.234 34.8996C164.056 35.4413 165.008 35.8781 166.091 36.2101C167.175 36.5421 168.241 36.7081 169.289 36.7081C171.281 36.7081 172.277 36.2101 172.277 35.2141C172.277 34.6899 171.989 34.3054 171.412 34.0608C170.853 33.7987 169.944 33.5279 168.686 33.2483C167.306 32.9512 166.153 32.6367 165.226 32.3047C164.3 31.9552 163.505 31.4048 162.841 30.6534C162.177 29.902 161.845 28.8885 161.845 27.6129C161.845 26.4945 162.151 25.4898 162.763 24.5986C163.374 23.69 164.283 22.9735 165.489 22.4493C166.712 21.9251 168.206 21.663 169.971 21.663C171.176 21.663 172.365 21.8028 173.535 22.0823C174.706 22.3444 175.737 22.7376 176.628 23.2618L175.029 27.1149C173.282 26.1713 171.587 25.6995 169.944 25.6995C168.914 25.6995 168.162 25.8567 167.69 26.1713C167.219 26.4683 166.983 26.8615 166.983 27.3508C166.983 27.84 167.262 28.207 167.821 28.4516C168.381 28.6963 169.28 28.9496 170.521 29.2118C171.919 29.5088 173.072 29.8321 173.981 30.1816C174.907 30.5136 175.702 31.0553 176.366 31.8067C177.048 32.5406 177.388 33.5453 177.388 34.8209C177.388 35.9218 177.083 36.9178 176.471 37.809C175.859 38.7002 174.942 39.4166 173.719 39.9583C172.496 40.4825 171.01 40.7446 169.263 40.7446ZM179.786 22.0299H184.976V40.3777H179.786V22.0299ZM200.961 30.8106H205.548V38.4119C204.499 39.1632 203.294 39.7399 201.931 40.1418C200.568 40.5437 199.205 40.7446 197.842 40.7446C195.92 40.7446 194.19 40.3427 192.652 39.5389C191.114 38.7176 189.908 37.5818 189.035 36.1315C188.161 34.6811 187.724 33.0386 187.724 31.2038C187.724 29.369 188.161 27.7265 189.035 26.2761C189.908 24.8258 191.123 23.6987 192.678 22.8949C194.233 22.0736 195.989 21.663 197.947 21.663C199.659 21.663 201.197 21.9513 202.56 22.5279C203.923 23.1046 205.058 23.9346 205.967 25.018L202.665 28.006C201.424 26.6431 199.939 25.9616 198.209 25.9616C196.636 25.9616 195.369 26.4421 194.408 27.4032C193.447 28.3468 192.966 29.6137 192.966 31.2038C192.966 32.2173 193.185 33.1259 193.622 33.9298C194.059 34.7161 194.67 35.3364 195.456 35.7907C196.243 36.2276 197.143 36.446 198.156 36.446C199.152 36.446 200.087 36.2451 200.961 35.8432V30.8106ZM226.295 22.0299V40.3777H222.022L213.923 30.6009V40.3777H208.838V22.0299H213.11L221.21 31.8067V22.0299H226.295ZM229.955 22.0299H235.145V40.3777H229.955V22.0299ZM256.294 22.0299V40.3777H252.022L243.922 30.6009V40.3777H238.838V22.0299H243.11L251.209 31.8067V22.0299H256.294ZM272.248 30.8106H276.835V38.4119C275.786 39.1632 274.581 39.7399 273.218 40.1418C271.855 40.5437 270.492 40.7446 269.129 40.7446C267.207 40.7446 265.477 40.3427 263.939 39.5389C262.401 38.7176 261.196 37.5818 260.322 36.1315C259.448 34.6811 259.011 33.0386 259.011 31.2038C259.011 29.369 259.448 27.7265 260.322 26.2761C261.196 24.8258 262.41 23.6987 263.965 22.8949C265.52 22.0736 267.276 21.663 269.234 21.663C270.946 21.663 272.484 21.9513 273.847 22.5279C275.21 23.1046 276.346 23.9346 277.254 25.018L273.952 28.006C272.711 26.6431 271.226 25.9616 269.496 25.9616C267.923 25.9616 266.656 26.4421 265.695 27.4032C264.734 28.3468 264.253 29.6137 264.253 31.2038C264.253 32.2173 264.472 33.1259 264.909 33.9298C265.346 34.7161 265.957 35.3364 266.744 35.7907C267.53 36.2276 268.43 36.446 269.443 36.446C270.439 36.446 271.374 36.2451 272.248 35.8432V30.8106Z" fill="white"/>
<path d="M452.49 43.666C450.388 43.666 448.494 43.2304 446.808 42.3591C445.122 41.4689 443.796 40.2378 442.83 38.6657C441.883 37.0747 441.41 35.2753 441.41 33.2676C441.41 31.2599 441.883 29.4701 442.83 27.898C443.796 26.307 445.122 25.0759 446.808 24.2046C448.494 23.3144 450.388 22.8693 452.49 22.8693C454.422 22.8693 456.146 23.2102 457.661 23.8921C459.176 24.5739 460.426 25.5588 461.411 26.8468L457.178 30.6254C455.947 29.0723 454.498 28.2958 452.831 28.2958C451.429 28.2958 450.302 28.7503 449.45 29.6595C448.598 30.5497 448.172 31.7524 448.172 33.2676C448.172 34.7829 448.598 35.9951 449.45 36.9042C450.302 37.7944 451.429 38.2395 452.831 38.2395C454.498 38.2395 455.947 37.463 457.178 35.9098L461.411 39.6885C460.426 40.9764 459.176 41.9614 457.661 42.6432C456.146 43.3251 454.422 43.666 452.49 43.666ZM477.502 35.6826H472.814V40.2283H467.7V35.6826H463.013V30.8527H467.7V26.307H472.814V30.8527H477.502V35.6826ZM495.398 35.6826H490.71V40.2283H485.596V35.6826H480.908V30.8527H485.596V26.307H490.71V30.8527H495.398V35.6826Z" fill="white"/>
<path d="M28.5869 41.9863C28.5869 43.588 28.329 44.8096 27.8132 45.6511C27.2974 46.4927 26.4559 47.0899 25.2886 47.4428C26.4559 47.7957 27.2974 48.3929 27.8132 49.2345C28.329 50.076 28.5869 51.2976 28.5869 52.8993V56.7677C28.5869 57.6635 28.8312 58.3558 29.3199 58.8444C29.8085 59.3331 30.5279 59.5774 31.478 59.5774H31.8852V66.4998H28.8719C25.7501 66.4998 23.3883 65.7533 21.7866 64.2602C20.185 62.7671 19.3842 60.6225 19.3842 57.8264V52.6957C19.3842 52.0985 19.2213 51.6505 18.8955 51.3519C18.5969 51.0533 18.1761 50.904 17.6332 50.904H16.2894V43.9816H17.6332C18.1761 43.9816 18.5969 43.8323 18.8955 43.5337C19.2213 43.235 19.3842 42.7871 19.3842 42.1899V37.0592C19.3842 34.263 20.185 32.1185 21.7866 30.6254C23.3883 29.1323 25.7501 28.3858 28.8719 28.3858H31.8852V35.3082H31.478C30.5279 35.3082 29.8085 35.5525 29.3199 36.0412C28.8312 36.5298 28.5869 37.222 28.5869 38.1179V41.9863ZM60.5229 43.9816V50.904H59.1792C58.6362 50.904 58.2019 51.0533 57.8761 51.3519C57.5775 51.6505 57.4282 52.0985 57.4282 52.6957V57.8264C57.4282 60.6225 56.6274 62.7671 55.0257 64.2602C53.424 65.7533 51.0623 66.4998 47.9404 66.4998H44.9271V59.5774H45.3343C46.2845 59.5774 47.0038 59.3331 47.4925 58.8444C47.9811 58.3558 48.2254 57.6635 48.2254 56.7677V52.8993C48.2254 51.2976 48.4833 50.076 48.9991 49.2345C49.5149 48.3929 50.3565 47.7957 51.5238 47.4428C50.3565 47.0899 49.5149 46.4927 48.9991 45.6511C48.4833 44.8096 48.2254 43.588 48.2254 41.9863V38.1179C48.2254 37.222 47.9811 36.5298 47.4925 36.0412C47.0038 35.5525 46.2845 35.3082 45.3343 35.3082H44.9271V28.3858H47.9404C51.0623 28.3858 53.424 29.1323 55.0257 30.6254C56.6274 32.1185 57.4282 34.263 57.4282 37.0592V42.1899C57.4282 42.7871 57.5775 43.235 57.8761 43.5337C58.2019 43.8323 58.6362 43.9816 59.1792 43.9816H60.5229Z" fill="#9E9E9E"/>
<path d="M603.6 332.4C602.8 333.8 601.9 335.2 600.7 336.7C596.7 341.5 590 346.1 578.4 346.3V346.4H577.6V346.3C566.7 346.1 560.1 342 556 337.5C554.4 335.8 553.3 334 552.4 332.4C550.5 328.7 550 325.8 550 325.8L606.2 325.9C606 325.8 605.6 328.7 603.6 332.4Z" fill="#F48271"/>
<path d="M603.6 332.4C602.8 333.8 601.9 335.2 600.7 336.7C587.8 331 572.3 329.8 555.9 337.5C554.3 335.8 553.2 334 552.3 332.4C550.4 328.7 549.9 325.8 549.9 325.8L606.1 325.9C606 325.8 605.6 328.7 603.6 332.4Z" fill="#212121"/>
<defs>
<linearGradient id="paint0_linear" x1="250.945" y1="71.157" x2="250.945" y2="368.271" gradientUnits="userSpaceOnUse">
<stop offset="0.2925" stop-color="#0573B3"/>
<stop offset="0.8244" stop-color="#02B6D4"/>
</linearGradient>
<linearGradient id="paint1_linear" x1="158.579" y1="329.832" x2="166.844" y2="329.832" gradientUnits="userSpaceOnUse">
<stop stop-color="#0573B3"/>
<stop offset="0.9912" stop-color="#02B6D4"/>
</linearGradient>
<linearGradient id="paint2_linear" x1="102.276" y1="32.7759" x2="399.614" y2="32.7759" gradientUnits="userSpaceOnUse">
<stop stop-color="#123C62"/>
<stop offset="0.1171" stop-color="#143E6C"/>
<stop offset="0.4368" stop-color="#1A4283"/>
<stop offset="0.7381" stop-color="#1D4491"/>
<stop offset="1" stop-color="#1E4596"/>
</linearGradient>
<linearGradient id="paint3_linear" x1="19.5432" y1="554.593" x2="204.044" y2="554.593" gradientUnits="userSpaceOnUse">
<stop stop-color="#0573B3"/>
<stop offset="0.9912" stop-color="#02B6D4"/>
</linearGradient>
<linearGradient id="paint4_linear" x1="19.5442" y1="554.603" x2="42.2141" y2="554.603" gradientUnits="userSpaceOnUse">
<stop stop-color="#123C62"/>
<stop offset="0.1171" stop-color="#143E6C"/>
<stop offset="0.4368" stop-color="#1A4283"/>
<stop offset="0.7381" stop-color="#1D4491"/>
<stop offset="1" stop-color="#1E4596"/>
</linearGradient>
<linearGradient id="paint5_linear" x1="161.488" y1="546.719" x2="178.243" y2="546.719" gradientUnits="userSpaceOnUse">
<stop stop-color="#E43B6E"/>
<stop offset="1" stop-color="#FF8370"/>
</linearGradient>
<linearGradient id="paint6_linear" x1="37.914" y1="603.139" x2="222.415" y2="603.139" gradientUnits="userSpaceOnUse">
<stop stop-color="#E43B6E"/>
<stop offset="1" stop-color="#FF8370"/>
</linearGradient>
<linearGradient id="paint7_linear" x1="37.9149" y1="603.149" x2="60.5849" y2="603.149" gradientUnits="userSpaceOnUse">
<stop stop-color="#E43B6E"/>
<stop offset="1" stop-color="#FF8370"/>
</linearGradient>
<linearGradient id="paint8_linear" x1="182.371" y1="595.785" x2="200.074" y2="595.785" gradientUnits="userSpaceOnUse">
<stop stop-color="#0573B3"/>
<stop offset="0.9912" stop-color="#02B6D4"/>
</linearGradient>
<linearGradient id="paint9_linear" x1="4.74905" y1="649.493" x2="1054.08" y2="649.493" gradientUnits="userSpaceOnUse">
<stop stop-color="#0573B3"/>
<stop offset="0.9912" stop-color="#02B6D4"/>
</linearGradient>
<linearGradient id="paint10_linear" x1="970.254" y1="127.085" x2="1046.09" y2="127.085" gradientUnits="userSpaceOnUse">
<stop stop-color="#0573B3"/>
<stop offset="0.9912" stop-color="#02B6D4"/>
</linearGradient>
<linearGradient id="paint11_linear" x1="940.699" y1="292.911" x2="965.416" y2="292.911" gradientUnits="userSpaceOnUse">
<stop offset="0.00879799" stop-color="#FC7701"/>
<stop offset="1" stop-color="#F8C206"/>
</linearGradient>
<linearGradient id="paint12_linear" x1="974.261" y1="292.911" x2="1009.75" y2="292.911" gradientUnits="userSpaceOnUse">
<stop offset="0.00879799" stop-color="#FC7701"/>
<stop offset="1" stop-color="#F8C206"/>
</linearGradient>
<linearGradient id="paint13_linear" x1="988.201" y1="277.303" x2="1009.75" y2="277.303" gradientUnits="userSpaceOnUse">
<stop offset="0.00879799" stop-color="#FC7701"/>
<stop offset="1" stop-color="#F8C206"/>
</linearGradient>
<linearGradient id="paint14_linear" x1="962.552" y1="261.695" x2="1009.76" y2="261.695" gradientUnits="userSpaceOnUse">
<stop offset="0.00879799" stop-color="#FC7701"/>
<stop offset="1" stop-color="#F8C206"/>
</linearGradient>
<linearGradient id="paint15_linear" x1="942.418" y1="242.736" x2="967.834" y2="242.736" gradientUnits="userSpaceOnUse">
<stop offset="0.00879799" stop-color="#FC7701"/>
<stop offset="1" stop-color="#F8C206"/>
</linearGradient>
<linearGradient id="paint16_linear" x1="976.929" y1="242.736" x2="1013.43" y2="242.736" gradientUnits="userSpaceOnUse">
<stop offset="0.00879799" stop-color="#FC7701"/>
<stop offset="1" stop-color="#F8C206"/>
</linearGradient>
<linearGradient id="paint17_linear" x1="991.264" y1="226.686" x2="1013.43" y2="226.686" gradientUnits="userSpaceOnUse">
<stop offset="0.00879799" stop-color="#FC7701"/>
<stop offset="1" stop-color="#F8C206"/>
</linearGradient>
<linearGradient id="paint18_linear" x1="964.889" y1="210.636" x2="1013.43" y2="210.636" gradientUnits="userSpaceOnUse">
<stop offset="0.00879799" stop-color="#FC7701"/>
<stop offset="1" stop-color="#F8C206"/>
</linearGradient>
<linearGradient id="paint19_linear" x1="775.872" y1="58.829" x2="775.872" y2="303.484" gradientUnits="userSpaceOnUse">
<stop offset="0.2925" stop-color="#0573B3"/>
<stop offset="0.8244" stop-color="#02B6D4"/>
</linearGradient>
<linearGradient id="paint20_linear" x1="801.662" y1="133.231" x2="826.815" y2="133.231" gradientUnits="userSpaceOnUse">
<stop offset="0.00879799" stop-color="#FC7701"/>
<stop offset="1" stop-color="#F8C206"/>
</linearGradient>
<linearGradient id="paint21_linear" x1="761.829" y1="157.894" x2="826.815" y2="157.894" gradientUnits="userSpaceOnUse">
<stop offset="0.00879799" stop-color="#FC7701"/>
<stop offset="1" stop-color="#F8C206"/>
</linearGradient>
<linearGradient id="paint22_linear" x1="785.916" y1="182.557" x2="826.815" y2="182.557" gradientUnits="userSpaceOnUse">
<stop offset="0.00879799" stop-color="#FC7701"/>
<stop offset="1" stop-color="#F8C206"/>
</linearGradient>
<linearGradient id="paint23_linear" x1="752.381" y1="207.22" x2="826.815" y2="207.22" gradientUnits="userSpaceOnUse">
<stop offset="0.00879799" stop-color="#FC7701"/>
<stop offset="1" stop-color="#F8C206"/>
</linearGradient>
<linearGradient id="paint24_linear" x1="774.381" y1="231.884" x2="826.815" y2="231.884" gradientUnits="userSpaceOnUse">
<stop offset="0.00879799" stop-color="#FC7701"/>
<stop offset="1" stop-color="#F8C206"/>
</linearGradient>
<linearGradient id="paint25_linear" x1="0.042546" y1="350.825" x2="70.1905" y2="350.825" gradientUnits="userSpaceOnUse">
<stop stop-color="#0573B3"/>
<stop offset="0.9912" stop-color="#02B6D4"/>
</linearGradient>
<linearGradient id="paint26_linear" x1="42.8078" y1="332.165" x2="68.794" y2="332.165" gradientUnits="userSpaceOnUse">
<stop offset="0.00879799" stop-color="#FC7701"/>
<stop offset="1" stop-color="#F8C206"/>
</linearGradient>
<linearGradient id="paint27_linear" x1="21.5376" y1="321.761" x2="49.6294" y2="321.761" gradientUnits="userSpaceOnUse">
<stop stop-color="#E43B6E"/>
<stop offset="1" stop-color="#FF8370"/>
</linearGradient>
<linearGradient id="paint28_linear" x1="244.775" y1="342.597" x2="259.209" y2="342.597" gradientUnits="userSpaceOnUse">
<stop stop-color="#E43B6E"/>
<stop offset="1" stop-color="#FF8370"/>
</linearGradient>
<linearGradient id="paint29_linear" x1="370.045" y1="35.2568" x2="386.37" y2="35.2568" gradientUnits="userSpaceOnUse">
<stop offset="0.00879799" stop-color="#FC7701"/>
<stop offset="1" stop-color="#F8C206"/>
</linearGradient>
<linearGradient id="paint30_linear" x1="834.326" y1="379.342" x2="848.692" y2="379.342" gradientUnits="userSpaceOnUse">
<stop stop-color="#E43B6E"/>
<stop offset="1" stop-color="#FF8370"/>
</linearGradient>
<linearGradient id="paint31_linear" x1="813.134" y1="393.597" x2="828.534" y2="393.597" gradientUnits="userSpaceOnUse">
<stop stop-color="#0573B3"/>
<stop offset="0.9912" stop-color="#02B6D4"/>
</linearGradient>
<linearGradient id="paint32_linear" x1="839.735" y1="487.174" x2="848.063" y2="487.174" gradientUnits="userSpaceOnUse">
<stop offset="0.00879799" stop-color="#FC7701"/>
<stop offset="1" stop-color="#F8C206"/>
</linearGradient>
<linearGradient id="paint33_linear" x1="855.699" y1="487.174" x2="886.34" y2="487.174" gradientUnits="userSpaceOnUse">
<stop offset="0.00879799" stop-color="#FC7701"/>
<stop offset="1" stop-color="#F8C206"/>
</linearGradient>
<linearGradient id="paint34_linear" x1="833.896" y1="473.7" x2="886.34" y2="473.7" gradientUnits="userSpaceOnUse">
<stop offset="0.00879799" stop-color="#FC7701"/>
<stop offset="1" stop-color="#F8C206"/>
</linearGradient>
<linearGradient id="paint35_linear" x1="845.591" y1="460.226" x2="886.34" y2="460.226" gradientUnits="userSpaceOnUse">
<stop offset="0.00879799" stop-color="#FC7701"/>
<stop offset="1" stop-color="#F8C206"/>
</linearGradient>
<linearGradient id="paint36_linear" x1="1011.11" y1="371.748" x2="1037.96" y2="371.748" gradientUnits="userSpaceOnUse">
<stop stop-color="#E43B6E"/>
<stop offset="1" stop-color="#FF8370"/>
</linearGradient>
<linearGradient id="paint37_linear" x1="1011.11" y1="394.134" x2="1037.96" y2="394.134" gradientUnits="userSpaceOnUse">
<stop stop-color="#E43B6E"/>
<stop offset="1" stop-color="#FF8370"/>
</linearGradient>
<linearGradient id="paint38_linear" x1="1011.11" y1="416.52" x2="1037.96" y2="416.52" gradientUnits="userSpaceOnUse">
<stop stop-color="#E43B6E"/>
<stop offset="1" stop-color="#FF8370"/>
</linearGradient>
<linearGradient id="paint39_linear" x1="1011.11" y1="438.906" x2="1037.96" y2="438.906" gradientUnits="userSpaceOnUse">
<stop stop-color="#E43B6E"/>
<stop offset="1" stop-color="#FF8370"/>
</linearGradient>
<linearGradient id="paint40_linear" x1="22.0796" y1="150.585" x2="53.7485" y2="150.585" gradientUnits="userSpaceOnUse">
<stop stop-color="#0573B3"/>
<stop offset="0.9912" stop-color="#02B6D4"/>
</linearGradient>
<linearGradient id="paint41_linear" x1="22.0796" y1="176.988" x2="53.7485" y2="176.988" gradientUnits="userSpaceOnUse">
<stop stop-color="#0573B3"/>
<stop offset="0.9912" stop-color="#02B6D4"/>
</linearGradient>
<linearGradient id="paint42_linear" x1="22.0796" y1="203.392" x2="53.7485" y2="203.392" gradientUnits="userSpaceOnUse">
<stop stop-color="#0573B3"/>
<stop offset="0.9912" stop-color="#02B6D4"/>
</linearGradient>
<linearGradient id="paint43_linear" x1="22.0796" y1="229.795" x2="53.7485" y2="229.795" gradientUnits="userSpaceOnUse">
<stop stop-color="#0573B3"/>
<stop offset="0.9912" stop-color="#02B6D4"/>
</linearGradient>
<linearGradient id="paint44_linear" x1="22.0796" y1="256.198" x2="53.7485" y2="256.198" gradientUnits="userSpaceOnUse">
<stop stop-color="#0573B3"/>
<stop offset="0.9912" stop-color="#02B6D4"/>
</linearGradient>
<linearGradient id="paint45_linear" x1="487.366" y1="239.283" x2="666.019" y2="239.283" gradientUnits="userSpaceOnUse">
<stop offset="0.00879799" stop-color="#FC7701"/>
<stop offset="1" stop-color="#F8C206"/>
</linearGradient>
<linearGradient id="paint46_linear" x1="505.435" y1="170.135" x2="518.023" y2="170.135" gradientUnits="userSpaceOnUse">
<stop offset="0.00879799" stop-color="#FC7701"/>
<stop offset="1" stop-color="#F8C206"/>
</linearGradient>
<linearGradient id="paint47_linear" x1="476.6" y1="188.541" x2="516.993" y2="188.541" gradientUnits="userSpaceOnUse">
<stop offset="0.00879799" stop-color="#FC7701"/>
<stop offset="1" stop-color="#F8C206"/>
</linearGradient>
<linearGradient id="paint48_linear" x1="511.729" y1="205.677" x2="666.308" y2="205.677" gradientUnits="userSpaceOnUse">
<stop offset="0.00879799" stop-color="#FC7701"/>
<stop offset="1" stop-color="#F8C206"/>
</linearGradient>
<linearGradient id="paint49_linear" x1="509.92" y1="194.584" x2="593.437" y2="194.584" gradientUnits="userSpaceOnUse">
<stop offset="0.00879799" stop-color="#FC7701"/>
<stop offset="1" stop-color="#F8C206"/>
</linearGradient>
<linearGradient id="paint50_linear" x1="499.191" y1="265.03" x2="504.955" y2="265.03" gradientUnits="userSpaceOnUse">
<stop offset="0.00879799" stop-color="#FC7701"/>
<stop offset="1" stop-color="#F8C206"/>
</linearGradient>
<linearGradient id="paint51_linear" x1="648.559" y1="265.03" x2="654.322" y2="265.03" gradientUnits="userSpaceOnUse">
<stop offset="0.00879799" stop-color="#FC7701"/>
<stop offset="1" stop-color="#F8C206"/>
</linearGradient>
<linearGradient id="paint52_linear" x1="517.633" y1="233.109" x2="556.657" y2="233.109" gradientUnits="userSpaceOnUse">
<stop offset="0.00879799" stop-color="#FC7701"/>
<stop offset="1" stop-color="#F8C206"/>
</linearGradient>
<linearGradient id="paint53_linear" x1="596.106" y1="233.109" x2="635.13" y2="233.109" gradientUnits="userSpaceOnUse">
<stop offset="0.00879799" stop-color="#FC7701"/>
<stop offset="1" stop-color="#F8C206"/>
</linearGradient>
<linearGradient id="paint54_linear" x1="509.441" y1="196.035" x2="672.979" y2="196.035" gradientUnits="userSpaceOnUse">
<stop offset="0.00879799" stop-color="#FC7701"/>
<stop offset="1" stop-color="#F8C206"/>
</linearGradient>
<linearGradient id="paint55_linear" x1="439.187" y1="73.2659" x2="467.992" y2="73.2659" gradientUnits="userSpaceOnUse">
<stop offset="0.00879799" stop-color="#FC7701"/>
<stop offset="1" stop-color="#F8C206"/>
</linearGradient>
<linearGradient id="paint56_linear" x1="439.187" y1="58.8972" x2="527.308" y2="58.8972" gradientUnits="userSpaceOnUse">
<stop stop-color="#123C62"/>
<stop offset="0.1171" stop-color="#143E6C"/>
<stop offset="0.4368" stop-color="#1A4283"/>
<stop offset="0.7381" stop-color="#1D4491"/>
<stop offset="1" stop-color="#1E4596"/>
</linearGradient>
<linearGradient id="paint57_linear" x1="571.776" y1="60.0407" x2="620.437" y2="60.0407" gradientUnits="userSpaceOnUse">
<stop stop-color="#0573B3"/>
<stop offset="0.9912" stop-color="#02B6D4"/>
</linearGradient>
<linearGradient id="paint58_linear" x1="571.775" y1="50.2529" x2="620.437" y2="50.2529" gradientUnits="userSpaceOnUse">
<stop stop-color="#E43B6E"/>
<stop offset="1" stop-color="#FF8370"/>
</linearGradient>
<linearGradient id="paint59_linear" x1="473.764" y1="73.2659" x2="527.308" y2="73.2659" gradientUnits="userSpaceOnUse">
<stop stop-color="#0573B3"/>
<stop offset="0.9912" stop-color="#02B6D4"/>
</linearGradient>
<linearGradient id="paint60_linear" x1="311.876" y1="516.862" x2="815.993" y2="516.862" gradientUnits="userSpaceOnUse">
<stop stop-color="#0573B3"/>
<stop offset="0.9912" stop-color="#02B6D4"/>
</linearGradient>
<linearGradient id="paint61_linear" x1="198.614" y1="535.218" x2="611.539" y2="535.218" gradientUnits="userSpaceOnUse">
<stop stop-color="#123C62"/>
<stop offset="0.1171" stop-color="#143E6C"/>
<stop offset="0.4368" stop-color="#1A4283"/>
<stop offset="0.7381" stop-color="#1D4491"/>
<stop offset="1" stop-color="#1E4596"/>
</linearGradient>
<linearGradient id="paint62_linear" x1="427.959" y1="535.218" x2="611.54" y2="535.218" gradientUnits="userSpaceOnUse">
<stop stop-color="#123C62"/>
<stop offset="0.1171" stop-color="#143E6C"/>
<stop offset="0.4368" stop-color="#1A4283"/>
<stop offset="0.7381" stop-color="#1D4491"/>
<stop offset="1" stop-color="#1E4596"/>
</linearGradient>
<linearGradient id="paint63_linear" x1="715.662" y1="539.695" x2="815.993" y2="539.695" gradientUnits="userSpaceOnUse">
<stop stop-color="#0573B3"/>
<stop offset="0.9912" stop-color="#02B6D4"/>
</linearGradient>
<linearGradient id="paint64_linear" x1="215.103" y1="99.8254" x2="379.159" y2="99.8254" gradientUnits="userSpaceOnUse">
<stop stop-color="#123C62"/>
<stop offset="0.1171" stop-color="#143E6C"/>
<stop offset="0.4368" stop-color="#1A4283"/>
<stop offset="0.7381" stop-color="#1D4491"/>
<stop offset="1" stop-color="#1E4596"/>
</linearGradient>
<linearGradient id="paint65_linear" x1="199.177" y1="181.415" x2="380.044" y2="181.415" gradientUnits="userSpaceOnUse">
<stop stop-color="#123C62"/>
<stop offset="0.1171" stop-color="#143E6C"/>
<stop offset="0.4368" stop-color="#1A4283"/>
<stop offset="0.7381" stop-color="#1D4491"/>
<stop offset="1" stop-color="#1E4596"/>
</linearGradient>
<linearGradient id="paint66_linear" x1="328.879" y1="221.2" x2="379.974" y2="221.2" gradientUnits="userSpaceOnUse">
<stop stop-color="#123C62"/>
<stop offset="0.1171" stop-color="#143E6C"/>
<stop offset="0.4368" stop-color="#1A4283"/>
<stop offset="0.7381" stop-color="#1D4491"/>
<stop offset="1" stop-color="#1E4596"/>
</linearGradient>
<linearGradient id="paint67_linear" x1="136.02" y1="232.701" x2="196.653" y2="232.701" gradientUnits="userSpaceOnUse">
<stop stop-color="#123C62"/>
<stop offset="0.1171" stop-color="#143E6C"/>
<stop offset="0.4368" stop-color="#1A4283"/>
<stop offset="0.7381" stop-color="#1D4491"/>
<stop offset="1" stop-color="#1E4596"/>
</linearGradient>
<linearGradient id="paint68_linear" x1="240.875" y1="235.617" x2="284.726" y2="235.617" gradientUnits="userSpaceOnUse">
<stop stop-color="#123C62"/>
<stop offset="0.1171" stop-color="#143E6C"/>
<stop offset="0.4368" stop-color="#1A4283"/>
<stop offset="0.7381" stop-color="#1D4491"/>
<stop offset="1" stop-color="#1E4596"/>
</linearGradient>
<linearGradient id="paint69_linear" x1="337.073" y1="141.384" x2="349.651" y2="141.384" gradientUnits="userSpaceOnUse">
<stop stop-color="#123C62"/>
<stop offset="0.1171" stop-color="#143E6C"/>
<stop offset="0.4368" stop-color="#1A4283"/>
<stop offset="0.7381" stop-color="#1D4491"/>
<stop offset="1" stop-color="#1E4596"/>
</linearGradient>
<linearGradient id="paint70_linear" x1="358.481" y1="176.254" x2="364.303" y2="176.254" gradientUnits="userSpaceOnUse">
<stop stop-color="#123C62"/>
<stop offset="0.1171" stop-color="#143E6C"/>
<stop offset="0.4368" stop-color="#1A4283"/>
<stop offset="0.7381" stop-color="#1D4491"/>
<stop offset="1" stop-color="#1E4596"/>
</linearGradient>
<linearGradient id="paint71_linear" x1="939.27" y1="475.847" x2="950.949" y2="475.847" gradientUnits="userSpaceOnUse">
<stop offset="0.00879799" stop-color="#FC7701"/>
<stop offset="1" stop-color="#F8C206"/>
</linearGradient>
<linearGradient id="paint72_linear" x1="936.247" y1="507.781" x2="950.555" y2="507.781" gradientUnits="userSpaceOnUse">
<stop stop-color="#0573B3"/>
<stop offset="0.9912" stop-color="#02B6D4"/>
</linearGradient>
<linearGradient id="paint73_linear" x1="911.443" y1="468.174" x2="927.607" y2="468.174" gradientUnits="userSpaceOnUse">
<stop offset="0.00879799" stop-color="#FC7701"/>
<stop offset="1" stop-color="#F8C206"/>
</linearGradient>
<linearGradient id="paint74_linear" x1="915.216" y1="571.329" x2="928.386" y2="571.329" gradientUnits="userSpaceOnUse">
<stop stop-color="#0573B3"/>
<stop offset="0.9912" stop-color="#02B6D4"/>
</linearGradient>
<linearGradient id="paint75_linear" x1="893.942" y1="525.337" x2="910.067" y2="525.337" gradientUnits="userSpaceOnUse">
<stop stop-color="#0573B3"/>
<stop offset="0.9912" stop-color="#02B6D4"/>
</linearGradient>
<linearGradient id="paint76_linear" x1="890.042" y1="522.987" x2="896.671" y2="522.987" gradientUnits="userSpaceOnUse">
<stop offset="0.00879799" stop-color="#FC7701"/>
<stop offset="1" stop-color="#F8C206"/>
</linearGradient>
<linearGradient id="paint77_linear" x1="898.086" y1="589.853" x2="919.726" y2="589.853" gradientUnits="userSpaceOnUse">
<stop stop-color="#123C62"/>
<stop offset="0.1171" stop-color="#143E6C"/>
<stop offset="0.4368" stop-color="#1A4283"/>
<stop offset="0.7381" stop-color="#1D4491"/>
<stop offset="1" stop-color="#1E4596"/>
</linearGradient>
<linearGradient id="paint78_linear" x1="957.767" y1="503.688" x2="966.883" y2="503.688" gradientUnits="userSpaceOnUse">
<stop offset="0.00879799" stop-color="#FC7701"/>
<stop offset="1" stop-color="#F8C206"/>
</linearGradient>
<linearGradient id="paint79_linear" x1="951.395" y1="570.801" x2="963.082" y2="570.801" gradientUnits="userSpaceOnUse">
<stop stop-color="#E43B6E"/>
<stop offset="1" stop-color="#FF8370"/>
</linearGradient>
<linearGradient id="paint80_linear" x1="955.265" y1="569.529" x2="966.629" y2="569.529" gradientUnits="userSpaceOnUse">
<stop stop-color="#E43B6E"/>
<stop offset="1" stop-color="#FF8370"/>
</linearGradient>
<linearGradient id="paint81_linear" x1="948.154" y1="569.806" x2="959.809" y2="569.806" gradientUnits="userSpaceOnUse">
<stop stop-color="#E43B6E"/>
<stop offset="1" stop-color="#FF8370"/>
</linearGradient>
<linearGradient id="paint82_linear" x1="897.077" y1="597.598" x2="965.025" y2="597.598" gradientUnits="userSpaceOnUse">
<stop offset="0.00879799" stop-color="#FC7701"/>
<stop offset="1" stop-color="#F8C206"/>
</linearGradient>
<linearGradient id="paint83_linear" x1="890.799" y1="562.894" x2="971.303" y2="562.894" gradientUnits="userSpaceOnUse">
<stop offset="0.00879799" stop-color="#FC7701"/>
<stop offset="1" stop-color="#F8C206"/>
</linearGradient>
<linearGradient id="paint84_linear" x1="285.999" y1="216.305" x2="319.919" y2="216.305" gradientUnits="userSpaceOnUse">
<stop stop-color="#123C62"/>
<stop offset="0.1171" stop-color="#143E6C"/>
<stop offset="0.4368" stop-color="#1A4283"/>
<stop offset="0.7381" stop-color="#1D4491"/>
<stop offset="1" stop-color="#1E4596"/>
</linearGradient>
<linearGradient id="paint85_linear" x1="142.666" y1="102.999" x2="165.794" y2="102.999" gradientUnits="userSpaceOnUse">
<stop stop-color="#123C62"/>
<stop offset="0.1171" stop-color="#143E6C"/>
<stop offset="0.4368" stop-color="#1A4283"/>
<stop offset="0.7381" stop-color="#1D4491"/>
<stop offset="1" stop-color="#1E4596"/>
</linearGradient>
</defs>
</svg>
