<svg width="902" height="631" viewBox="0 0 902 631" fill="none" xmlns="http://www.w3.org/2000/svg">
<g opacity="0.5">
<path opacity="0.6" d="M382.5 121.4C352.6 13.1999 217.7 -21.7001 140.5 59.1999C139.4 60.3999 138.3 61.4999 137.2 62.6999C26.4 182.8 78.8 478.6 310 553.6C541.2 628.6 781.7 491.7 795.2 369.2C808.7 246.8 702 208.3 536.5 242.6C442.9 262 401.1 188.7 382.5 121.4Z" fill="#87DBF4"/>
<path opacity="0.6" d="M574.8 139.9C543.9 144.9 535.3 172.2 559.2 191.6C567.1 198 578.4 203.3 594.4 206C655.6 216.1 688.1 189.1 663.5 154.1C648.4 132.5 605.5 134.9 574.8 139.9Z" fill="#87DBF4"/>
<path opacity="0.6" d="M96.0999 361C80.8999 333.7 52.1999 334.9 41.9999 363.8C38.5999 373.4 37.3999 385.7 40.2999 401.7C51.3999 462.5 87.8999 483.9 112.6 449C127.9 427.6 111.1 388.1 96.0999 361Z" fill="#87DBF4"/>
<path opacity="0.6" d="M816.9 383.5C814.1 398.4 826.4 408.9 840.3 403.2C844.9 401.3 849.6 397.7 853.7 391.2C869.5 366.7 861.5 345.8 839.5 347.9C826 349.3 819.7 368.8 816.9 383.5Z" fill="#87DBF4"/>
<path opacity="0.6" d="M738.7 226.6C753.6 229.7 764.3 217.6 758.8 203.6C757 199 753.4 194.3 747 190C722.7 173.9 701.6 181.5 703.3 203.4C704.5 216.9 724 223.5 738.7 226.6Z" fill="#87DBF4"/>
<path opacity="0.6" d="M377.3 67.3999C389.1 76.9999 404.2 71.1999 405.8 56.1999C406.3 51.2999 405.3 45.4 401.6 38.8C387.5 13.3 365.2 10.3999 356.7 30.6999C351.4 43.0999 365.7 57.8999 377.3 67.3999Z" fill="#87DBF4"/>
</g>
<path d="M848.1 601.5C853.2 602.4 858.5 600.9 862.1 597.2C864.4 594.8 866 591.7 866 588.8V588.7C865.9 568 891.5 569.3 899.7 544C907.9 518.6 875.5 516.5 856.9 532.2C843.6 543.5 827.6 527.7 808.2 540.9C791.4 552.3 800.8 580.4 773.2 571.6C764.4 568.8 756.5 571.5 749.9 576.5C742.2 582.2 737.3 590.3 735.2 599L737.4 600.5C791.8 633.6 816.3 596.2 848.1 601.5Z" fill="#FFDC6A"/>
<path d="M794.2 600.4L866.3 554.3C867.3 553.7 867.5 552.4 866.9 551.4C866.3 550.4 865 550.2 864 550.8L786.5 600.4H794.2Z" fill="#F8C206"/>
<path d="M790.3 463.1C787.3 417.9 786.8 370.4 790.1 339C794.5 297.9 804.5 269.3 819.8 254C820.8 253 822.5 253 823.5 254C824.5 255 824.5 256.7 823.5 257.7C796.8 284.5 787.2 356.4 795.7 465.8L790.3 463.1Z" fill="#F8C206"/>
<path d="M797.2 302.7C797.2 302.7 775.5 302.7 777 264.6C777 264.6 810.2 274.1 797.2 302.7Z" fill="#FFDC6A"/>
<path d="M795.3 322.3C795.3 322.3 794.1 300.7 832.4 300.1C832.4 300.1 824.8 333.7 795.3 322.3Z" fill="#FFDC6A"/>
<path d="M812 268.9C812 268.9 803.7 248.9 839.5 235.6C839.5 235.6 843.5 269.9 812 268.9Z" fill="#FFDC6A"/>
<path d="M790.5 361.6C790.5 361.6 770 368.9 758.6 332.5C758.5 332.6 793 330.3 790.5 361.6Z" fill="#FFDC6A"/>
<path d="M791.6 381.9C791.6 381.9 786.7 360.8 824.3 353.6C824.3 353.6 822.6 388.1 791.6 381.9Z" fill="#FFDC6A"/>
<path d="M790.5 409.8C790.5 409.8 770.2 417.5 758 381.3C758 381.3 792.5 378.3 790.5 409.8Z" fill="#FFDC6A"/>
<path d="M159.8 563.9L153.9 563.7L150.8 563.6L141.9 563.2C141.9 563.2 59.6999 424 111.2 378.6C127.1 364.6 154.8 376.2 148.7 440.4C142.9 500 159.8 563.9 159.8 563.9Z" fill="#FFDC6A"/>
<path d="M153.9 563.7L150.8 563.6C136.4 529.9 129.2 493.7 125.6 468.2C121.3 438 121.1 416.1 121.1 415.9C121.1 415.1 121.7 414.5 122.5 414.5C123.3 414.5 123.9 415.1 123.9 415.9C123.9 416.1 124.1 437.9 128.3 467.9C132 493.4 139.3 529.9 153.9 563.7Z" fill="#F8C206"/>
<path d="M176.1 591.8L168.1 594.8L163.8 596.4L151.7 600.9C151.7 600.9 -36 460.6 7.49998 371.4C20.9 343.9 64.4 344 92.1 433.2C117.8 515.8 176.1 591.8 176.1 591.8Z" fill="#F8C206"/>
<path d="M168.1 594.8L163.8 596.4C125.8 559.3 95.8 514.9 76.8 483C54.2 445 41.7 415.9 41.6 415.6C41.2 414.6 41.6 413.4 42.7 412.9C43.7 412.5 45 412.9 45.4 414C45.5 414.3 58 443.3 80.4 481C99.5 513 129.7 557.8 168.1 594.8Z" fill="#FFDC6A"/>
<path d="M817.6 599.7C817.5 596.5 817.1 593.2 816.4 590C809.7 559.2 828 553.4 852.2 543.7C876.4 534 879.3 505.1 862.1 481.1C845 457.1 875.8 437.8 864.4 401.7C853.1 365.6 813.7 389.6 805.1 422.9C798.9 446.8 767.4 441.7 755.8 472.7C745.7 499.7 779.6 524.6 740.4 536.9C727.9 540.8 721 550.4 717.3 561.6C713.1 574.5 713.9 587.9 718.7 599.7H817.6Z" fill="#F8C206"/>
<path d="M769.6 599.7L834.2 440.8C834.8 439.3 834.1 437.6 832.6 437C831.1 436.4 829.4 437.1 828.8 438.6L763.3 599.7H769.6Z" fill="#FFDC6A"/>
<path d="M231.7 119.3C231.7 119.3 233.1 90.7 215.6 85.2C188.4 76.6 180.9 90.7001 176.7 100C171.3 111.9 173.6 135.2 189.8 137.5C214 140.9 230.2 127.3 231.7 119.3Z" fill="#364A57"/>
<path d="M249.2 215C263.3 215 275.5 205.1 278.4 191.3C280.5 181.4 282.5 172.6 282.5 167.6V167.5C282.6 165.9 282.7 164.4 282.7 162.8C282.9 140.2 268.9 99.0001 219.8 105.6C219.8 105.6 179.1 110.2 174.4 149.9C174.4 149.9 172.5 168.2 171.2 181.5C171.2 181.7 171.2 182 171.1 182.2C169.3 199.7 183.1 214.9 200.8 214.9H249.2V215Z" fill="#364A57"/>
<path d="M307.5 262.2C307.5 262.2 316.2 330.8 326.1 366C326.1 366 340.2 359.5 358.6 350.6C378.6 341 407.3 323.4 407.3 323.4L414.6 340.8C414.6 340.8 340.3 410.7 315.7 414.6C291.1 418.6 276 330.7 276 330.7L307.5 262.2Z" fill="url(#paint0_linear)"/>
<path d="M405.8 325.4C405.8 325.4 403.8 315.7 408.1 309.1C412.5 302.5 419.1 290.2 426.9 287.6C433.4 285.4 423.8 296.5 423.5 303.4C423.5 303.4 433.2 302.2 440.2 299.9C446.4 297.9 458.6 295.4 464.2 294.3C465.8 294 466.7 295.9 465.6 297C463.7 298.7 459.6 300.8 451.3 302.8C451.3 302.8 471.6 299 473.8 302.1C475.9 305.2 450.4 309.5 450.4 309.5C450.4 309.5 470.2 308.3 470.7 311.4C471 313.3 450.5 317.6 450.5 317.6C450.5 317.6 469.2 318.1 464.7 321C463.4 321.9 427.1 325.9 414.5 340.8C414.6 340.8 406.1 332 405.8 325.4Z" fill="#FFCAC1"/>
<path d="M182.3 248.7C182.3 248.7 140.8 260.9 105 269C105 269 104.1 253.5 103.1 233.1C102.1 211 103.9 177.4 103.9 177.4L85 179.3C85 179.3 58.7 277.7 66.9 301.1C75.1 324.6 179.4 291.7 179.4 291.7L182.3 248.7Z" fill="url(#paint1_linear)"/>
<path d="M102.8 179.7C102.8 179.7 112.4 176.9 116.1 169.9C119.8 162.9 130.2 148.9 123.8 143.7C121.5 141.8 119.8 150.1 113.8 153.7C113.8 153.7 110.2 144.6 108.9 137.4C107.7 131 104.1 119.1 102.4 113.6C101.9 112.1 99.7 112.1 99.4 113.7C98.8 116.2 98.9 120.7 101.1 129C101.1 129 94.8 109.3 91.1 109C87.4 108.6 95.7 133.1 95.7 133.1C95.7 133.1 87.3 115.2 84.3 116.2C82.5 116.8 88.4 136.9 88.4 136.9C88.4 136.9 79.1 120.7 78.6 126.1C78.5 127.7 92.1 161.4 85 179.5C85 179.3 96.8 182.6 102.8 179.7Z" fill="#FFCAC1"/>
<path d="M305.9 527.9L306.2 529.4C273.9 551.2 152.8 536.3 152.8 536.3C153 533.8 153.3 531.1 153.6 528.4C154 525.3 154.4 522.2 155 518.9C156.5 510.1 158.4 500.6 160.6 490.9C161.3 487.8 162 484.7 162.8 481.6C165 472.3 167.3 462.8 169.5 453.6C170.3 450.4 171 447.3 171.7 444.2C172.7 439.9 173.7 435.6 174.6 431.5C175.8 426 176.9 420.8 177.7 415.8C178.3 412.5 178.8 409.3 179.2 406.3C179.7 403.1 180 400.1 180.2 397.3C178.3 390.2 176.5 383.3 174.8 376.5C174 373.1 173.2 369.7 172.4 366.4C169.9 355.8 167.7 345.7 165.8 336.2C165.1 332.8 164.5 329.4 163.8 326.2C161.7 315 160 305 158.6 296.1C158.1 292.6 157.6 289.3 157.1 286.2C156.6 282.8 156.2 279.7 155.8 276.9C154.2 264.4 153.6 257.3 153.6 257.3C153.9 257.1 154.2 256.9 154.5 256.6C158.2 254 163.9 251.6 170.3 249.4C177 247.1 184.5 245.1 191 243.5C192 243.3 193 243 193.9 242.8C202.5 240.8 209 239.6 209 239.6C238.3 245.7 246.7 241.8 246.7 241.8L261.6 246.2L263.4 246.8L274.3 250.6L274.7 250.8L294.2 257.6L307.2 262.1L302.2 285.3L300 295.4L293.4 325.9L291.2 336L284.6 366.4L282.4 376.4L276.9 401.6L278 406.4L280.1 415.7L283.5 430.6L286.6 444L288.7 453.3L295.1 481.3L297.2 490.6L303.5 518.3L305.9 527.9Z" fill="#87DBF4"/>
<path d="M263.7 246.8C260.6 265.1 251.7 283.5 233.2 285.5C210.9 287.9 199.3 260 194.2 242.8C202.8 240.8 211.8 238.8 211.8 238.8C241.1 244.9 246.8 241.2 246.8 241.2L261.9 246.2L263.7 246.8Z" fill="#FFCAC1"/>
<path d="M230.9 270.1C207.5 270.1 201.9 241.3 201.8 241C201.7 240.4 202.1 239.8 202.7 239.7C203.3 239.6 203.9 240 204 240.6C204.2 241.8 209.5 269 232.1 267.8C251.9 266.8 253.1 244.9 253.1 244C253.1 243.4 253.7 242.9 254.3 242.9C254.9 242.9 255.4 243.5 255.4 244.1C255.4 244.3 254.1 269 232.2 270.1C231.9 270.1 231.4 270.1 230.9 270.1Z" fill="white"/>
<path d="M188.9 262.2C188.9 265.3 186.3 267.9 183.2 267.9C180 267.9 177.5 265.4 177.5 262.2C177.5 259.1 180.1 256.5 183.2 256.5C186.4 256.5 188.9 259 188.9 262.2Z" fill="url(#paint2_linear)"/>
<path d="M177.5 290C177.5 293.1 174.9 295.7 171.8 295.7C168.6 295.7 166.1 293.1 166.1 290C166.1 286.9 168.7 284.3 171.8 284.3C174.9 284.3 177.5 286.8 177.5 290Z" fill="url(#paint3_linear)"/>
<path d="M213.9 303.1C213.9 306.2 211.3 308.8 208.2 308.8C205.1 308.8 202.5 306.2 202.5 303.1C202.5 300 205.1 297.4 208.2 297.4C211.3 297.4 213.9 300 213.9 303.1Z" fill="url(#paint4_linear)"/>
<path d="M188.5 318.7C189.7 321.6 188.2 324.9 185.3 326.1C182.4 327.3 179 325.8 177.9 322.9C176.7 320 178.2 316.7 181.1 315.5C184 314.3 187.3 315.7 188.5 318.7Z" fill="url(#paint5_linear)"/>
<path d="M238 329.2C238 332.3 235.4 334.9 232.3 334.9C229.1 334.9 226.6 332.3 226.6 329.2C226.6 326.1 229.2 323.5 232.3 323.5C235.5 323.5 238 326 238 329.2Z" fill="url(#paint6_linear)"/>
<path d="M274.5 340.9C274.5 344 271.9 346.6 268.8 346.6C265.6 346.6 263.1 344 263.1 340.9C263.1 337.8 265.7 335.2 268.8 335.2C271.9 335.2 274.5 337.8 274.5 340.9Z" fill="url(#paint7_linear)"/>
<path d="M281.8 267.9C281.8 271 279.2 273.6 276.1 273.6C272.9 273.6 270.4 271 270.4 267.9C270.4 264.8 273 262.2 276.1 262.2C279.2 262.2 281.8 264.7 281.8 267.9Z" fill="url(#paint8_linear)"/>
<path d="M240.3 365.6C240.3 368.7 237.7 371.3 234.6 371.3C231.5 371.3 228.9 368.7 228.9 365.6C228.9 362.5 231.5 359.9 234.6 359.9C237.7 359.9 240.3 362.4 240.3 365.6Z" fill="url(#paint9_linear)"/>
<path d="M205.1 383.2C205.1 386.3 202.5 388.9 199.4 388.9C196.2 388.9 193.7 386.3 193.7 383.2C193.7 380.1 196.3 377.5 199.4 377.5C202.6 377.5 205.1 380.1 205.1 383.2Z" fill="url(#paint10_linear)"/>
<path d="M201 351.1C201 354.2 198.4 356.8 195.3 356.8C192.2 356.8 189.6 354.2 189.6 351.1C189.6 348 192.2 345.4 195.3 345.4C198.4 345.4 201 347.9 201 351.1Z" fill="url(#paint11_linear)"/>
<path d="M257.3 304.6C257.3 307.7 254.7 310.3 251.6 310.3C248.4 310.3 245.9 307.7 245.9 304.6C245.9 301.5 248.5 298.9 251.6 298.9C254.8 298.9 257.3 301.5 257.3 304.6Z" fill="url(#paint12_linear)"/>
<path d="M288.9 297.4C288.9 300.5 286.3 303.1 283.2 303.1C280.1 303.1 277.5 300.5 277.5 297.4C277.5 294.3 280.1 291.7 283.2 291.7C286.3 291.7 288.9 294.3 288.9 297.4Z" fill="url(#paint13_linear)"/>
<path d="M268.8 375C268.8 378.1 266.2 380.7 263.1 380.7C259.9 380.7 257.4 378.1 257.4 375C257.4 371.9 260 369.3 263.1 369.3C266.2 369.3 268.8 371.8 268.8 375Z" fill="url(#paint14_linear)"/>
<path d="M270.3 420C270.3 423.1 267.7 425.7 264.6 425.7C261.4 425.7 258.9 423.1 258.9 420C258.9 416.9 261.5 414.3 264.6 414.3C267.7 414.4 270.3 416.9 270.3 420Z" fill="url(#paint15_linear)"/>
<path d="M241.2 401.2C242.4 404.1 240.9 407.4 238 408.6C235.1 409.8 231.7 408.3 230.6 405.4C229.4 402.5 230.9 399.2 233.8 398C236.7 396.9 240 398.3 241.2 401.2Z" fill="url(#paint16_linear)"/>
<path d="M202.3 417.9C203.5 420.8 202 424.1 199.1 425.3C196.2 426.5 192.8 425 191.7 422.1C190.5 419.2 192 415.9 194.9 414.7C197.8 413.6 201.1 415 202.3 417.9Z" fill="url(#paint17_linear)"/>
<path d="M318 599.7L316.8 592.6L312.2 565.1L310.6 555.6L306.2 529.3L298.2 529.7L192.2 534.5L152.9 536.3L150.4 556.7L149.2 566.3L145.7 594.5L145.1 599.7H318Z" fill="#87DBF4"/>
<path d="M318 599.7L316.9 593.3L316.8 592.6L316 588.1L315.2 583.6L312.1 565.1L311.2 559.6L310.5 555.7L310.4 555.1L306.4 531.1L306.1 529.4L305.7 527.9L305.4 526.6L303.6 518.7L300 503.2L299 498.8L297.2 491L295.1 481.7L293.7 475.3L292.7 470.9L288.8 453.7L287.4 447.4L286.7 444.3L286.4 442.9L283.7 430.8C240.6 443.5 194.9 436 174.6 431.4C173.7 435.5 172.7 439.7 171.7 444.1C171.5 445 171.2 446 171 446.9C170.6 448.4 170.3 449.9 169.9 451.3C169.8 452 169.6 452.7 169.4 453.4C167.7 460.4 166 467.6 164.3 474.8C163.9 476.3 163.6 477.8 163.3 479.2C163.1 480 162.9 480.7 162.8 481.4C162.1 484.5 161.4 487.7 160.6 490.7C159.7 494.8 158.8 498.8 158 502.7C157.7 504.2 157.4 505.6 157.1 507.1C156.3 511.1 155.6 515 154.9 518.8C154.4 522.1 153.9 525.2 153.5 528.3C153.4 529.2 153.3 530.2 153.1 531.1C153 532.6 152.8 534.1 152.7 535.6C152.7 535.8 152.7 536 152.7 536.2L150.2 556.7L149.8 559.9L149.3 564.3L149.1 566.2L146.3 588.6L145.8 593.1L145.6 594.5L145 599.7H318Z" fill="#123C62"/>
<path d="M265.8 170.3C265.8 170.3 272.8 161.4 278 168.8C283.2 176.1 275.8 197.8 263.1 192.5L265.8 170.3Z" fill="#FFCAC1"/>
<path d="M265.9 185.8C266.4 185.8 266.8 185.5 266.9 185.1C268.9 178.4 276.2 175.7 276.3 175.7C276.9 175.5 277.1 174.9 276.9 174.4C276.7 173.9 276.1 173.6 275.5 173.8C275.2 173.9 267.1 176.9 264.8 184.6C264.6 185.1 265 185.7 265.5 185.9C265.7 185.8 265.8 185.8 265.9 185.8Z" fill="#DE7F84"/>
<path d="M273.3 182.4C273.5 182.4 273.7 182.3 273.9 182.2C274.4 181.9 274.5 181.3 274.2 180.8C274.1 180.7 272.9 178.9 270.1 177.7C269.6 177.5 268.9 177.7 268.7 178.2C268.5 178.7 268.7 179.3 269.2 179.6C271.3 180.5 272.3 181.9 272.3 181.9C272.6 182.2 273 182.4 273.3 182.4Z" fill="#DE7F84"/>
<path d="M262.7 192.3C261.5 193.6 260.8 195.4 260.8 197.3C260.8 201.5 264.2 204.9 268.4 204.9C272.6 204.9 276 201.5 276 197.3C276 194.9 274.9 192.7 273.1 191.4C272.2 190.7 271.2 190.2 270 189.9C269.8 189.4 269.9 188.9 270.3 188.5C271.8 188.8 273.1 189.5 274.2 190.4C276.2 192.1 277.5 194.5 277.5 197.3C277.5 202.3 273.4 206.3 268.4 206.3C263.4 206.3 259.3 202.2 259.3 197.3C259.3 195.2 260.1 193.2 261.3 191.6C261.8 191.9 262.2 192.1 262.7 192.3Z" fill="white"/>
<path d="M211.8 215.6V242.1C211.8 242.1 224.2 251.6 233.8 252.4C243.4 253.2 246.8 241.9 246.8 241.9V217.2L211.8 215.6Z" fill="#FFCAC1"/>
<path d="M211.8 218.2V228.8C218.3 236 229.8 238.5 246.8 236V219.9L211.8 218.2Z" fill="#DE7F84"/>
<path d="M270.1 180.4C269.8 183 269.4 185.6 269 188.2C265.9 205.5 255 224.1 241.2 227.2C211.3 234 198.9 210.6 194.2 193.3C193.7 191.4 194.7 189.2 194.2 186.9C193.2 181.5 191 175.4 190.5 169.4C190.2 165.2 189.9 161.1 189.7 157.4C189.2 146.9 195.3 137.3 204.8 133.5C218.5 128.1 239.4 123.7 259.1 135.3C266.4 139.6 271 147.5 271.1 156.1C271.3 162.7 271.1 171.4 270.1 180.4Z" fill="#FFCAC1"/>
<path d="M232.2 193.8C231.6 193.8 231.2 193.4 231.1 192.8C231 192.2 231.4 191.6 232.1 191.5L236.1 190.8L230.6 176.2C230.4 175.6 230.7 174.9 231.3 174.7C231.9 174.5 232.6 174.8 232.8 175.4L239.3 192.6L232.5 193.7C232.3 193.7 232.3 193.8 232.2 193.8Z" fill="#DE7F84"/>
<path d="M246.5 174.5C246.5 177 247.8 179.1 249.4 179.1C251 179.1 252.3 177 252.3 174.5C252.3 172 251 169.9 249.4 169.9C247.8 169.9 246.5 171.9 246.5 174.5Z" fill="#364A57"/>
<path d="M214 174.5C214 177 215.3 179.1 216.9 179.1C218.5 179.1 219.8 177 219.8 174.5C219.8 172 218.5 169.9 216.9 169.9C215.3 169.9 214 171.9 214 174.5Z" fill="#364A57"/>
<path d="M258.1 162.4C255.7 161.9 251 161.2 245.9 161.4C244.6 161.4 243.5 162.5 243.7 163.5C243.8 164.3 244.8 164.9 245.8 164.8C249.3 164.5 258.3 164.6 262.6 165.8C262.7 165.2 262.3 164.5 261.7 164C260.7 163.2 259.4 162.6 258.1 162.4Z" fill="#364A57"/>
<path d="M210.8 162.9C213.2 162.4 217.9 161.6 223 161.7C224.3 161.7 225.4 162.7 225.3 163.8C225.2 164.7 224.3 165.2 223.2 165.2C219.7 165 210.6 165.2 206.4 166.5C206.3 165.9 206.7 165.2 207.3 164.7C208.1 163.8 209.4 163.2 210.8 162.9Z" fill="#364A57"/>
<path d="M246.5 200.6C245.6 204.7 242.8 212.1 233.2 212.1C223.6 212.1 220.8 205.3 219.9 200.6H246.5Z" fill="white"/>
<path d="M233.3 219.1C236.1 219.1 238.5 217.6 238.6 217.5C239.1 217.2 239.3 216.5 239 215.9C238.7 215.4 238 215.2 237.4 215.5C237.4 215.5 235.4 216.7 233.3 216.7C231 216.7 229 215.5 228.9 215.5C228.4 215.2 227.7 215.4 227.3 215.9C227 216.4 227.1 217.1 227.7 217.5C227.8 217.6 230.3 219.1 233.3 219.1Z" fill="#DE7F84"/>
<path d="M271.3 177.7C271 177.9 270.8 177.9 270.5 177.4C266.6 170.5 270.3 156.6 258.6 151.3C249.7 147.3 246.5 139 246.5 139C244.5 142.5 239.2 145.6 239.2 145.6C239.2 145.6 225.8 153.5 211.8 158.9C207.7 160.5 204.7 162.1 202.6 163.5C202.8 163.5 202.8 163.6 202.8 163.6C202.8 163.6 198.9 169.9 201.8 179.6C204.6 189.3 201 205.4 194.7 209.1C194.8 208.8 199.5 197.7 196.9 188.7C195.4 183.5 195.4 175.3 193.9 170.3C192.3 169.2 188.6 167.3 187.3 166.6C186.9 162.3 186.7 158.2 186.5 154.4C186 143.7 192.4 133.9 202.5 130C217 124.5 238.9 120.1 259.7 131.8C267.4 136.1 272.2 144.2 272.4 153C272.6 159.7 272.4 168.5 271.3 177.7Z" fill="#364A57"/>
<path d="M193.9 170.2C193.9 170.2 185.7 160.3 180.9 167.4C176.1 174.5 183.2 196.3 195 191.2L193.9 170.2Z" fill="#FFCAC1"/>
<path d="M194.3 191.6C195.1 193.2 195.4 195.1 195 197C194 201.1 189.8 203.5 185.8 202.5C181.7 201.5 179.3 197.4 180.3 193.3C180.9 191 182.5 189.2 184.6 188.2C185.6 187.7 186.8 187.5 187.9 187.5C188.1 187.1 188.2 186.6 188 186C186.5 186 185.1 186.3 183.8 186.9C181.5 188 179.6 190.1 178.9 192.8C177.7 197.6 180.6 202.6 185.5 203.8C190.3 205 195.3 202.1 196.5 197.2C197 195.1 196.8 193 195.9 191.2C195.2 191.5 194.8 191.5 194.3 191.6Z" fill="white"/>
<path d="M192.2 184C191.8 184 191.4 183.7 191.2 183.3C189.4 176.8 182.6 174.2 182.6 174.2C182.1 174 181.8 173.4 182 172.9C182.2 172.4 182.8 172.1 183.3 172.3C183.6 172.4 191 175.3 193.1 182.8C193.2 183.3 192.9 183.9 192.4 184C192.3 184 192.2 184 192.2 184Z" fill="#DE7F84"/>
<path d="M185.4 180.7C185.2 180.7 185 180.6 184.9 180.5C184.4 180.2 184.3 179.6 184.6 179.1C184.6 179 185.8 177.2 188.3 176.1C188.8 175.9 189.4 176.1 189.6 176.6C189.8 177.1 189.6 177.7 189.1 177.9C187.2 178.8 186.2 180.2 186.2 180.2C186 180.6 185.7 180.7 185.4 180.7Z" fill="#DE7F84"/>
<path d="M625.9 384.4C606.9 398 577.2 407.3 577.2 407.3L571.1 385.5L566.4 368.5L563.1 356.5H529.1C530.9 362.9 532.8 369.4 534.8 375.7C537.3 384 539.7 392 542 399.5C545.3 410 548.3 419.2 550.8 425.8C551.4 427.3 552 429 552.8 430.8C557.3 443 561 456.3 578.4 448C593.7 440.7 614.4 430.5 624.8 423.7L625.9 384.4Z" fill="#FFCAC1"/>
<path d="M534.7 375.8C537.2 384 539.6 392.1 541.9 399.6C555.8 398.1 565.4 391.3 571.1 385.6L566.4 368.6L534.7 375.8Z" fill="#DE7F84"/>
<path d="M527.4 256.8C527.4 256.8 562.9 341.2 578.2 368.6C578.2 368.6 556.8 386.7 536 387.2C536 387.2 524 294.5 527.4 256.8Z" fill="#0573B3"/>
<path d="M444.3 599.8C444.7 593.9 445 588.3 445.3 583.1C446.6 561.8 447.4 547.3 447.4 547.3L439 546.9L434.3 546.7L377.4 544.2C377.4 544.2 376.4 560.5 375.1 584.3C374.9 589.2 374.6 594.4 374.3 599.8H444.3Z" fill="#0573B3"/>
<path d="M439 546.8L447.4 547.2C447.4 547.2 446.6 561.7 445.3 583C423.4 584.8 399.6 585.6 375.1 584.2C376.3 560.3 377.4 544.1 377.4 544.1L434.3 546.6L439 546.8Z" fill="#0573B3"/>
<path d="M436 599.8C437.3 577 438.4 557.5 439 546.8L434.3 546.6C433.7 557.4 432.6 576.9 431.3 599.8H436Z" fill="url(#paint18_linear)"/>
<path d="M462.7 599.8H532.6C532.3 594.3 532.1 589.1 531.8 584.3C530.6 560.4 529.5 544.2 529.5 544.2L472.6 546.7L467.9 546.9L459.5 547.3C459.5 547.3 460.3 561.8 461.6 583.1C462 588.2 462.3 593.9 462.7 599.8Z" fill="#87DBF4"/>
<path d="M468 546.8L459.6 547.2C459.6 547.2 460.4 561.7 461.7 583C483.6 584.8 507.4 585.6 531.9 584.2C530.7 560.3 529.6 544.1 529.6 544.1L472.7 546.6L468 546.8Z" fill="url(#paint19_linear)"/>
<path d="M475.7 599.8C474.4 577 473.3 557.4 472.7 546.6L468 546.8C468.6 557.5 469.7 577 471 599.8H475.7Z" fill="url(#paint20_linear)"/>
<path d="M365.1 503.6C365.1 504.8 365.1 505.9 365.1 507.1C365.1 527.8 365.2 543.9 365.3 551.8C385.4 557.2 405.5 560.7 425.6 562.4C426.5 562.5 427.4 562.5 428.3 562.6C428.8 562.6 429.3 562.7 429.8 562.7C430.9 562.8 432 562.8 433 562.9C434.2 563 435.4 563 436.6 563.1C450.3 563.7 464 563.5 477.6 562.4C480.4 562.2 483.1 561.9 485.9 561.6C486.1 561.6 486.3 561.6 486.4 561.5C487.1 561.4 487.8 561.3 488.5 561.3C488.9 561.2 489.4 561.2 489.8 561.1C505.7 559.2 521.6 556.1 537.5 551.8C537.5 548.2 537.6 542.9 537.6 536.2C537.6 535 537.6 533.7 537.6 532.3C537.6 522.7 537.5 510.8 537.4 497.3C537.4 496.1 537.4 495 537.4 493.8C537.3 484.8 537.2 475.2 537.1 465.2C537.1 464 537.1 462.9 537.1 461.7C537 451.4 536.8 440.7 536.6 429.9C536.5 423.3 536.4 416.6 536.2 409.9C536.1 403.1 535.9 396.3 535.8 389.6C535.8 388.1 535.7 386.7 535.7 385.2C534.1 321.4 531.4 262.8 527 256.3C523.9 251.8 516.8 246.5 508.5 241.1C507.5 240.5 506.4 239.8 505.4 239.1C501.8 236.9 472.9 227.1 469.2 224.9L438.6 222.8C438.4 222.9 409.1 232.8 408.9 232.9C407.6 233.6 406.4 234.3 405.1 235.1C394.3 241.3 383.6 247.9 377.4 253.6C376.5 254.4 375.7 255.2 375 256C374.5 256.6 374 257.2 373.6 257.8C373.2 258.3 372.9 259.2 372.5 260.5C368.8 273.9 366.9 326.7 365.9 384.1C365.8 388.2 365.8 392.4 365.7 396.5C365.7 398.3 365.6 400.1 365.6 402C365.6 403.3 365.6 404.5 365.5 405.8C365.5 406.4 365.5 407.1 365.5 407.7C365.5 410.8 365.4 413.9 365.4 417C365.4 419.3 365.3 421.6 365.3 423.9C365.1 452.7 365 480.7 365.1 503.6Z" fill="#02B6D4"/>
<path d="M310.3 585.6C309.5 593.7 319.5 589.3 316.7 572.8C313.9 556.3 321.9 541.3 325.3 541.8C328.7 542.3 322.4 559.8 325.5 566.2C328.6 572.5 332.5 560.2 336.4 552.8C340.5 545.1 340.2 528.2 338.4 516.1C336.5 504 358.5 430.8 358.6 409.6L361.3 400.6L371.1 367.7L386.4 316.1C386.4 316.1 377.2 277.1 361.8 280.4C361.8 280.4 353.6 307.6 344.9 338.3C343.4 343.5 341.9 348.8 340.4 354.1C334.2 376.3 328.3 398.3 325.6 411.3C318.4 445.7 317.9 517.2 317.9 517.2C317.9 517.2 305.2 543.5 304.9 555.1C304.5 567.5 311 577.5 310.3 585.6Z" fill="#FFCAC1"/>
<path d="M340.3 354.1L361.2 400.6L371 367.7L344.7 338.3C343.3 343.5 341.8 348.8 340.3 354.1Z" fill="#DE7F84"/>
<path d="M339.3 340.2C348.5 355.9 357.8 371.5 367.1 387.2C370.2 377 373.3 367.1 376.3 358.1C376.3 358.1 376.3 358.1 376.3 358C377.5 354.4 378.7 350.9 379.8 347.6C379.8 347.5 379.8 347.5 379.9 347.4C380.3 346.2 380.7 345.1 381 344C385.4 330.6 388.9 320 389.9 313.8C392.6 297.1 385.3 264.4 375.1 257.9C374.8 258.5 374 256.7 373.6 257.8C371.8 261.9 363.9 272.1 359.9 282C359.4 283.3 358.9 284.6 358.4 285.9C352.7 300.5 345.7 319.4 339.3 340.2Z" fill="#0573B3"/>
<path d="M452.5 253.4C465.8 253.4 475.1 241.3 475.5 240.8C476.1 240.1 476 239 475.3 238.4C474.6 237.8 473.6 237.9 473 238.6C472.9 238.8 464.2 249.9 452.5 249.9C440.9 249.9 433.9 237.3 433.8 237.1C433.4 236.3 432.4 236 431.6 236.5C430.8 237 430.6 238 431 238.8C431.4 239.5 439.1 253.4 452.5 253.4Z" fill="#2063BD"/>
<path d="M508.6 368.9C508.8 368.9 509.1 368.8 509.3 368.7C510.1 368.3 510.4 367.2 510 366.4L504.2 354.2C503.8 353.4 502.8 353 502 353.4C501.2 353.8 500.9 354.9 501.3 355.7L507.1 367.9C507.5 368.6 508 368.9 508.6 368.9Z" fill="#2063BD"/>
<path d="M520.7 359C520.9 359.1 521.1 359.2 521.4 359.3C522.3 359.4 523.1 358.7 523.2 357.7L524.3 344.1C524.4 343.2 523.7 342.3 522.8 342.2C521.9 342.1 521.1 342.8 521 343.8L519.9 357.4C519.9 358 520.2 358.6 520.7 359Z" fill="#2063BD"/>
<path d="M489.6 337.9C490.4 337.9 491.1 337.3 491.2 336.5L493.3 323C493.4 322.1 492.9 321.2 492 321C491.1 320.8 490.3 321.5 490.1 322.4L488 335.9C487.9 336.8 488.5 337.7 489.3 337.9C489.4 337.9 489.5 337.9 489.6 337.9Z" fill="#2063BD"/>
<path d="M437.6 342.9C437.9 342.9 438.2 342.8 438.4 342.7C439.2 342.2 439.4 341.2 439 340.3L432.5 328.5C432 327.7 431.1 327.4 430.3 327.9C429.5 328.4 429.3 329.4 429.7 330.3L436.2 342.1C436.5 342.6 437.1 342.9 437.6 342.9Z" fill="#2063BD"/>
<path d="M501.5 290.2C501.8 290.2 502.1 290.1 502.4 289.9L513.2 282.5C513.9 282 514.2 280.9 513.7 280.1C513.2 279.3 512.2 279.1 511.5 279.6L500.7 287C500 287.5 499.7 288.6 500.2 289.4C500.4 289.9 500.9 290.2 501.5 290.2Z" fill="#2063BD"/>
<path d="M453.6 399.7C453.8 399.7 454.1 399.6 454.3 399.5C455.1 399.1 455.4 398 455 397.2L449.2 385C448.8 384.2 447.8 383.8 447 384.2C446.2 384.6 445.9 385.7 446.3 386.5L452.1 398.7C452.4 399.4 453 399.7 453.6 399.7Z" fill="#2063BD"/>
<path d="M479 299.4C479.5 299.4 480.1 299.1 480.4 298.6C480.9 297.8 480.6 296.7 479.9 296.2L469 289C468.2 288.5 467.2 288.7 466.8 289.5C466.3 290.3 466.6 291.4 467.3 291.9L478.2 299.1C478.4 299.3 478.7 299.4 479 299.4Z" fill="#2063BD"/>
<path d="M504.8 248.7C504.8 249 504.8 249.4 505 249.6C505.2 250.1 505.7 250.5 506.3 250.5C507.2 250.6 508 249.9 508 248.9L508.5 241.1C507.5 240.5 506.5 239.8 505.4 239.1L504.8 248.7Z" fill="#2063BD"/>
<path d="M519.3 323.5C519.8 323.5 520.4 323.2 520.7 322.7C521.2 321.9 520.9 320.8 520.2 320.3L509.3 313.1C508.5 312.6 507.5 312.8 507.1 313.6C506.6 314.4 506.9 315.5 507.6 316L518.5 323.2C518.7 323.4 519 323.5 519.3 323.5Z" fill="#2063BD"/>
<path d="M432.7 264C433 264 433.3 263.9 433.6 263.7C434.3 263.2 434.6 262.1 434.1 261.3L427.9 251.3C427.4 250.5 426.4 250.3 425.7 250.8C425 251.3 424.7 252.4 425.2 253.2L431.4 263.2C431.6 263.7 432.2 264 432.7 264Z" fill="#2063BD"/>
<path d="M427.1 437.1C427.5 437.1 427.9 436.9 428.3 436.6L437.2 426.7C437.8 426 437.8 424.9 437.2 424.3C436.6 423.6 435.5 423.7 434.9 424.3L426 434.2C425.4 434.9 425.4 436 426 436.6C426.3 436.9 426.7 437.1 427.1 437.1Z" fill="#2063BD"/>
<path d="M459.7 435C460.1 435 460.5 434.8 460.9 434.5L469.8 424.6C470.4 423.9 470.4 422.8 469.8 422.2C469.2 421.5 468.1 421.6 467.5 422.2L458.6 432.1C458 432.8 458 433.9 458.6 434.5C458.9 434.9 459.3 435 459.7 435Z" fill="#2063BD"/>
<path d="M483.2 501.6C483.3 501.2 483.3 500.7 483.1 500.3L477.6 488C477.2 487.1 476.3 486.8 475.4 487.2C474.6 487.6 474.3 488.6 474.6 489.5L480.1 501.8C480.5 502.7 481.4 503 482.3 502.6C482.7 502.4 483 502 483.2 501.6Z" fill="#2063BD"/>
<path d="M389.6 542.3C389.7 541.9 389.7 541.4 389.5 541L384 528.7C383.6 527.8 382.7 527.5 381.8 527.9C381 528.3 380.7 529.3 381 530.2L386.5 542.5C386.9 543.4 387.8 543.7 388.7 543.3C389.2 543 389.5 542.7 389.6 542.3Z" fill="#2063BD"/>
<path d="M429.8 562.7C430.9 562.8 432 562.8 433 562.9L434.1 555.2C434.2 554.3 433.6 553.4 432.8 553.2C431.9 553.1 431.1 553.7 431 554.6L429.8 562.7Z" fill="#2063BD"/>
<path d="M416.9 539.5C417.2 539.2 417.5 538.8 417.6 538.4L419.6 524.9C419.7 524 419.1 523.1 418.3 522.9C417.4 522.8 416.6 523.4 416.5 524.3L414.5 537.8C414.4 538.7 415 539.6 415.8 539.8C416.2 539.8 416.6 539.7 416.9 539.5Z" fill="#2063BD"/>
<path d="M494.8 426.6C495.1 426.6 495.4 426.5 495.6 426.4C496.4 425.9 496.6 424.9 496.2 424L489.8 412.2C489.4 411.4 488.4 411.1 487.6 411.6C486.8 412.1 486.6 413.1 487 414L493.4 425.8C493.7 426.3 494.2 426.6 494.8 426.6Z" fill="#2063BD"/>
<path d="M475.9 397.1C476.5 397.1 477 396.8 477.3 396.2L483.2 384.1C483.6 383.3 483.3 382.2 482.5 381.8C481.7 381.4 480.7 381.7 480.3 382.5L474.4 394.6C474 395.4 474.3 396.5 475.1 396.9C475.4 397 475.7 397.1 475.9 397.1Z" fill="#2063BD"/>
<path d="M527 395.3C527.2 395.5 527.4 395.7 527.6 395.8C528.1 396 528.8 396 529.3 395.5L535.9 389.6C535.9 388.1 535.8 386.7 535.8 385.2L527.2 392.9C526.5 393.5 526.4 394.6 527 395.3Z" fill="#2063BD"/>
<path d="M476 268.3C476.6 268.3 477.1 268 477.4 267.4L483.3 255.3C483.7 254.5 483.4 253.4 482.6 253C481.8 252.6 480.8 252.9 480.4 253.7L474.5 265.8C474.1 266.6 474.4 267.7 475.2 268.1C475.5 268.3 475.8 268.3 476 268.3Z" fill="#2063BD"/>
<path d="M438.4 312.8C438.5 312.8 438.6 312.8 438.7 312.8C439.6 312.6 440.1 311.7 440 310.8L437.6 297.4C437.4 296.5 436.6 295.9 435.7 296C434.8 296.2 434.3 297.1 434.4 298L436.8 311.4C437 312.2 437.6 312.8 438.4 312.8Z" fill="#2063BD"/>
<path d="M459.3 324.6C459.4 324.6 459.5 324.6 459.6 324.6C460.5 324.4 461 323.5 460.9 322.6L458.5 309.2C458.3 308.3 457.5 307.7 456.6 307.8C455.7 308 455.2 308.9 455.3 309.8L457.7 323.2C457.9 324 458.6 324.6 459.3 324.6Z" fill="#2063BD"/>
<path d="M444.3 280.3C444.8 280.3 445.4 280 445.7 279.5L452.6 268C453.1 267.2 452.9 266.1 452.1 265.6C451.3 265.1 450.3 265.3 449.9 266.1L443 277.6C442.5 278.4 442.7 279.5 443.5 280C443.7 280.2 444 280.3 444.3 280.3Z" fill="#2063BD"/>
<path d="M507.3 399.2C507.7 398.7 507.9 397.9 507.6 397.3L502.1 385C501.7 384.1 500.8 383.8 499.9 384.2C499.1 384.6 498.8 385.6 499.1 386.5L504.6 398.8C505 399.7 505.9 400 506.8 399.6C507 399.5 507.2 399.4 507.3 399.2Z" fill="#2063BD"/>
<path d="M465.8 363.5C466.4 363.5 467.1 363.1 467.3 362.4L472 349.7C472.3 348.8 471.9 347.8 471.1 347.5C470.3 347.2 469.3 347.6 469 348.5L464.3 361.2C464 362.1 464.4 363.1 465.2 363.4C465.4 363.4 465.6 363.5 465.8 363.5Z" fill="#2063BD"/>
<path d="M414.5 442C414.7 442 415 441.9 415.2 441.8C416 441.4 416.3 440.3 415.9 439.5L410.1 427.3C409.7 426.5 408.7 426.1 407.9 426.5C407.1 426.9 406.8 428 407.2 428.8L413 441C413.3 441.7 413.9 442 414.5 442Z" fill="#2063BD"/>
<path d="M499.5 529.6C499.5 529.9 499.6 530.1 499.7 530.4C500.1 531.2 501.1 531.6 501.9 531.1L513.3 524.8C514.1 524.4 514.4 523.3 514 522.5C513.6 521.7 512.6 521.3 511.8 521.8L500.4 528.1C499.8 528.4 499.5 529 499.5 529.6Z" fill="#2063BD"/>
<path d="M530.4 537.4C530.4 537.7 530.5 537.9 530.6 538.2C531 539 532 539.4 532.8 538.9L537.7 536.2C537.7 535 537.7 533.7 537.7 532.3L531.3 535.8C530.7 536.2 530.4 536.8 530.4 537.4Z" fill="#2063BD"/>
<path d="M482.6 552.6L486.5 561.5C487.2 561.4 487.9 561.3 488.6 561.3C489 561.2 489.4 561.2 489.9 561.1L485.5 551.2C485.1 550.3 484.2 550 483.4 550.4C482.5 550.7 482.2 551.7 482.6 552.6Z" fill="#2063BD"/>
<path d="M393.5 410.9C394.3 410.9 395 410.3 395.1 409.5L397.2 396C397.3 395.1 396.8 394.2 395.9 394C395 393.8 394.2 394.5 394 395.4L391.9 408.9C391.8 409.8 392.4 410.7 393.2 410.9C393.3 410.9 393.4 410.9 393.5 410.9Z" fill="#2063BD"/>
<path d="M392.2 311.5C392.5 311.5 392.8 311.4 393 311.3C393.8 310.8 394 309.8 393.6 308.9L387.1 297.1C386.6 296.3 385.7 296 384.9 296.5C384.1 297 383.9 298 384.3 298.9L390.8 310.7C391.1 311.2 391.6 311.5 392.2 311.5Z" fill="#2063BD"/>
<path d="M413.1 359.3C413.4 359.3 413.7 359.2 414 359L424.8 351.6C425.5 351.1 425.8 350 425.3 349.2C424.8 348.4 423.8 348.2 423.1 348.7L412.3 356.1C411.6 356.6 411.3 357.7 411.8 358.5C412.1 359 412.6 359.3 413.1 359.3Z" fill="#2063BD"/>
<path d="M527 439.4C527.2 439.4 527.5 439.3 527.7 439.2C528.5 438.8 528.8 437.7 528.4 436.9L522.6 424.7C522.2 423.9 521.2 423.5 520.4 423.9C519.6 424.3 519.3 425.4 519.7 426.2L525.5 438.4C525.9 439.1 526.4 439.4 527 439.4Z" fill="#2063BD"/>
<path d="M394.8 377.8C395.3 377.8 395.9 377.5 396.2 377C396.7 376.2 396.4 375.1 395.7 374.6L384.8 367.4C384 366.9 383 367.1 382.6 367.9C382.1 368.7 382.4 369.8 383.1 370.3L394 377.5C394.2 377.7 394.5 377.8 394.8 377.8Z" fill="#2063BD"/>
<path d="M420.8 395C421.2 395.4 421.8 395.6 422.3 395.4C423.2 395.2 423.7 394.2 423.4 393.3L420 380.1C419.8 379.2 418.9 378.6 418 378.9C417.1 379.1 416.6 380.1 416.9 381L420.3 394.2C420.5 394.5 420.6 394.8 420.8 395Z" fill="#2063BD"/>
<path d="M375 255.9L377.8 260.4C378.1 260.9 378.6 261.2 379.2 261.2C379.5 261.2 379.8 261.1 380.1 260.9C380.8 260.4 381.1 259.3 380.6 258.5L377.5 253.4C376.5 254.3 375.7 255.1 375 255.9Z" fill="#2063BD"/>
<path d="M362.7 285.9L365.7 290.7C366 291.2 366.5 291.5 367.1 291.5C367.4 291.5 367.7 291.4 368 291.2C368.7 290.7 368.9 289.6 368.5 288.8L364.3 281.9C363.7 283.2 363.2 284.5 362.7 285.9Z" fill="#2063BD"/>
<path d="M502.4 482C502.8 482 503.2 481.8 503.6 481.5L512.5 471.6C513.1 470.9 513.1 469.8 512.5 469.2C511.9 468.5 510.8 468.6 510.2 469.2L501.3 479.1C500.7 479.8 500.7 480.9 501.3 481.5C501.6 481.8 502 482 502.4 482Z" fill="#2063BD"/>
<path d="M443.3 516.4C443.7 516.4 444.1 516.2 444.5 515.9L453.4 506C454 505.3 454 504.2 453.4 503.6C452.8 502.9 451.7 503 451.1 503.6L442.2 513.5C441.6 514.2 441.6 515.3 442.2 515.9C442.5 516.2 442.9 516.4 443.3 516.4Z" fill="#2063BD"/>
<path d="M426.9 502.7C427.2 502.3 427.3 501.9 427.2 501.4L425.6 487.8C425.5 486.9 424.7 486.2 423.8 486.3C422.9 486.4 422.3 487.3 422.4 488.2L424 501.8C424.1 502.7 424.9 503.4 425.8 503.3C426.3 503.3 426.7 503 426.9 502.7Z" fill="#2063BD"/>
<path d="M460.5 540.9C460.9 540.9 461.3 540.7 461.7 540.4L470.6 530.5C471.2 529.8 471.2 528.7 470.6 528.1C470 527.4 468.9 527.5 468.3 528.1L459.4 538C458.8 538.7 458.8 539.8 459.4 540.4C459.7 540.8 460.1 540.9 460.5 540.9Z" fill="#2063BD"/>
<path d="M365.1 503.6C365.1 504.8 365.1 505.9 365.1 507.1L375.1 508C376 508.1 376.8 507.4 376.8 506.4C376.9 505.5 376.2 504.6 375.3 504.5L365.1 503.6Z" fill="#2063BD"/>
<path d="M482.3 461.2C482.7 461.2 483.1 461 483.5 460.7L492.4 450.8C493 450.1 493 449 492.4 448.4C491.8 447.7 490.7 447.8 490.1 448.4L481.2 458.3C480.6 459 480.6 460.1 481.2 460.7C481.5 461.1 481.9 461.2 482.3 461.2Z" fill="#2063BD"/>
<path d="M439.6 457C439.6 457.5 439.8 457.9 440.2 458.2L450 467C450.7 467.6 451.7 467.5 452.3 466.8C452.9 466.1 452.8 465 452.1 464.4L442.3 455.6C441.6 455 440.6 455.1 440 455.8C439.7 456.1 439.6 456.5 439.6 457Z" fill="#2063BD"/>
<path d="M392.9 505.3C393.2 505.3 393.5 505.2 393.7 505.1C394.5 504.6 394.7 503.6 394.3 502.7L387.9 490.9C387.5 490.1 386.5 489.8 385.7 490.3C384.9 490.8 384.7 491.8 385.1 492.7L391.5 504.5C391.8 505 392.4 505.3 392.9 505.3Z" fill="#2063BD"/>
<path d="M381.8 470.2C382.4 470.2 382.9 469.9 383.2 469.3L389.1 457.2C389.5 456.4 389.2 455.3 388.4 454.9C387.6 454.5 386.6 454.8 386.2 455.6L380.3 467.7C379.9 468.5 380.2 469.6 381 470C381.3 470.1 381.6 470.2 381.8 470.2Z" fill="#2063BD"/>
<path d="M399.3 332.4C399.9 332.4 400.4 332.1 400.7 331.5L406.6 319.4C407 318.6 406.7 317.5 405.9 317.1C405.1 316.7 404.1 317 403.7 317.8L397.8 329.9C397.4 330.7 397.7 331.8 398.5 332.2C398.8 332.3 399.1 332.4 399.3 332.4Z" fill="#2063BD"/>
<path d="M392.9 281.4C393 281.4 393.1 281.4 393.2 281.4C394.1 281.2 394.6 280.3 394.5 279.4L392.1 266C391.9 265.1 391.1 264.5 390.2 264.6C389.3 264.8 388.8 265.7 388.9 266.6L391.3 280C391.5 280.8 392.2 281.4 392.9 281.4Z" fill="#2063BD"/>
<path d="M363.4 327.7C363.5 327.7 363.6 327.7 363.7 327.7C364.6 327.5 365.1 326.6 365 325.7L362.6 312.3C362.4 311.4 361.6 310.8 360.7 310.9C359.8 311.1 359.3 312 359.4 312.9L361.8 326.3C362 327.1 362.7 327.7 363.4 327.7Z" fill="#2063BD"/>
<path d="M413.9 293.2C414 293.2 414.1 293.2 414.2 293.2C415.1 293 415.6 292.1 415.5 291.2L413.1 277.8C412.9 276.9 412.1 276.3 411.2 276.4C410.3 276.6 409.8 277.5 409.9 278.4L412.3 291.8C412.4 292.6 413.1 293.2 413.9 293.2Z" fill="#2063BD"/>
<path d="M404.3 246.5C404.6 246.6 404.9 246.6 405.2 246.4C405.7 246.2 406.1 245.8 406.2 245.2L408.9 232.9C407.6 233.6 406.4 234.3 405.1 235.1L403 244.5C402.9 245.3 403.4 246.3 404.3 246.5Z" fill="#2063BD"/>
<path d="M367.3 348.4C367.8 348.4 368.4 348.1 368.7 347.6L375.6 336.1C376.1 335.3 375.9 334.2 375.1 333.7C374.3 333.2 373.3 333.4 372.9 334.2L366 345.7C365.5 346.5 365.7 347.6 366.5 348.1C366.7 348.3 367 348.4 367.3 348.4Z" fill="#2063BD"/>
<path d="M413.2 472.3C413.6 471.8 413.8 471 413.5 470.4L408 458.1C407.6 457.2 406.7 456.9 405.8 457.3C405 457.7 404.7 458.7 405 459.6L410.5 471.9C410.9 472.8 411.8 473.1 412.7 472.7C412.9 472.6 413 472.5 413.2 472.3Z" fill="#2063BD"/>
<path d="M526.7 495.5L537.5 497.4C537.5 496.2 537.5 495.1 537.5 493.9L527.3 492.1C526.4 492 525.6 492.6 525.5 493.5C525.2 494.4 525.8 495.3 526.7 495.5Z" fill="#2063BD"/>
<path d="M530 464L537.2 465.2C537.2 464 537.2 462.9 537.2 461.7L530.6 460.6C529.7 460.4 528.9 461.1 528.8 462C528.5 462.9 529.1 463.8 530 464Z" fill="#2063BD"/>
<path d="M371.7 436.5C372.3 436.5 373 436.1 373.2 435.4L377.9 422.7C378.2 421.8 377.8 420.8 377 420.5C376.2 420.2 375.2 420.6 374.9 421.5L370.2 434.2C369.9 435.1 370.3 436.1 371.1 436.4C371.3 436.5 371.5 436.5 371.7 436.5Z" fill="#2063BD"/>
<path d="M365.7 396.4C368.7 383.9 372.5 370 376.3 358.1C376.3 358.1 376.3 358.1 376.3 358C377.5 354.3 378.6 350.8 379.8 347.6C379.8 347.5 379.8 347.5 379.9 347.4C380.3 346.4 380.6 345.4 381 344.4C381.1 344.2 381.1 344.1 381.1 343.9C381.1 343.3 380.7 342.8 380.2 342.6C379.5 342.3 378.6 342.7 378.4 343.5C374.5 354 370 369.2 366 384C365.8 388.1 365.8 392.3 365.7 396.4Z" fill="#2063BD"/>
<path d="M412 155.4C412 155.4 400.8 143 405 128.7C409.2 114.3 420.8 114.5 420.8 114.5C420.8 114.5 427.6 99.1999 439.1 98.6999C450.6 98.1999 461.5 77.8 472 83.3C482.5 88.8 470.9 100.9 470.9 100.9C470.9 100.9 488.9 82 494.8 87.5C500.7 93 486.6 107.9 486.6 107.9C486.6 107.9 501.7 97.3 506.7 101.3C511.7 105.3 494.9 122.7 494.9 122.7C494.9 122.7 505.8 142.2 494.8 151L412 155.4Z" fill="#364A57"/>
<path d="M490.5 159.5C490.5 159.5 497.7 149.9 503 157.8C508.3 165.7 500.8 189 487.7 183.3L490.5 159.5Z" fill="#FFCAC1"/>
<path d="M490.6 176.2C491.1 176.2 491.5 175.9 491.7 175.4C493.7 168.2 501.2 165.3 501.3 165.2C501.9 165 502.2 164.3 501.9 163.8C501.7 163.2 501 162.9 500.5 163.2C500.2 163.3 491.9 166.5 489.6 174.8C489.4 175.4 489.8 176 490.4 176.2C490.4 176.2 490.5 176.2 490.6 176.2Z" fill="#DE7F84"/>
<path d="M498.2 172.5C498.4 172.5 498.6 172.4 498.8 172.3C499.3 172 499.5 171.3 499.1 170.8C499 170.7 497.7 168.7 494.9 167.5C494.3 167.3 493.7 167.5 493.4 168.1C493.2 168.7 493.4 169.3 494 169.6C496.1 170.6 497.2 172.1 497.2 172.1C497.5 172.4 497.8 172.5 498.2 172.5Z" fill="#DE7F84"/>
<path d="M416.5 159.5C416.5 159.5 409.3 149.9 404 157.8C398.7 165.7 406.2 189 419.3 183.3L416.5 159.5Z" fill="#FFCAC1"/>
<path d="M416.4 176.2C415.9 176.2 415.5 175.9 415.3 175.4C413.3 168.2 405.8 165.3 405.7 165.2C405.1 165 404.8 164.3 405.1 163.8C405.3 163.2 406 162.9 406.5 163.2C406.8 163.3 415.1 166.5 417.4 174.8C417.6 175.4 417.2 176 416.6 176.2C416.6 176.2 416.5 176.2 416.4 176.2Z" fill="#DE7F84"/>
<path d="M408.8 172.5C408.6 172.5 408.4 172.4 408.2 172.3C407.7 172 407.5 171.3 407.9 170.8C408 170.7 409.3 168.7 412 167.5C412.6 167.3 413.2 167.5 413.5 168.1C413.7 168.7 413.5 169.3 412.9 169.6C410.8 170.6 409.7 172.1 409.7 172.1C409.5 172.4 409.2 172.5 408.8 172.5Z" fill="#DE7F84"/>
<path d="M435.8 203.2V226.4C435.8 226.4 442.7 238.2 452.1 239C461.5 239.8 469.8 228.8 469.8 228.8V204.8L435.8 203.2Z" fill="#FFCAC1"/>
<path d="M435.8 203.2V213.5C442.1 220.5 453.3 222.2 469.8 219.8V204.9L435.8 203.2Z" fill="#DE7F84"/>
<path d="M411.3 143.6C411.7 152.6 412.6 163.9 414.3 172.9V173C414.7 175.2 415.2 177.3 415.7 179.1C416 180.2 416.4 181.3 416.7 182.5C422.2 199.8 435 224.7 467.1 213.3C480.6 208.5 487.7 194.6 491.3 179.5C491.5 178.6 491.7 177.7 491.9 176.8C492 176.2 492.1 175.7 492.2 175.1L492.4 174.3C492.4 174.2 492.4 174.1 492.5 174V173.9C494.6 162.3 494.9 150.5 494.8 142.1C494.6 133.5 489.9 125.7 482.5 121.5C462.3 110.1 440.9 114.3 426.8 119.7C417 123.6 410.8 133.2 411.3 143.6Z" fill="#FFCAC1"/>
<path d="M414.3 172.9C414.3 173 414.3 173 414.3 173C414.5 173.8 415.6 177.9 416.8 182.5C422.3 199.8 435.1 224.7 467.2 213.3C480.7 208.5 487.8 194.6 491.4 179.5C491.6 178.6 491.8 177.7 492 176.8C492.1 176.2 492.2 175.7 492.3 175.1L492.5 174.3C492.5 174.2 492.5 174.1 492.6 174V173.9L487.9 172.9C487 177.4 485 181.6 482.5 185.3C478.5 175.8 458.2 182.1 458.2 182.1H458.1C456.9 182.5 455.6 182.7 454.3 182.7C453 182.7 451.7 182.5 450.4 182.1C450.4 182.1 430.4 175.5 426.2 184.6C422 178.2 419.2 172.4 419.2 172.4L414.3 172.9ZM454.2 186.6C477.1 183.5 473.5 195.8 473.5 195.8C471 198.1 468.6 199.8 467.1 200.7C462.1 203.5 457.2 204.5 453.6 204.4C450.1 204.3 449.1 205 440.2 200.2C438.6 199.4 437 198.1 435.5 196.6C435.1 194.2 431.2 182.7 454.2 186.6Z" fill="#364A57"/>
<path d="M433.4 160.4C433.4 162.9 434.7 164.9 436.3 164.9C437.9 164.9 439.2 162.9 439.2 160.4C439.2 157.9 437.9 155.9 436.3 155.9C434.7 155.9 433.4 157.9 433.4 160.4Z" fill="#364A57"/>
<path d="M469.2 160.4C469.2 162.9 470.5 164.9 472.1 164.9C473.7 164.9 475 162.9 475 160.4C475 157.9 473.7 155.9 472.1 155.9C470.5 155.9 469.2 157.9 469.2 160.4Z" fill="#364A57"/>
<path d="M426.1 145.2C426.1 145.2 437.9 140.5 447 144.5L446.1 149.5C446.1 149.5 432.7 148.4 426 151.1C425.4 149.2 425.3 147.2 426.1 145.2Z" fill="#364A57"/>
<path d="M482.3 145.3C482.3 145.3 470.4 140.6 461.2 144.6L462.1 149.7C462.1 149.7 475.6 148.6 482.3 151.3C483 149.2 483.1 147.3 482.3 145.3Z" fill="#364A57"/>
<path d="M453.1 180.4C451.2 180.4 449.4 179.7 449.1 179.6C448.5 179.4 448.3 178.7 448.5 178.2C448.7 177.6 449.4 177.4 449.9 177.6C450.9 178 453.3 178.6 454.3 178C454.5 177.9 454.8 177.6 454.8 177C455.2 173.1 454.1 160.2 454.1 160.1C454 159.5 454.5 159 455.1 158.9C455.7 158.8 456.2 159.3 456.3 159.9C456.3 160.4 457.4 173.1 457 177.2C456.8 178.7 456 179.5 455.4 179.9C454.8 180.3 454 180.4 453.1 180.4Z" fill="#DE7F84"/>
<path d="M467.2 188.8C466.4 193 463.6 200.8 454.2 200.8C444.8 200.8 442.1 193.7 441.2 188.8H467.2Z" fill="white"/>
<path d="M411.3 143.6C411.7 152.6 412.6 163.9 414.3 172.9L419.2 172.6C419.2 172.6 418 165 417.4 160C416.8 155 415.9 145.8 420.2 144.6C424.4 143.5 421.9 132.9 427.8 128.3C433.7 123.7 446.9 122.4 455.6 127.8C464.3 133.1 474.1 127.4 478.1 128.3C482.1 129.2 487.6 134.7 486.1 139.9C484.6 145 489 148.2 490.1 153.5C491.2 158.8 487.7 173.2 487.7 173.2L492.4 174.1C494.5 162.5 494.8 150.7 494.7 142.4C494.5 133.8 489.8 126 482.4 121.8C462.2 110.4 440.8 114.6 426.7 120C417 123.6 410.8 133.2 411.3 143.6Z" fill="#364A57"/>
<path d="M614.7 391.9C611.7 419.2 593.8 480.3 581.4 492.2C565.3 507.8 512.2 540.6 484.5 557.4C479.5 560.4 502.9 580.6 502.9 580.6C502.9 580.6 576.3 549.3 604.4 524.6C612.3 517.6 628.4 495.6 646.6 453.6C652.1 440.9 665.5 415.2 664.8 398.5C664.1 379.3 633.4 382.5 614.7 391.9Z" fill="url(#paint21_linear)"/>
<path d="M557.4 548.9C557.4 548.9 537.4 556.5 530.3 564.8C523.2 573.1 513.9 580.2 516.1 583.5C518.4 586.8 528.7 577.2 528.7 577.2C528.7 577.2 531.5 587.7 541.6 588.9C551.7 590 570.7 570.4 570.7 570.4L557.4 548.9Z" fill="#FFCAC1"/>
<path d="M754.6 468.2C754.6 469.9 754.6 472 754.6 474.3C754.6 476.6 754.5 479.2 754.4 482C754.3 483.9 754.3 486 754.2 488.1C754.1 489.9 754.1 491.8 754 493.7C753.9 495.7 753.8 497.7 753.7 499.8C752.3 528.4 748.9 567.9 741.6 599.6H586.2C591.4 576.6 599.3 540.3 605.6 493.1C605.9 491.1 606.1 489.1 606.4 487.1C606.7 485.1 606.9 483 607.2 481C607.3 479.9 607.5 478.8 607.6 477.7C607.7 476.8 607.8 475.9 607.9 475C608.2 472.5 608.5 470 608.7 467.5C608.9 465.5 609.1 463.4 609.3 461.5C612 429.8 611 406.1 614.9 391.9C619.4 375.3 671.4 356.4 671.4 356.4L704 358.1C704 358.1 735.1 368.2 751.7 382.7C768.3 397.2 754.4 440.6 754.8 465.2C754.6 466.1 754.6 467.1 754.6 468.2Z" fill="#87DBF4"/>
<path d="M754.6 474.3C740.5 476 725.7 476.7 711.3 476.7C663.9 476.7 619.5 469.5 608.7 467.6C608.9 465.6 609.1 463.5 609.3 461.6C621.8 463.8 694.2 475.7 754.7 468.3C754.6 469.9 754.6 472 754.6 474.3Z" fill="#D5EAF8"/>
<path d="M754.4 482C754.3 483.9 754.3 486 754.2 488.1C740.2 489.8 725.6 490.4 711.2 490.4C661.2 490.4 614.4 482.3 607.1 481C607.2 479.9 607.4 478.8 607.5 477.7C607.6 476.8 607.7 475.9 607.8 475C615.1 476.4 691.2 489.8 754.4 482Z" fill="#D5EAF8"/>
<path d="M754 493.7C753.9 495.7 753.8 497.7 753.7 499.8C739.1 501.6 723.8 502.4 708.8 502.4C660.4 502.4 615 494.9 605.5 493.2C605.8 491.2 606 489.2 606.3 487.2C617.6 489.2 692.4 501.8 754 493.7Z" fill="#D5EAF8"/>
<path d="M680.6 387.5C696.8 387.5 711.7 370.3 712.4 369.6C712.8 369.1 712.8 368.4 712.3 368C711.8 367.6 711.1 367.6 710.7 368.1C710.5 368.3 694.9 386.3 679.2 385.2C678.6 385.2 678 385.6 678 386.3C678 386.9 678.4 387.5 679.1 387.5C679.6 387.5 680.1 387.5 680.6 387.5Z" fill="url(#paint22_linear)"/>
<path d="M694.6 580.6C695.2 580.6 695.7 580.2 695.7 579.6C695.8 579 695.3 578.4 694.7 578.3C652.9 573.5 635.5 501.3 635.4 500.6C635.3 500 634.6 499.6 634 499.7C633.4 499.8 633 500.5 633.1 501.1C633.8 504.1 651 575.6 694.4 580.6C694.6 580.6 694.6 580.6 694.6 580.6Z" fill="url(#paint23_linear)"/>
<path d="M678 558.7C678.4 558.7 678.8 558.5 679 558.2C679.3 557.7 679.2 557 678.6 556.6C656.3 542.9 653 522.8 653 522.6C652.9 522 652.3 521.5 651.7 521.6C651.1 521.7 650.6 522.3 650.7 522.9C650.8 523.8 654.2 544.3 677.4 558.5C677.6 558.6 677.8 558.7 678 558.7Z" fill="url(#paint24_linear)"/>
<path d="M691 327C716.295 327 736.8 306.539 736.8 281.3C736.8 256.061 716.295 235.6 691 235.6C665.705 235.6 645.2 256.061 645.2 281.3C645.2 306.539 665.705 327 691 327Z" fill="#364A57"/>
<path d="M645.9 273.1C645.9 273.1 632.9 269.5 634.6 257C636.1 246.3 648.7 253.2 647.5 244.9C646.4 236.5 643.9 228.9 654.8 226.9C664.3 225.1 664.4 231.6 676.9 222.2C691.6 211.1 702.9 236.8 716 237.6C735.4 238.7 737.8 249.7 739.7 258.4C741.6 267.1 734.1 273.3 734.1 273.3H645.9V273.1Z" fill="#364A57"/>
<path d="M652.8 294.1C652.8 294.1 645.5 284.4 640.1 292.4C634.7 300.4 642.3 324 655.6 318.2L652.8 294.1Z" fill="#FFCAC1"/>
<path d="M652.7 310.9C652.2 310.9 651.8 310.6 651.6 310.1C649.6 302.8 642 299.9 641.9 299.8C641.3 299.6 641 298.9 641.3 298.4C641.5 297.8 642.2 297.5 642.7 297.8C643.1 297.9 651.4 301.2 653.7 309.5C653.9 310.1 653.5 310.7 652.9 310.9C652.9 310.9 652.8 310.9 652.7 310.9Z" fill="#DE7F84"/>
<path d="M645.1 307.3C644.9 307.3 644.7 307.2 644.5 307.1C644 306.8 643.8 306.1 644.2 305.6C644.3 305.5 645.6 303.5 648.4 302.2C649 301.9 649.6 302.2 649.9 302.8C650.2 303.4 649.9 304 649.3 304.3C647.1 305.3 646.1 306.8 646.1 306.8C645.8 307.1 645.5 307.3 645.1 307.3Z" fill="#DE7F84"/>
<path d="M705.5 338.2V361.6C705.5 361.6 695.8 371.9 686.3 372.7C676.8 373.5 671.1 362.3 671.1 362.3V339.8L705.5 338.2Z" fill="#FFCAC1"/>
<path d="M705.5 338.2V348.6C699.1 355.6 687.8 357.4 671.1 354.9V339.8L705.5 338.2Z" fill="#DE7F84"/>
<path d="M730.3 278C729.9 287.1 729 298.5 727.3 307.6C726.9 309.9 726.4 312 725.8 313.9C720.9 331.2 708.5 360.8 673.8 348.5C658.5 343.1 651.4 326.1 648.2 308.8C646.1 297.1 645.7 285.2 645.9 276.7C646.1 268 650.8 260.1 658.4 255.9C678.9 244.3 700.4 248.7 714.6 254.1C724.5 257.8 730.8 267.5 730.3 278Z" fill="#FFCAC1"/>
<path d="M688.7 294.5V296.3C688.7 300 690.2 303.5 692.8 306.1C695.4 308.7 698.9 310.1 702.5 310.1H703C706.2 310 709.1 308.8 711.6 306.3C714.1 303.8 715.6 300.3 715.6 296.6V294.4C715.6 293.8 715.5 293.2 715.3 292.7C715.1 292 714.7 291.5 714.2 291C713.3 290.1 712.1 289.6 710.8 289.6H693.6C691.7 289.6 690 290.7 689.2 292.4C688.9 293 688.7 293.7 688.7 294.4C688.7 294.5 688.7 294.5 688.7 294.5ZM690.7 294.5C690.7 292.9 692 291.7 693.6 291.7H710.8C712.4 291.7 713.7 293 713.7 294.5V296.7C713.7 299.9 712.5 302.9 710.3 305C708.1 307.1 705.7 308.2 703.1 308.2H702.7C699.6 308.2 696.6 307 694.4 304.8C692.1 302.6 690.9 299.6 690.9 296.4V294.5H690.7Z" fill="#364A57"/>
<path d="M654.4 294.5V296.3C654.4 300 655.9 303.5 658.5 306.1C661.1 308.7 664.6 310.1 668.2 310.1H668.7C671.9 310 674.8 308.8 677.3 306.3C679.8 303.8 681.3 300.3 681.3 296.6V294.4V294.3C681.3 293.6 681.1 293 680.9 292.4C680.1 290.7 678.4 289.5 676.4 289.5H659.2C657.7 289.5 656.3 290.2 655.5 291.3C655.1 291.8 654.7 292.4 654.6 293.1C654.4 293.7 654.4 294.1 654.4 294.5ZM656.4 294.5C656.4 292.9 657.7 291.7 659.3 291.7H676.5C678.1 291.7 679.4 293 679.4 294.5V296.7C679.4 299.9 678.2 302.9 676 305C673.8 307.1 671.4 308.2 668.8 308.2H668.4C665.3 308.2 662.3 307 660.1 304.8C657.8 302.6 656.6 299.6 656.6 296.4V294.5H656.4Z" fill="#364A57"/>
<path d="M727.8 288.9C722 288.6 717.8 290.3 716.2 291.1C715.7 291.3 714.5 292.1 714.5 292.2L715.5 293.9C715.5 293.9 716.9 293.1 717.4 292.9C719 292.1 722.6 290.6 727.9 291V288.9H727.8Z" fill="#364A57"/>
<path d="M690.1 294.6L690.8 292.7C690.7 292.7 687.8 291.7 684.7 291.7C681.4 291.7 679.2 292.7 679.2 292.8L680.1 294.6C680.1 294.6 681.9 293.7 684.8 293.7C687.4 293.7 690 294.6 690.1 294.6Z" fill="#364A57"/>
<path d="M647.3 289.4V291.4C651.5 291.7 655.4 293.6 655.4 293.6L656.3 291.8C656.1 291.7 651.9 289.7 647.3 289.4Z" fill="#364A57"/>
<path d="M670.3 297.1C670.3 299.6 669 301.6 667.4 301.6C665.8 301.6 664.5 299.6 664.5 297.1C664.5 294.6 665.8 292.6 667.4 292.6C669 292.6 670.3 294.6 670.3 297.1Z" fill="#364A57"/>
<path d="M704.1 297.1C704.1 299.6 702.8 301.6 701.2 301.6C699.6 301.6 698.3 299.6 698.3 297.1C698.3 294.6 699.6 292.6 701.2 292.6C702.8 292.6 704.1 294.6 704.1 297.1Z" fill="#364A57"/>
<path d="M658 283.2C658 283.2 670 278.5 679.3 282.4L678.5 286.7C678.5 286.7 668.5 284.5 658.6 288.1C658 286.2 657.2 285.2 658 283.2Z" fill="#364A57"/>
<path d="M713 283.2C713 283.2 701 278.5 691.7 282.4L692.5 286.7C692.5 286.7 702.5 284.5 712.4 288.1C713 286.2 713.8 285.2 713 283.2Z" fill="#364A57"/>
<path d="M686.1 316.1C688 316.1 689.9 315.4 690.1 315.3C690.7 315.1 690.9 314.4 690.7 313.8C690.5 313.2 689.8 313 689.2 313.2C688.2 313.6 685.8 314.2 684.7 313.6C684.5 313.5 684.2 313.2 684.2 312.6C683.8 308.7 684.9 295.7 684.9 295.5C685 294.9 684.5 294.3 683.9 294.3C683.3 294.2 682.7 294.7 682.7 295.3C682.7 295.8 681.6 308.7 682 312.8C682.2 314.3 683 315.1 683.6 315.5C684.3 316 685.2 316.1 686.1 316.1Z" fill="#DE7F84"/>
<path d="M672.2 321.8C673.1 326.4 676.1 334.8 686.4 334.8C696.6 334.8 699.5 327.1 700.5 321.8H672.2Z" fill="white"/>
<path d="M686.2 340.6C689.1 340.6 691.5 339.1 691.6 339.1C692.1 338.8 692.3 338.1 692 337.6C691.7 337.1 691 336.9 690.5 337.2C690.5 337.2 688.5 338.4 686.2 338.4C684.1 338.4 682.2 337.2 682.1 337.2C681.6 336.9 680.9 337 680.6 337.6C680.3 338.1 680.4 338.8 681 339.1C681.1 339.1 683.5 340.6 686.2 340.6Z" fill="#DE7F84"/>
<path d="M651.7 301.5C650.9 296.9 650 291 650.6 287.9C651.7 282.5 656.2 279.4 654.7 274.2C653.2 269 658.7 263.4 662.8 262.5C666.8 261.6 676.3 263.6 685.6 259.2C694.5 255 709.9 258 712.5 263.7C715.5 270.6 711.4 271.2 719.7 278.7C723 281.7 719.1 289.4 718.5 294.4C718.2 296.7 718.2 297.8 718.3 300.3V301.6H728.3C729.4 293.8 730 285.3 730.4 278.1C730.9 267.6 724.6 257.9 714.7 254.2C700.5 248.8 678.9 244.4 658.5 256C651 260.3 646.2 268.2 646.1 276.8C646 283.5 646.2 292.4 647.3 301.6H651.7V301.5Z" fill="#364A57"/>
<path d="M723.8 305.8C723.8 303.2 724 300.6 724.4 298.1C725 294.6 726 291.4 729.6 290C732.5 288.8 735.6 288.8 737.8 292C743.2 300 737.2 324.8 724 319.1L723.8 305.8Z" fill="#FFCAC1"/>
<path d="M726.5 311.8C727 311.7 727.4 311.3 727.4 310.8C728 303.3 734.8 298.9 734.9 298.9C735.4 298.6 735.6 297.9 735.3 297.4C735 296.9 734.3 296.7 733.8 297C733.5 297.2 725.9 302 725.3 310.7C725.3 311.3 725.7 311.8 726.3 311.9C726.3 311.8 726.4 311.8 726.5 311.8Z" fill="#DE7F84"/>
<path d="M733.3 306.7C733.5 306.7 733.7 306.6 733.9 306.4C734.3 306 734.4 305.3 733.9 304.8C733.8 304.7 732.1 303 729.1 302.3C728.5 302.2 727.9 302.5 727.8 303.1C727.7 303.7 728 304.3 728.6 304.4C730.9 304.9 732.3 306.3 732.3 306.3C732.5 306.7 732.9 306.8 733.3 306.7Z" fill="#DE7F84"/>
<path d="M744.8 377.6C728.5 402.3 666 487.6 651.9 497.5C633.5 510.4 583.5 528.7 554.8 547.9C545 554.4 568.1 572.8 568.1 572.8C568.1 572.8 638.1 553.2 669.7 533.1C678.6 527.4 715.7 490.4 739.4 457.5C747.5 446.2 760.7 430.6 762.6 414C764.7 394.8 758.7 384.5 744.8 377.6Z" fill="url(#paint25_linear)"/>
<path d="M621.6 599.2H425.7C423.6 599.2 421.8 597.5 421.8 595.3V585C421.8 582.9 423.5 581.1 425.7 581.1H621.6C623.7 581.1 625.5 582.8 625.5 585V595.3C625.5 597.5 623.8 599.2 621.6 599.2Z" fill="#123C62"/>
<path d="M421.9 599.7L383.6 456.8C381.5 448.8 387.5 440.9 395.9 440.9H480.1C485.8 440.9 490.8 444.7 492.3 450.1L534.5 599.7H421.9Z" fill="url(#paint26_linear)"/>
<path d="M492.3 450.1L534.1 598.5H543.7L501.9 450.1C500.4 444.6 495.4 440.9 489.7 440.9H480.1C485.8 440.8 490.8 444.6 492.3 450.1Z" fill="#123C62"/>
<path d="M470.7 526.7C472.9 536.1 467 543.8 457.5 543.8C448 543.8 438.6 536.2 436.4 526.7C434.2 517.3 440.1 509.6 449.6 509.6C459 509.6 468.5 517.2 470.7 526.7Z" fill="white"/>
<path d="M731.7 73.3C724.6 73.3 718.8 67.6 718.8 60.5C718.8 53.4 724.6 47.7 731.7 47.7C738.8 47.7 744.6 53.4 744.6 60.5C744.5 67.5 738.8 73.3 731.7 73.3ZM731.7 51.7C726.8 51.7 722.9 55.6 722.9 60.5C722.9 65.4 726.9 69.3 731.7 69.3C736.6 69.3 740.5 65.4 740.5 60.5C740.5 55.6 736.5 51.7 731.7 51.7Z" fill="#E53B6E"/>
<path d="M777.9 118.2C770.8 118.2 765 112.5 765 105.4C765 98.2999 770.8 92.6001 777.9 92.6001C785 92.6001 790.8 98.2999 790.8 105.4C790.8 112.5 785 118.2 777.9 118.2ZM777.9 96.6001C773 96.6001 769.1 100.5 769.1 105.4C769.1 110.3 773.1 114.2 777.9 114.2C782.8 114.2 786.7 110.3 786.7 105.4C786.7 100.5 782.8 96.6001 777.9 96.6001Z" fill="#E53B6E"/>
<path d="M793.8 159.9C792.7 159.9 791.8 159 791.8 157.9V149C791.8 147.9 792.7 147 793.8 147C794.9 147 795.8 147.9 795.8 149V157.9C795.8 159 794.9 159.9 793.8 159.9Z" fill="#E53B6E"/>
<path d="M793.8 175.4C792.7 175.4 791.8 174.5 791.8 173.4V164.5C791.8 163.4 792.7 162.5 793.8 162.5C794.9 162.5 795.8 163.4 795.8 164.5V173.4C795.8 174.5 794.9 175.4 793.8 175.4Z" fill="#E53B6E"/>
<path d="M806.3 163.2H798.3C797.2 163.2 796.3 162.3 796.3 161.2C796.3 160.1 797.2 159.2 798.3 159.2H806.3C807.4 159.2 808.3 160.1 808.3 161.2C808.3 162.3 807.4 163.2 806.3 163.2Z" fill="#E53B6E"/>
<path d="M789.3 163.2H781.3C780.2 163.2 779.3 162.3 779.3 161.2C779.3 160.1 780.2 159.2 781.3 159.2H789.3C790.4 159.2 791.3 160.1 791.3 161.2C791.4 162.3 790.4 163.2 789.3 163.2Z" fill="#E53B6E"/>
<path d="M722.8 110.2C721.7 110.2 720.8 109.3 720.8 108.2V99.3C720.8 98.2 721.7 97.3 722.8 97.3C723.9 97.3 724.8 98.2 724.8 99.3V108.2C724.9 109.3 724 110.2 722.8 110.2Z" fill="#E53B6E"/>
<path d="M722.8 125.7C721.7 125.7 720.8 124.8 720.8 123.7V114.8C720.8 113.7 721.7 112.8 722.8 112.8C723.9 112.8 724.8 113.7 724.8 114.8V123.7C724.9 124.8 724 125.7 722.8 125.7Z" fill="#E53B6E"/>
<path d="M735.3 113.5H727.3C726.2 113.5 725.3 112.6 725.3 111.5C725.3 110.4 726.2 109.5 727.3 109.5H735.3C736.4 109.5 737.3 110.4 737.3 111.5C737.3 112.6 736.4 113.5 735.3 113.5Z" fill="#E53B6E"/>
<path d="M718.4 113.5H710.4C709.3 113.5 708.4 112.6 708.4 111.5C708.4 110.4 709.3 109.5 710.4 109.5H718.4C719.5 109.5 720.4 110.4 720.4 111.5C720.4 112.6 719.5 113.5 718.4 113.5Z" fill="#E53B6E"/>
<path d="M135.1 14.3999C135.1 7.2999 140.9 1.6001 148 1.6001C155.1 1.6001 160.9 7.2999 160.9 14.3999C160.9 21.4999 155.1 27.2 148 27.2C140.9 27.3 135.1 21.4999 135.1 14.3999ZM139.1 14.3999C139.1 19.1999 143.1 23.2 147.9 23.2C152.7 23.2 156.7 19.2999 156.7 14.3999C156.7 9.5999 152.7 5.6001 147.9 5.6001C143.1 5.6001 139.1 9.5999 139.1 14.3999Z" fill="#E53B6E"/>
<path d="M83.5 63.3C83.5 56.2 89.3 50.5 96.4 50.5C103.5 50.5 109.3 56.2 109.3 63.3C109.3 70.4 103.5 76.1001 96.4 76.1001C89.2 76.1001 83.5 70.4 83.5 63.3ZM87.5 63.3C87.5 68.1 91.5 72.1001 96.3 72.1001C101.2 72.1001 105.1 68.2 105.1 63.3C105.1 58.4 101.1 54.5 96.3 54.5C91.5 54.5 87.5 58.4 87.5 63.3Z" fill="#E53B6E"/>
<path d="M56.7001 81.3C57.8001 81.3 58.7001 80.4 58.7001 79.3V70.3999C58.7001 69.2999 57.8001 68.3999 56.7001 68.3999C55.6001 68.3999 54.7001 69.2999 54.7001 70.3999V79.3C54.7001 80.4 55.6001 81.3 56.7001 81.3Z" fill="#E53B6E"/>
<path d="M56.7001 96.8C57.8001 96.8 58.7001 95.9 58.7001 94.8V85.8999C58.7001 84.7999 57.8001 83.8999 56.7001 83.8999C55.6001 83.8999 54.7001 84.7999 54.7001 85.8999V94.8C54.7001 95.9 55.6001 96.8 56.7001 96.8Z" fill="#E53B6E"/>
<path d="M44.3 84.6001H52.3C53.4 84.6001 54.3 83.7001 54.3 82.6001C54.3 81.5001 53.4 80.6001 52.3 80.6001H44.3C43.2 80.6001 42.3 81.5001 42.3 82.6001C42.3 83.7001 43.1 84.6001 44.3 84.6001Z" fill="#E53B6E"/>
<path d="M61.2001 84.6001H69.2001C70.3001 84.6001 71.2001 83.7001 71.2001 82.6001C71.2001 81.5001 70.3001 80.6001 69.2001 80.6001H61.2001C60.1001 80.6001 59.2001 81.5001 59.2001 82.6001C59.2001 83.7001 60.1001 84.6001 61.2001 84.6001Z" fill="#E53B6E"/>
<path d="M103.2 13.1001C104.3 13.1001 105.2 12.2001 105.2 11.1001V2.19995C105.2 1.09995 104.3 0.199951 103.2 0.199951C102.1 0.199951 101.2 1.09995 101.2 2.19995V11.1001C101.2 12.2001 102.1 13.1001 103.2 13.1001Z" fill="#E53B6E"/>
<path d="M103.2 28.6001C104.3 28.6001 105.2 27.7001 105.2 26.6001V17.7C105.2 16.6 104.3 15.7 103.2 15.7C102.1 15.7 101.2 16.6 101.2 17.7V26.6001C101.2 27.7001 102.1 28.6001 103.2 28.6001Z" fill="#E53B6E"/>
<path d="M90.7001 16.3999H98.7001C99.8001 16.3999 100.7 15.4999 100.7 14.3999C100.7 13.2999 99.8001 12.3999 98.7001 12.3999H90.7001C89.6001 12.3999 88.7001 13.2999 88.7001 14.3999C88.7001 15.4999 89.6001 16.3999 90.7001 16.3999Z" fill="#E53B6E"/>
<path d="M107.7 16.3999H115.7C116.8 16.3999 117.7 15.4999 117.7 14.3999C117.7 13.2999 116.8 12.3999 115.7 12.3999H107.7C106.6 12.3999 105.7 13.2999 105.7 14.3999C105.7 15.4999 106.6 16.3999 107.7 16.3999Z" fill="#E53B6E"/>
<path d="M631 28V67C631 72.2 626.8 76.3 621.6 76.3H550.5L529 84C526.8 84.8 524.7 82.6 525.5 80.5L533.6 59.6001V28C533.6 22.8 537.8 18.7 543 18.7H621.5C626.8 18.7 631 22.9 631 28Z" fill="#87DBF4"/>
<path d="M616 39.1001H550.8C549.4 39.1001 548.2 37.9 548.2 36.5C548.2 35.1 549.4 33.8999 550.8 33.8999H616C617.4 33.8999 618.6 35.1 618.6 36.5C618.6 37.9 617.4 39.1001 616 39.1001Z" fill="white"/>
<path d="M616 49.5H550.8C549.4 49.5 548.2 48.2999 548.2 46.8999C548.2 45.4999 549.4 44.3 550.8 44.3H616C617.4 44.3 618.6 45.4999 618.6 46.8999C618.6 48.2999 617.4 49.5 616 49.5Z" fill="white"/>
<path d="M616 59.8999H550.8C549.4 59.8999 548.2 58.7 548.2 57.3C548.2 55.9 549.4 54.7 550.8 54.7H616C617.4 54.7 618.6 55.9 618.6 57.3C618.6 58.7 617.4 59.8999 616 59.8999Z" fill="white"/>
<path d="M840.6 614.3V615.7C840.6 623.7 834.1 630.3 826 630.3H67.9C59.8 630.3 53.3 623.8 53.3 615.7V614.3C53.3 606.3 59.8 599.7 67.9 599.7H826C834.1 599.7 840.6 606.2 840.6 614.3Z" fill="#0573B3"/>
<path d="M840.6 614.3V615H53.3V614.3C53.3 606.3 59.8 599.7 67.9 599.7H826C834.1 599.7 840.6 606.2 840.6 614.3Z" fill="#02B6D4"/>
<defs>
<linearGradient id="paint0_linear" x1="276.085" y1="338.465" x2="414.615" y2="338.465" gradientUnits="userSpaceOnUse">
<stop stop-color="#0573B3"/>
<stop offset="0.9912" stop-color="#02B6D4"/>
</linearGradient>
<linearGradient id="paint1_linear" x1="65.3323" y1="243.483" x2="182.256" y2="243.483" gradientUnits="userSpaceOnUse">
<stop stop-color="#0573B3"/>
<stop offset="0.9912" stop-color="#02B6D4"/>
</linearGradient>
<linearGradient id="paint2_linear" x1="177.481" y1="262.193" x2="188.908" y2="262.193" gradientUnits="userSpaceOnUse">
<stop stop-color="#0573B3"/>
<stop offset="0.9912" stop-color="#02B6D4"/>
</linearGradient>
<linearGradient id="paint3_linear" x1="166.037" y1="289.986" x2="177.464" y2="289.986" gradientUnits="userSpaceOnUse">
<stop stop-color="#0573B3"/>
<stop offset="0.9912" stop-color="#02B6D4"/>
</linearGradient>
<linearGradient id="paint4_linear" x1="202.518" y1="303.124" x2="213.944" y2="303.124" gradientUnits="userSpaceOnUse">
<stop stop-color="#0573B3"/>
<stop offset="0.9912" stop-color="#02B6D4"/>
</linearGradient>
<linearGradient id="paint5_linear" x1="177.48" y1="320.775" x2="188.909" y2="320.775" gradientUnits="userSpaceOnUse">
<stop stop-color="#0573B3"/>
<stop offset="0.9912" stop-color="#02B6D4"/>
</linearGradient>
<linearGradient id="paint6_linear" x1="226.6" y1="329.182" x2="238.027" y2="329.182" gradientUnits="userSpaceOnUse">
<stop stop-color="#0573B3"/>
<stop offset="0.9912" stop-color="#02B6D4"/>
</linearGradient>
<linearGradient id="paint7_linear" x1="263.04" y1="340.919" x2="274.466" y2="340.919" gradientUnits="userSpaceOnUse">
<stop stop-color="#0573B3"/>
<stop offset="0.9912" stop-color="#02B6D4"/>
</linearGradient>
<linearGradient id="paint8_linear" x1="270.372" y1="267.889" x2="281.798" y2="267.889" gradientUnits="userSpaceOnUse">
<stop stop-color="#0573B3"/>
<stop offset="0.9912" stop-color="#02B6D4"/>
</linearGradient>
<linearGradient id="paint9_linear" x1="228.912" y1="365.556" x2="240.338" y2="365.556" gradientUnits="userSpaceOnUse">
<stop stop-color="#0573B3"/>
<stop offset="0.9912" stop-color="#02B6D4"/>
</linearGradient>
<linearGradient id="paint10_linear" x1="193.714" y1="383.217" x2="205.14" y2="383.217" gradientUnits="userSpaceOnUse">
<stop stop-color="#0573B3"/>
<stop offset="0.9912" stop-color="#02B6D4"/>
</linearGradient>
<linearGradient id="paint11_linear" x1="189.614" y1="351.053" x2="201.04" y2="351.053" gradientUnits="userSpaceOnUse">
<stop stop-color="#0573B3"/>
<stop offset="0.9912" stop-color="#02B6D4"/>
</linearGradient>
<linearGradient id="paint12_linear" x1="245.899" y1="304.614" x2="257.326" y2="304.614" gradientUnits="userSpaceOnUse">
<stop stop-color="#0573B3"/>
<stop offset="0.9912" stop-color="#02B6D4"/>
</linearGradient>
<linearGradient id="paint13_linear" x1="277.489" y1="297.429" x2="288.915" y2="297.429" gradientUnits="userSpaceOnUse">
<stop stop-color="#0573B3"/>
<stop offset="0.9912" stop-color="#02B6D4"/>
</linearGradient>
<linearGradient id="paint14_linear" x1="257.326" y1="374.979" x2="268.753" y2="374.979" gradientUnits="userSpaceOnUse">
<stop stop-color="#0573B3"/>
<stop offset="0.9912" stop-color="#02B6D4"/>
</linearGradient>
<linearGradient id="paint15_linear" x1="258.859" y1="420.046" x2="270.285" y2="420.046" gradientUnits="userSpaceOnUse">
<stop stop-color="#0573B3"/>
<stop offset="0.9912" stop-color="#02B6D4"/>
</linearGradient>
<linearGradient id="paint16_linear" x1="230.184" y1="403.356" x2="241.614" y2="403.356" gradientUnits="userSpaceOnUse">
<stop stop-color="#0573B3"/>
<stop offset="0.9912" stop-color="#02B6D4"/>
</linearGradient>
<linearGradient id="paint17_linear" x1="191.289" y1="420.046" x2="202.719" y2="420.046" gradientUnits="userSpaceOnUse">
<stop stop-color="#0573B3"/>
<stop offset="0.9912" stop-color="#02B6D4"/>
</linearGradient>
<linearGradient id="paint18_linear" x1="431.305" y1="573.177" x2="439.025" y2="573.177" gradientUnits="userSpaceOnUse">
<stop stop-color="#0573B3"/>
<stop offset="0.9912" stop-color="#02B6D4"/>
</linearGradient>
<linearGradient id="paint19_linear" x1="459.599" y1="564.493" x2="531.845" y2="564.493" gradientUnits="userSpaceOnUse">
<stop stop-color="#0573B3"/>
<stop offset="0.9912" stop-color="#02B6D4"/>
</linearGradient>
<linearGradient id="paint20_linear" x1="467.965" y1="573.177" x2="475.685" y2="573.177" gradientUnits="userSpaceOnUse">
<stop stop-color="#0573B3"/>
<stop offset="0.9912" stop-color="#02B6D4"/>
</linearGradient>
<linearGradient id="paint21_linear" x1="483.855" y1="482.529" x2="664.915" y2="482.529" gradientUnits="userSpaceOnUse">
<stop stop-color="#0573B3"/>
<stop offset="0.9912" stop-color="#02B6D4"/>
</linearGradient>
<linearGradient id="paint22_linear" x1="677.978" y1="377.605" x2="712.662" y2="377.605" gradientUnits="userSpaceOnUse">
<stop stop-color="#0573B3"/>
<stop offset="0.9912" stop-color="#02B6D4"/>
</linearGradient>
<linearGradient id="paint23_linear" x1="633.165" y1="540.108" x2="695.782" y2="540.108" gradientUnits="userSpaceOnUse">
<stop stop-color="#0573B3"/>
<stop offset="0.9912" stop-color="#02B6D4"/>
</linearGradient>
<linearGradient id="paint24_linear" x1="650.709" y1="540.142" x2="679.121" y2="540.142" gradientUnits="userSpaceOnUse">
<stop stop-color="#0573B3"/>
<stop offset="0.9912" stop-color="#02B6D4"/>
</linearGradient>
<linearGradient id="paint25_linear" x1="552.416" y1="475.162" x2="762.982" y2="475.162" gradientUnits="userSpaceOnUse">
<stop stop-color="#0573B3"/>
<stop offset="0.9912" stop-color="#02B6D4"/>
</linearGradient>
<linearGradient id="paint26_linear" x1="383.176" y1="520.264" x2="534.458" y2="520.264" gradientUnits="userSpaceOnUse">
<stop stop-color="#123C62"/>
<stop offset="0.1171" stop-color="#143E6C"/>
<stop offset="0.4368" stop-color="#1A4283"/>
<stop offset="0.7381" stop-color="#1D4491"/>
<stop offset="1" stop-color="#1E4596"/>
</linearGradient>
</defs>
</svg>
